;TYPE=PLATED
;Layer: PTH_Through
;EasyEDA Pro v3.2.148, 2026-07-08 02:16:09
;Gerber Generator version 0.3
M48
METRIC,LZ,0000.00000
;Hole size 1 = 0.30500 METRIC
T01C0.30500
;Hole size 2 = 0.60000 METRIC
T02C0.60000
;Hole size 3 = 0.70002 METRIC
T03C0.70002
%
G05
G90
T01
X39.24691Y36.48989
X3.80996Y29.52204
X18.92303Y30.04293
X18.16103Y28.26494
X51.7886Y33.39003
X53.3126Y34.66003
X42.53291Y15.68256
X41.67812Y9.58657
X40.96561Y9.19398
X38.73112Y13.46047
X41.47361Y11.58998
X33.59963Y9.30398
X3.67439Y11.81098
X1.054Y18.49536
X3.73089Y15.97697
X44.43211Y15.68277
X43.92411Y30.92274
T02
X34.15607Y35.29504G85X34.15607Y34.39504
X42.80609Y35.29503G85X42.80609Y34.395
X34.15601Y30.94497G85X34.15601Y30.34497
X42.80599Y30.94497G85X42.80599Y30.34497
X49.01507Y35.54904G85X49.01507Y34.64904
X57.66509Y35.54903G85X57.66509Y34.649
X49.01502Y31.19897G85X49.01502Y30.59897
X57.66499Y31.19897G85X57.66499Y30.59897
X2.16996Y15.10607G85X3.06996Y15.10607
X2.16997Y23.75609G85X3.07Y23.75609
X6.52003Y15.10602G85X7.12003Y15.10602
X6.52003Y23.75599G85X7.12003Y23.75599
T03
X1.93192Y39.68299G85X1.93192Y41.48296
X14.83208Y39.68299G85X14.83208Y41.48296
X16.15592Y39.68299G85X16.15592Y41.48296
X29.05608Y39.68299G85X29.05608Y41.48296
M30