G04 Layer: DrillDrawingLayer*
G04 EasyEDA Pro v3.2.148, 2026-07-08 02:16:09*
G04 Gerber Generator version 0.3*
G04 Scale: 100 percent, Rotated: No, Reflected: No*
G04 Dimensions in millimeters*
G04 Leading zeros omitted, absolute positions, 4 integers and 5 decimals*
G04 Generated by one-click*
G04 Object Configs: Pad,Via,Track,Text,Image,Dimension,BoardOutline,BoardCutout,CopperFilled,SolidRegion,FPCStiffener,Line,PlaneZone,ComponentProperty,ComponentSilkscreen,TearDrop*
G04 Layer Configs: 1,2,3,4,5,6,7,8,9,10,11,13,14,56*
G04 Copper Areas: 0*
%FSLAX45Y45*%
%MOMM*%
%AMIconRect*4,1,4,0.28,-0.28,-0.28,-0.28,-0.28,0.28,0.28,0.28,0.28,-0.28,0*4,0,4,0.233333,-0.233333,0.233333,0.233333,-0.233333,0.233333,-0.233333,-0.233333,0.233333,-0.233333,0*%
%AMIconTriangle*4,1,3,-0.339593,0.240473,0.339593,0.240473,0,-0.37884,-0.339593,0.240473,0*4,0,3,-0.265673,0.19404,0,-0.27342,0.266233,0.19404,-0.265673,0.19404,0*%
%AMIconStar6*4,1,12,0.12068,0.20888,0.298527,0.172713,0.241313,0,0.298527,-0.17206,0.12068,-0.208227,0,-0.344073,-0.120073,-0.208227,-0.298573,-0.17206,-0.240707,0,-0.298573,0.17206,-0.120073,0.20888,0,0.344073,0.12068,0.20888,0*4,0,12,-0.000467,0.273467,-0.090067,0.171733,-0.237533,0.136733,-0.193667,-0.007467,-0.237533,-0.1372,-0.090067,-0.171733,-0.000467,-0.273933,0.090067,-0.171733,0.237533,-0.1372,0.194133,0.007,0.237533,0.1372,0.090067,0.171267,-0.000467,0.273467,0*%
%AMIconStar4*4,1,8,-0.311733,0.311733,0,0.202533,0.311733,0.311733,0.202533,0,0.311733,-0.311733,0,-0.202533,-0.304407,-0.311733,-0.202533,0,-0.311733,0.311733,0*4,0,8,0.233333,-0.233333,0.1512,0,0.233333,0.233333,0,0.1512,-0.233333,0.233333,-0.1512,0,-0.233333,-0.233333,0,-0.1512,0.233333,-0.233333,0*%
%ADD10IconRect*%
%ADD11C,0.616X0.522667*%
%ADD12IconTriangle*%
%ADD13IconStar6*%
%ADD14IconStar4*%
%ADD15C,0.2032*%
%ADD16C,0.254*%
G75*


G04 Drill Drawing Start*
G54D10*
G01X193192Y4058298D03*
G01X1483208Y4058298D03*
G01X1615592Y4058298D03*
G01X2905608Y4058298D03*
G54D11*
G01X261996Y1510607D03*
G01X261998Y2375609D03*
G01X3415607Y3484504D03*
G01X4280609Y3484502D03*
G01X4901507Y3509904D03*
G01X5766509Y3509902D03*
G54D12*
G01X682003Y1510602D03*
G01X682003Y2375599D03*
G01X3415602Y3064497D03*
G01X4280599Y3064497D03*
G01X4901502Y3089897D03*
G01X5766499Y3089897D03*
G54D13*
G01X314008Y1654112D03*
G01X314008Y2232114D03*
G01X3559112Y3432493D03*
G01X4137114Y3432493D03*
G01X5045012Y3457893D03*
G01X5623014Y3457893D03*
G54D14*
G01X105400Y1849536D03*
G01X367439Y1181098D03*
G01X373089Y1597697D03*
G01X380996Y2952204D03*
G01X1816103Y2826494D03*
G01X1892303Y3004293D03*
G01X3359963Y930398D03*
G01X3873112Y1346047D03*
G01X3924691Y3648989D03*
G01X4096561Y919398D03*
G01X4147361Y1158998D03*
G01X4167812Y958657D03*
G01X4253291Y1568256D03*
G01X4392411Y3092274D03*
G01X4443211Y1568277D03*
G01X5178860Y3339003D03*
G01X5331260Y3466003D03*
G04 Drill Drawing End*

G04 Text Start*
G54D15*
G01X8675846Y4007394D02*
G01X8675846Y3887252D01*
G01X8675846Y4007394D02*
G01X8721566Y3887252D01*
G01X8767286Y4007394D02*
G01X8721566Y3887252D01*
G01X8767286Y4007394D02*
G01X8767286Y3887252D01*
G01X8883618Y3967262D02*
G01X8883618Y3887252D01*
G01X8883618Y3950244D02*
G01X8872188Y3961674D01*
G01X8860758Y3967262D01*
G01X8843740Y3967262D01*
G01X8832310Y3961674D01*
G01X8820880Y3950244D01*
G01X8815038Y3932972D01*
G01X8815038Y3921542D01*
G01X8820880Y3904524D01*
G01X8832310Y3893094D01*
G01X8843740Y3887252D01*
G01X8860758Y3887252D01*
G01X8872188Y3893094D01*
G01X8883618Y3904524D01*
G01X8931370Y3967262D02*
G01X8931370Y3887252D01*
G01X8931370Y3932972D02*
G01X8937212Y3950244D01*
G01X8948642Y3961674D01*
G01X8960072Y3967262D01*
G01X8977090Y3967262D01*
G01X9024842Y4007394D02*
G01X9024842Y3887252D01*
G01X9081992Y3967262D02*
G01X9024842Y3910112D01*
G01X9047702Y3932972D02*
G01X9087834Y3887252D01*
G01X10213126Y3978692D02*
G01X10207284Y3990122D01*
G01X10195854Y4001552D01*
G01X10184424Y4007394D01*
G01X10161564Y4007394D01*
G01X10150134Y4001552D01*
G01X10138704Y3990122D01*
G01X10133116Y3978692D01*
G01X10127274Y3961674D01*
G01X10127274Y3932972D01*
G01X10133116Y3915954D01*
G01X10138704Y3904524D01*
G01X10150134Y3893094D01*
G01X10161564Y3887252D01*
G01X10184424Y3887252D01*
G01X10195854Y3893094D01*
G01X10207284Y3904524D01*
G01X10213126Y3915954D01*
G01X10289580Y3967262D02*
G01X10278150Y3961674D01*
G01X10266720Y3950244D01*
G01X10260878Y3932972D01*
G01X10260878Y3921542D01*
G01X10266720Y3904524D01*
G01X10278150Y3893094D01*
G01X10289580Y3887252D01*
G01X10306598Y3887252D01*
G01X10318028Y3893094D01*
G01X10329458Y3904524D01*
G01X10335300Y3921542D01*
G01X10335300Y3932972D01*
G01X10329458Y3950244D01*
G01X10318028Y3961674D01*
G01X10306598Y3967262D01*
G01X10289580Y3967262D01*
G01X10383052Y3967262D02*
G01X10383052Y3910112D01*
G01X10388894Y3893094D01*
G01X10400324Y3887252D01*
G01X10417342Y3887252D01*
G01X10428772Y3893094D01*
G01X10446044Y3910112D01*
G01X10446044Y3967262D02*
G01X10446044Y3887252D01*
G01X10493796Y3967262D02*
G01X10493796Y3887252D01*
G01X10493796Y3944402D02*
G01X10511068Y3961674D01*
G01X10522498Y3967262D01*
G01X10539516Y3967262D01*
G01X10550946Y3961674D01*
G01X10556788Y3944402D01*
G01X10556788Y3887252D01*
G01X10621812Y4007394D02*
G01X10621812Y3910112D01*
G01X10627400Y3893094D01*
G01X10638830Y3887252D01*
G01X10650260Y3887252D01*
G01X10604540Y3967262D02*
G01X10644672Y3967262D01*
G01X11621447Y3990122D02*
G01X11610017Y4001552D01*
G01X11592999Y4007394D01*
G01X11570139Y4007394D01*
G01X11552867Y4001552D01*
G01X11541437Y3990122D01*
G01X11541437Y3978692D01*
G01X11547279Y3967262D01*
G01X11552867Y3961674D01*
G01X11564297Y3955832D01*
G01X11598587Y3944402D01*
G01X11610017Y3938814D01*
G01X11615859Y3932972D01*
G01X11621447Y3921542D01*
G01X11621447Y3904524D01*
G01X11610017Y3893094D01*
G01X11592999Y3887252D01*
G01X11570139Y3887252D01*
G01X11552867Y3893094D01*
G01X11541437Y3904524D01*
G01X11669199Y4007394D02*
G01X11675041Y4001552D01*
G01X11680629Y4007394D01*
G01X11675041Y4012982D01*
G01X11669199Y4007394D01*
G01X11675041Y3967262D02*
G01X11675041Y3887252D01*
G01X11791373Y3967262D02*
G01X11728381Y3887252D01*
G01X11728381Y3967262D02*
G01X11791373Y3967262D01*
G01X11728381Y3887252D02*
G01X11791373Y3887252D01*
G01X11839125Y3932972D02*
G01X11907705Y3932972D01*
G01X11907705Y3944402D01*
G01X11902117Y3955832D01*
G01X11896275Y3961674D01*
G01X11884845Y3967262D01*
G01X11867827Y3967262D01*
G01X11856397Y3961674D01*
G01X11844967Y3950244D01*
G01X11839125Y3932972D01*
G01X11839125Y3921542D01*
G01X11844967Y3904524D01*
G01X11856397Y3893094D01*
G01X11867827Y3887252D01*
G01X11884845Y3887252D01*
G01X11896275Y3893094D01*
G01X11907705Y3904524D01*
G01X15429561Y4007394D02*
G01X15429561Y3887252D01*
G01X15429561Y4007394D02*
G01X15481123Y4007394D01*
G01X15498141Y4001552D01*
G01X15503983Y3995964D01*
G01X15509571Y3984534D01*
G01X15509571Y3967262D01*
G01X15503983Y3955832D01*
G01X15498141Y3950244D01*
G01X15481123Y3944402D01*
G01X15429561Y3944402D01*
G01X15557323Y4007394D02*
G01X15557323Y3887252D01*
G01X15673655Y3967262D02*
G01X15673655Y3887252D01*
G01X15673655Y3950244D02*
G01X15662225Y3961674D01*
G01X15650795Y3967262D01*
G01X15633777Y3967262D01*
G01X15622347Y3961674D01*
G01X15610917Y3950244D01*
G01X15605075Y3932972D01*
G01X15605075Y3921542D01*
G01X15610917Y3904524D01*
G01X15622347Y3893094D01*
G01X15633777Y3887252D01*
G01X15650795Y3887252D01*
G01X15662225Y3893094D01*
G01X15673655Y3904524D01*
G01X15738679Y4007394D02*
G01X15738679Y3910112D01*
G01X15744267Y3893094D01*
G01X15755697Y3887252D01*
G01X15767127Y3887252D01*
G01X15721407Y3967262D02*
G01X15761539Y3967262D01*
G01X15814879Y3932972D02*
G01X15883459Y3932972D01*
G01X15883459Y3944402D01*
G01X15877871Y3955832D01*
G01X15872029Y3961674D01*
G01X15860599Y3967262D01*
G01X15843581Y3967262D01*
G01X15832151Y3961674D01*
G01X15820721Y3950244D01*
G01X15814879Y3932972D01*
G01X15814879Y3921542D01*
G01X15820721Y3904524D01*
G01X15832151Y3893094D01*
G01X15843581Y3887252D01*
G01X15860599Y3887252D01*
G01X15872029Y3893094D01*
G01X15883459Y3904524D01*
G01X15999791Y4007394D02*
G01X15999791Y3887252D01*
G01X15999791Y3950244D02*
G01X15988361Y3961674D01*
G01X15976931Y3967262D01*
G01X15959913Y3967262D01*
G01X15948483Y3961674D01*
G01X15937053Y3950244D01*
G01X15931211Y3932972D01*
G01X15931211Y3921542D01*
G01X15937053Y3904524D01*
G01X15948483Y3893094D01*
G01X15959913Y3887252D01*
G01X15976931Y3887252D01*
G01X15988361Y3893094D01*
G01X15999791Y3904524D01*
G01X16970978Y3990122D02*
G01X16959548Y4001552D01*
G01X16942530Y4007394D01*
G01X16919670Y4007394D01*
G01X16902398Y4001552D01*
G01X16890968Y3990122D01*
G01X16890968Y3978692D01*
G01X16896810Y3967262D01*
G01X16902398Y3961674D01*
G01X16913828Y3955832D01*
G01X16948118Y3944402D01*
G01X16959548Y3938814D01*
G01X16965390Y3932972D01*
G01X16970978Y3921542D01*
G01X16970978Y3904524D01*
G01X16959548Y3893094D01*
G01X16942530Y3887252D01*
G01X16919670Y3887252D01*
G01X16902398Y3893094D01*
G01X16890968Y3904524D01*
G01X17018730Y4007394D02*
G01X17018730Y3887252D01*
G01X17018730Y3944402D02*
G01X17036002Y3961674D01*
G01X17047432Y3967262D01*
G01X17064450Y3967262D01*
G01X17075880Y3961674D01*
G01X17081722Y3944402D01*
G01X17081722Y3887252D01*
G01X17198054Y3967262D02*
G01X17198054Y3887252D01*
G01X17198054Y3950244D02*
G01X17186624Y3961674D01*
G01X17175194Y3967262D01*
G01X17158176Y3967262D01*
G01X17146746Y3961674D01*
G01X17135316Y3950244D01*
G01X17129474Y3932972D01*
G01X17129474Y3921542D01*
G01X17135316Y3904524D01*
G01X17146746Y3893094D01*
G01X17158176Y3887252D01*
G01X17175194Y3887252D01*
G01X17186624Y3893094D01*
G01X17198054Y3904524D01*
G01X17245806Y3967262D02*
G01X17245806Y3847374D01*
G01X17245806Y3950244D02*
G01X17257236Y3961674D01*
G01X17268666Y3967262D01*
G01X17285938Y3967262D01*
G01X17297368Y3961674D01*
G01X17308798Y3950244D01*
G01X17314386Y3932972D01*
G01X17314386Y3921542D01*
G01X17308798Y3904524D01*
G01X17297368Y3893094D01*
G01X17285938Y3887252D01*
G01X17268666Y3887252D01*
G01X17257236Y3893094D01*
G01X17245806Y3904524D01*
G01X17362138Y3932972D02*
G01X17430718Y3932972D01*
G01X17430718Y3944402D01*
G01X17425130Y3955832D01*
G01X17419288Y3961674D01*
G01X17407858Y3967262D01*
G01X17390840Y3967262D01*
G01X17379410Y3961674D01*
G01X17367980Y3950244D01*
G01X17362138Y3932972D01*
G01X17362138Y3921542D01*
G01X17367980Y3904524D01*
G01X17379410Y3893094D01*
G01X17390840Y3887252D01*
G01X17407858Y3887252D01*
G01X17419288Y3893094D01*
G01X17430718Y3904524D01*
G01X18322149Y4007394D02*
G01X18367869Y3887252D01*
G01X18413589Y4007394D02*
G01X18367869Y3887252D01*
G01X18461341Y4007394D02*
G01X18467183Y4001552D01*
G01X18472771Y4007394D01*
G01X18467183Y4012982D01*
G01X18461341Y4007394D01*
G01X18467183Y3967262D02*
G01X18467183Y3887252D01*
G01X18589103Y3967262D02*
G01X18589103Y3887252D01*
G01X18589103Y3950244D02*
G01X18577673Y3961674D01*
G01X18566243Y3967262D01*
G01X18549225Y3967262D01*
G01X18537795Y3961674D01*
G01X18526365Y3950244D01*
G01X18520523Y3932972D01*
G01X18520523Y3921542D01*
G01X18526365Y3904524D01*
G01X18537795Y3893094D01*
G01X18549225Y3887252D01*
G01X18566243Y3887252D01*
G01X18577673Y3893094D01*
G01X18589103Y3904524D01*
G01X18739725Y4030254D02*
G01X18636855Y3847374D01*
G01X18787477Y4007394D02*
G01X18787477Y3887252D01*
G01X18787477Y4007394D02*
G01X18839039Y4007394D01*
G01X18856057Y4001552D01*
G01X18861899Y3995964D01*
G01X18867487Y3984534D01*
G01X18867487Y3967262D01*
G01X18861899Y3955832D01*
G01X18856057Y3950244D01*
G01X18839039Y3944402D01*
G01X18787477Y3944402D01*
G01X18983819Y3967262D02*
G01X18983819Y3887252D01*
G01X18983819Y3950244D02*
G01X18972389Y3961674D01*
G01X18960959Y3967262D01*
G01X18943941Y3967262D01*
G01X18932511Y3961674D01*
G01X18921081Y3950244D01*
G01X18915239Y3932972D01*
G01X18915239Y3921542D01*
G01X18921081Y3904524D01*
G01X18932511Y3893094D01*
G01X18943941Y3887252D01*
G01X18960959Y3887252D01*
G01X18972389Y3893094D01*
G01X18983819Y3904524D01*
G01X19100151Y4007394D02*
G01X19100151Y3887252D01*
G01X19100151Y3950244D02*
G01X19088721Y3961674D01*
G01X19077291Y3967262D01*
G01X19060273Y3967262D01*
G01X19048843Y3961674D01*
G01X19037413Y3950244D01*
G01X19031571Y3932972D01*
G01X19031571Y3921542D01*
G01X19037413Y3904524D01*
G01X19048843Y3893094D01*
G01X19060273Y3887252D01*
G01X19077291Y3887252D01*
G01X19088721Y3893094D01*
G01X19100151Y3904524D01*
G01X19991328Y4007394D02*
G01X19991328Y3887252D01*
G01X19991328Y4007394D02*
G01X20042890Y4007394D01*
G01X20059908Y4001552D01*
G01X20065750Y3995964D01*
G01X20071338Y3984534D01*
G01X20071338Y3967262D01*
G01X20065750Y3955832D01*
G01X20059908Y3950244D01*
G01X20042890Y3944402D01*
G01X19991328Y3944402D01*
G01X20187670Y3967262D02*
G01X20187670Y3887252D01*
G01X20187670Y3950244D02*
G01X20176240Y3961674D01*
G01X20164810Y3967262D01*
G01X20147792Y3967262D01*
G01X20136362Y3961674D01*
G01X20124932Y3950244D01*
G01X20119090Y3932972D01*
G01X20119090Y3921542D01*
G01X20124932Y3904524D01*
G01X20136362Y3893094D01*
G01X20147792Y3887252D01*
G01X20164810Y3887252D01*
G01X20176240Y3893094D01*
G01X20187670Y3904524D01*
G01X20304002Y4007394D02*
G01X20304002Y3887252D01*
G01X20304002Y3950244D02*
G01X20292572Y3961674D01*
G01X20281142Y3967262D01*
G01X20264124Y3967262D01*
G01X20252694Y3961674D01*
G01X20241264Y3950244D01*
G01X20235422Y3932972D01*
G01X20235422Y3921542D01*
G01X20241264Y3904524D01*
G01X20252694Y3893094D01*
G01X20264124Y3887252D01*
G01X20281142Y3887252D01*
G01X20292572Y3893094D01*
G01X20304002Y3904524D01*
G01X20559780Y3990122D02*
G01X20548350Y4001552D01*
G01X20531332Y4007394D01*
G01X20508472Y4007394D01*
G01X20491200Y4001552D01*
G01X20479770Y3990122D01*
G01X20479770Y3978692D01*
G01X20485612Y3967262D01*
G01X20491200Y3961674D01*
G01X20502630Y3955832D01*
G01X20536920Y3944402D01*
G01X20548350Y3938814D01*
G01X20554192Y3932972D01*
G01X20559780Y3921542D01*
G01X20559780Y3904524D01*
G01X20548350Y3893094D01*
G01X20531332Y3887252D01*
G01X20508472Y3887252D01*
G01X20491200Y3893094D01*
G01X20479770Y3904524D01*
G01X20607532Y4007394D02*
G01X20607532Y3887252D01*
G01X20607532Y3944402D02*
G01X20624804Y3961674D01*
G01X20636234Y3967262D01*
G01X20653252Y3967262D01*
G01X20664682Y3961674D01*
G01X20670524Y3944402D01*
G01X20670524Y3887252D01*
G01X20786856Y3967262D02*
G01X20786856Y3887252D01*
G01X20786856Y3950244D02*
G01X20775426Y3961674D01*
G01X20763996Y3967262D01*
G01X20746978Y3967262D01*
G01X20735548Y3961674D01*
G01X20724118Y3950244D01*
G01X20718276Y3932972D01*
G01X20718276Y3921542D01*
G01X20724118Y3904524D01*
G01X20735548Y3893094D01*
G01X20746978Y3887252D01*
G01X20763996Y3887252D01*
G01X20775426Y3893094D01*
G01X20786856Y3904524D01*
G01X20834608Y3967262D02*
G01X20834608Y3847374D01*
G01X20834608Y3950244D02*
G01X20846038Y3961674D01*
G01X20857468Y3967262D01*
G01X20874740Y3967262D01*
G01X20886170Y3961674D01*
G01X20897600Y3950244D01*
G01X20903188Y3932972D01*
G01X20903188Y3921542D01*
G01X20897600Y3904524D01*
G01X20886170Y3893094D01*
G01X20874740Y3887252D01*
G01X20857468Y3887252D01*
G01X20846038Y3893094D01*
G01X20834608Y3904524D01*
G01X20950940Y3932972D02*
G01X21019520Y3932972D01*
G01X21019520Y3944402D01*
G01X21013932Y3955832D01*
G01X21008090Y3961674D01*
G01X20996660Y3967262D01*
G01X20979642Y3967262D01*
G01X20968212Y3961674D01*
G01X20956782Y3950244D01*
G01X20950940Y3932972D01*
G01X20950940Y3921542D01*
G01X20956782Y3904524D01*
G01X20968212Y3893094D01*
G01X20979642Y3887252D01*
G01X20996660Y3887252D01*
G01X21008090Y3893094D01*
G01X21019520Y3904524D01*
G01X21910697Y4007394D02*
G01X21910697Y3887252D01*
G01X21910697Y3887252D02*
G01X21979277Y3887252D01*
G01X22095609Y3967262D02*
G01X22095609Y3887252D01*
G01X22095609Y3950244D02*
G01X22084179Y3961674D01*
G01X22072749Y3967262D01*
G01X22055731Y3967262D01*
G01X22044301Y3961674D01*
G01X22032871Y3950244D01*
G01X22027029Y3932972D01*
G01X22027029Y3921542D01*
G01X22032871Y3904524D01*
G01X22044301Y3893094D01*
G01X22055731Y3887252D01*
G01X22072749Y3887252D01*
G01X22084179Y3893094D01*
G01X22095609Y3904524D01*
G01X22149203Y3967262D02*
G01X22183493Y3887252D01*
G01X22217783Y3967262D02*
G01X22183493Y3887252D01*
G01X22172063Y3864392D01*
G01X22160633Y3852962D01*
G01X22149203Y3847374D01*
G01X22143361Y3847374D01*
G01X22265535Y3932972D02*
G01X22334115Y3932972D01*
G01X22334115Y3944402D01*
G01X22328527Y3955832D01*
G01X22322685Y3961674D01*
G01X22311255Y3967262D01*
G01X22294237Y3967262D01*
G01X22282807Y3961674D01*
G01X22271377Y3950244D01*
G01X22265535Y3932972D01*
G01X22265535Y3921542D01*
G01X22271377Y3904524D01*
G01X22282807Y3893094D01*
G01X22294237Y3887252D01*
G01X22311255Y3887252D01*
G01X22322685Y3893094D01*
G01X22334115Y3904524D01*
G01X22381867Y3967262D02*
G01X22381867Y3887252D01*
G01X22381867Y3932972D02*
G01X22387709Y3950244D01*
G01X22399139Y3961674D01*
G01X22410569Y3967262D01*
G01X22427587Y3967262D01*
G01X22603355Y4007394D02*
G01X22603355Y3887252D01*
G01X22603355Y4007394D02*
G01X22654917Y4007394D01*
G01X22671935Y4001552D01*
G01X22677777Y3995964D01*
G01X22683365Y3984534D01*
G01X22683365Y3967262D01*
G01X22677777Y3955832D01*
G01X22671935Y3950244D01*
G01X22654917Y3944402D01*
G01X22603355Y3944402D01*
G01X22799697Y3967262D02*
G01X22799697Y3887252D01*
G01X22799697Y3950244D02*
G01X22788267Y3961674D01*
G01X22776837Y3967262D01*
G01X22759819Y3967262D01*
G01X22748389Y3961674D01*
G01X22736959Y3950244D01*
G01X22731117Y3932972D01*
G01X22731117Y3921542D01*
G01X22736959Y3904524D01*
G01X22748389Y3893094D01*
G01X22759819Y3887252D01*
G01X22776837Y3887252D01*
G01X22788267Y3893094D01*
G01X22799697Y3904524D01*
G01X22847449Y4007394D02*
G01X22853291Y4001552D01*
G01X22858879Y4007394D01*
G01X22853291Y4012982D01*
G01X22847449Y4007394D01*
G01X22853291Y3967262D02*
G01X22853291Y3887252D01*
G01X22906631Y3967262D02*
G01X22906631Y3887252D01*
G01X22906631Y3932972D02*
G01X22912473Y3950244D01*
G01X22923903Y3961674D01*
G01X22935333Y3967262D01*
G01X22952351Y3967262D01*
G01X10184424Y3426823D02*
G01X10127274Y3346813D01*
G01X10213126Y3346813D01*
G01X10184424Y3426823D02*
G01X10184424Y3306681D01*
G01X11547279Y3398121D02*
G01X11547279Y3403963D01*
G01X11552867Y3415393D01*
G01X11558709Y3420981D01*
G01X11570139Y3426823D01*
G01X11592999Y3426823D01*
G01X11604429Y3420981D01*
G01X11610017Y3415393D01*
G01X11615859Y3403963D01*
G01X11615859Y3392533D01*
G01X11610017Y3381103D01*
G01X11598587Y3363831D01*
G01X11541437Y3306681D01*
G01X11621447Y3306681D01*
G01X11749209Y3426823D02*
G01X11692059Y3306681D01*
G01X11669199Y3426823D02*
G01X11749209Y3426823D01*
G01X11802803Y3335383D02*
G01X11796961Y3329541D01*
G01X11802803Y3323953D01*
G01X11808391Y3329541D01*
G01X11802803Y3335383D01*
G01X11924723Y3409551D02*
G01X11919135Y3420981D01*
G01X11901863Y3426823D01*
G01X11890433Y3426823D01*
G01X11873415Y3420981D01*
G01X11861985Y3403963D01*
G01X11856143Y3375261D01*
G01X11856143Y3346813D01*
G01X11861985Y3323953D01*
G01X11873415Y3312523D01*
G01X11890433Y3306681D01*
G01X11896275Y3306681D01*
G01X11913293Y3312523D01*
G01X11924723Y3323953D01*
G01X11930565Y3340971D01*
G01X11930565Y3346813D01*
G01X11924723Y3363831D01*
G01X11913293Y3375261D01*
G01X11896275Y3381103D01*
G01X11890433Y3381103D01*
G01X11873415Y3375261D01*
G01X11861985Y3363831D01*
G01X11856143Y3346813D01*
G01X11978317Y3386691D02*
G01X12041309Y3306681D01*
G01X12041309Y3386691D02*
G01X11978317Y3306681D01*
G01X12163483Y3386691D02*
G01X12157641Y3369673D01*
G01X12146211Y3358243D01*
G01X12129193Y3352401D01*
G01X12123351Y3352401D01*
G01X12106333Y3358243D01*
G01X12094903Y3369673D01*
G01X12089061Y3386691D01*
G01X12089061Y3392533D01*
G01X12094903Y3409551D01*
G01X12106333Y3420981D01*
G01X12123351Y3426823D01*
G01X12129193Y3426823D01*
G01X12146211Y3420981D01*
G01X12157641Y3409551D01*
G01X12163483Y3386691D01*
G01X12163483Y3358243D01*
G01X12157641Y3329541D01*
G01X12146211Y3312523D01*
G01X12129193Y3306681D01*
G01X12117763Y3306681D01*
G01X12100491Y3312523D01*
G01X12094903Y3323953D01*
G01X12239937Y3426823D02*
G01X12222665Y3420981D01*
G01X12217077Y3409551D01*
G01X12217077Y3398121D01*
G01X12222665Y3386691D01*
G01X12234095Y3381103D01*
G01X12256955Y3375261D01*
G01X12274227Y3369673D01*
G01X12285657Y3358243D01*
G01X12291245Y3346813D01*
G01X12291245Y3329541D01*
G01X12285657Y3318111D01*
G01X12279815Y3312523D01*
G01X12262797Y3306681D01*
G01X12239937Y3306681D01*
G01X12222665Y3312523D01*
G01X12217077Y3318111D01*
G01X12211235Y3329541D01*
G01X12211235Y3346813D01*
G01X12217077Y3358243D01*
G01X12228507Y3369673D01*
G01X12245525Y3375261D01*
G01X12268385Y3381103D01*
G01X12279815Y3386691D01*
G01X12285657Y3398121D01*
G01X12285657Y3409551D01*
G01X12279815Y3420981D01*
G01X12262797Y3426823D01*
G01X12239937Y3426823D01*
G01X12344839Y3335383D02*
G01X12338997Y3329541D01*
G01X12344839Y3323953D01*
G01X12350427Y3329541D01*
G01X12344839Y3335383D01*
G01X12455329Y3426823D02*
G01X12398179Y3346813D01*
G01X12484031Y3346813D01*
G01X12455329Y3426823D02*
G01X12455329Y3306681D01*
G01X12531783Y3386691D02*
G01X12531783Y3306681D01*
G01X12531783Y3363831D02*
G01X12549055Y3381103D01*
G01X12560485Y3386691D01*
G01X12577503Y3386691D01*
G01X12588933Y3381103D01*
G01X12594775Y3363831D01*
G01X12594775Y3306681D01*
G01X12594775Y3363831D02*
G01X12611793Y3381103D01*
G01X12623223Y3386691D01*
G01X12640495Y3386691D01*
G01X12651925Y3381103D01*
G01X12657513Y3363831D01*
G01X12657513Y3306681D01*
G01X12705265Y3426823D02*
G01X12711107Y3420981D01*
G01X12716695Y3426823D01*
G01X12711107Y3432411D01*
G01X12705265Y3426823D01*
G01X12711107Y3386691D02*
G01X12711107Y3306681D01*
G01X12764447Y3426823D02*
G01X12764447Y3306681D01*
G01X12852331Y3449683D02*
G01X12840901Y3438253D01*
G01X12829471Y3420981D01*
G01X12818041Y3398121D01*
G01X12812199Y3369673D01*
G01X12812199Y3346813D01*
G01X12818041Y3318111D01*
G01X12829471Y3295251D01*
G01X12840901Y3278233D01*
G01X12852331Y3266803D01*
G01X12934373Y3426823D02*
G01X12917355Y3420981D01*
G01X12905925Y3403963D01*
G01X12900083Y3375261D01*
G01X12900083Y3358243D01*
G01X12905925Y3329541D01*
G01X12917355Y3312523D01*
G01X12934373Y3306681D01*
G01X12945803Y3306681D01*
G01X12963075Y3312523D01*
G01X12974505Y3329541D01*
G01X12980093Y3358243D01*
G01X12980093Y3375261D01*
G01X12974505Y3403963D01*
G01X12963075Y3420981D01*
G01X12945803Y3426823D01*
G01X12934373Y3426823D01*
G01X13033687Y3335383D02*
G01X13027845Y3329541D01*
G01X13033687Y3323953D01*
G01X13039275Y3329541D01*
G01X13033687Y3335383D01*
G01X13167037Y3426823D02*
G01X13109887Y3306681D01*
G01X13087027Y3426823D02*
G01X13167037Y3426823D01*
G01X13249079Y3426823D02*
G01X13232061Y3420981D01*
G01X13220631Y3403963D01*
G01X13214789Y3375261D01*
G01X13214789Y3358243D01*
G01X13220631Y3329541D01*
G01X13232061Y3312523D01*
G01X13249079Y3306681D01*
G01X13260509Y3306681D01*
G01X13277781Y3312523D01*
G01X13289211Y3329541D01*
G01X13294799Y3358243D01*
G01X13294799Y3375261D01*
G01X13289211Y3403963D01*
G01X13277781Y3420981D01*
G01X13260509Y3426823D01*
G01X13249079Y3426823D01*
G01X13376841Y3426823D02*
G01X13359823Y3420981D01*
G01X13348393Y3403963D01*
G01X13342551Y3375261D01*
G01X13342551Y3358243D01*
G01X13348393Y3329541D01*
G01X13359823Y3312523D01*
G01X13376841Y3306681D01*
G01X13388271Y3306681D01*
G01X13405543Y3312523D01*
G01X13416973Y3329541D01*
G01X13422561Y3358243D01*
G01X13422561Y3375261D01*
G01X13416973Y3403963D01*
G01X13405543Y3420981D01*
G01X13388271Y3426823D01*
G01X13376841Y3426823D01*
G01X13470313Y3386691D02*
G01X13533305Y3306681D01*
G01X13533305Y3386691D02*
G01X13470313Y3306681D01*
G01X13586899Y3398121D02*
G01X13586899Y3403963D01*
G01X13592487Y3415393D01*
G01X13598329Y3420981D01*
G01X13609759Y3426823D01*
G01X13632619Y3426823D01*
G01X13644049Y3420981D01*
G01X13649637Y3415393D01*
G01X13655479Y3403963D01*
G01X13655479Y3392533D01*
G01X13649637Y3381103D01*
G01X13638207Y3363831D01*
G01X13581057Y3306681D01*
G01X13661067Y3306681D01*
G01X13714661Y3335383D02*
G01X13708819Y3329541D01*
G01X13714661Y3323953D01*
G01X13720249Y3329541D01*
G01X13714661Y3335383D01*
G01X13836581Y3426823D02*
G01X13779431Y3426823D01*
G01X13773843Y3375261D01*
G01X13779431Y3381103D01*
G01X13796703Y3386691D01*
G01X13813721Y3386691D01*
G01X13830993Y3381103D01*
G01X13842423Y3369673D01*
G01X13848011Y3352401D01*
G01X13848011Y3340971D01*
G01X13842423Y3323953D01*
G01X13830993Y3312523D01*
G01X13813721Y3306681D01*
G01X13796703Y3306681D01*
G01X13779431Y3312523D01*
G01X13773843Y3318111D01*
G01X13768001Y3329541D01*
G01X13930053Y3426823D02*
G01X13913035Y3420981D01*
G01X13901605Y3403963D01*
G01X13895763Y3375261D01*
G01X13895763Y3358243D01*
G01X13901605Y3329541D01*
G01X13913035Y3312523D01*
G01X13930053Y3306681D01*
G01X13941483Y3306681D01*
G01X13958755Y3312523D01*
G01X13970185Y3329541D01*
G01X13975773Y3358243D01*
G01X13975773Y3375261D01*
G01X13970185Y3403963D01*
G01X13958755Y3420981D01*
G01X13941483Y3426823D01*
G01X13930053Y3426823D01*
G01X14057815Y3426823D02*
G01X14040797Y3420981D01*
G01X14029367Y3403963D01*
G01X14023525Y3375261D01*
G01X14023525Y3358243D01*
G01X14029367Y3329541D01*
G01X14040797Y3312523D01*
G01X14057815Y3306681D01*
G01X14069245Y3306681D01*
G01X14086517Y3312523D01*
G01X14097947Y3329541D01*
G01X14103535Y3358243D01*
G01X14103535Y3375261D01*
G01X14097947Y3403963D01*
G01X14086517Y3420981D01*
G01X14069245Y3426823D01*
G01X14057815Y3426823D01*
G01X14151287Y3386691D02*
G01X14151287Y3306681D01*
G01X14151287Y3363831D02*
G01X14168559Y3381103D01*
G01X14179989Y3386691D01*
G01X14197007Y3386691D01*
G01X14208437Y3381103D01*
G01X14214279Y3363831D01*
G01X14214279Y3306681D01*
G01X14214279Y3363831D02*
G01X14231297Y3381103D01*
G01X14242727Y3386691D01*
G01X14259999Y3386691D01*
G01X14271429Y3381103D01*
G01X14277017Y3363831D01*
G01X14277017Y3306681D01*
G01X14324769Y3386691D02*
G01X14324769Y3306681D01*
G01X14324769Y3363831D02*
G01X14342041Y3381103D01*
G01X14353471Y3386691D01*
G01X14370489Y3386691D01*
G01X14381919Y3381103D01*
G01X14387761Y3363831D01*
G01X14387761Y3306681D01*
G01X14387761Y3363831D02*
G01X14404779Y3381103D01*
G01X14416209Y3386691D01*
G01X14433481Y3386691D01*
G01X14444911Y3381103D01*
G01X14450499Y3363831D01*
G01X14450499Y3306681D01*
G01X14498251Y3449683D02*
G01X14509681Y3438253D01*
G01X14521111Y3420981D01*
G01X14532541Y3398121D01*
G01X14538383Y3369673D01*
G01X14538383Y3346813D01*
G01X14532541Y3318111D01*
G01X14521111Y3295251D01*
G01X14509681Y3278233D01*
G01X14498251Y3266803D01*
G01X15429561Y3426823D02*
G01X15429561Y3306681D01*
G01X15429561Y3426823D02*
G01X15481123Y3426823D01*
G01X15498141Y3420981D01*
G01X15503983Y3415393D01*
G01X15509571Y3403963D01*
G01X15509571Y3386691D01*
G01X15503983Y3375261D01*
G01X15498141Y3369673D01*
G01X15481123Y3363831D01*
G01X15429561Y3363831D01*
G01X15597455Y3426823D02*
G01X15597455Y3306681D01*
G01X15557323Y3426823D02*
G01X15637333Y3426823D01*
G01X15685085Y3426823D02*
G01X15685085Y3306681D01*
G01X15765095Y3426823D02*
G01X15765095Y3306681D01*
G01X15685085Y3369673D02*
G01X15765095Y3369673D01*
G01X16970978Y3409551D02*
G01X16959548Y3420981D01*
G01X16942530Y3426823D01*
G01X16919670Y3426823D01*
G01X16902398Y3420981D01*
G01X16890968Y3409551D01*
G01X16890968Y3398121D01*
G01X16896810Y3386691D01*
G01X16902398Y3381103D01*
G01X16913828Y3375261D01*
G01X16948118Y3363831D01*
G01X16959548Y3358243D01*
G01X16965390Y3352401D01*
G01X16970978Y3340971D01*
G01X16970978Y3323953D01*
G01X16959548Y3312523D01*
G01X16942530Y3306681D01*
G01X16919670Y3306681D01*
G01X16902398Y3312523D01*
G01X16890968Y3323953D01*
G01X17018730Y3426823D02*
G01X17018730Y3306681D01*
G01X17095184Y3386691D02*
G01X17083754Y3381103D01*
G01X17072324Y3369673D01*
G01X17066482Y3352401D01*
G01X17066482Y3340971D01*
G01X17072324Y3323953D01*
G01X17083754Y3312523D01*
G01X17095184Y3306681D01*
G01X17112202Y3306681D01*
G01X17123632Y3312523D01*
G01X17135062Y3323953D01*
G01X17140904Y3340971D01*
G01X17140904Y3352401D01*
G01X17135062Y3369673D01*
G01X17123632Y3381103D01*
G01X17112202Y3386691D01*
G01X17095184Y3386691D01*
G01X17205928Y3426823D02*
G01X17205928Y3329541D01*
G01X17211516Y3312523D01*
G01X17222946Y3306681D01*
G01X17234376Y3306681D01*
G01X17188656Y3386691D02*
G01X17228788Y3386691D01*
G01X18322149Y3426823D02*
G01X18322149Y3306681D01*
G01X18322149Y3426823D02*
G01X18373711Y3426823D01*
G01X18390729Y3420981D01*
G01X18396571Y3415393D01*
G01X18402159Y3403963D01*
G01X18402159Y3386691D01*
G01X18396571Y3375261D01*
G01X18390729Y3369673D01*
G01X18373711Y3363831D01*
G01X18322149Y3363831D01*
G01X18518491Y3386691D02*
G01X18518491Y3306681D01*
G01X18518491Y3369673D02*
G01X18507061Y3381103D01*
G01X18495631Y3386691D01*
G01X18478613Y3386691D01*
G01X18467183Y3381103D01*
G01X18455753Y3369673D01*
G01X18449911Y3352401D01*
G01X18449911Y3340971D01*
G01X18455753Y3323953D01*
G01X18467183Y3312523D01*
G01X18478613Y3306681D01*
G01X18495631Y3306681D01*
G01X18507061Y3312523D01*
G01X18518491Y3323953D01*
G01X18634823Y3426823D02*
G01X18634823Y3306681D01*
G01X18634823Y3369673D02*
G01X18623393Y3381103D01*
G01X18611963Y3386691D01*
G01X18594945Y3386691D01*
G01X18583515Y3381103D01*
G01X18572085Y3369673D01*
G01X18566243Y3352401D01*
G01X18566243Y3340971D01*
G01X18572085Y3323953D01*
G01X18583515Y3312523D01*
G01X18594945Y3306681D01*
G01X18611963Y3306681D01*
G01X18623393Y3312523D01*
G01X18634823Y3323953D01*
G01X20025618Y3426823D02*
G01X20014188Y3420981D01*
G01X20002758Y3409551D01*
G01X19997170Y3398121D01*
G01X19991328Y3381103D01*
G01X19991328Y3352401D01*
G01X19997170Y3335383D01*
G01X20002758Y3323953D01*
G01X20014188Y3312523D01*
G01X20025618Y3306681D01*
G01X20048478Y3306681D01*
G01X20059908Y3312523D01*
G01X20071338Y3323953D01*
G01X20077180Y3335383D01*
G01X20082768Y3352401D01*
G01X20082768Y3381103D01*
G01X20077180Y3398121D01*
G01X20071338Y3409551D01*
G01X20059908Y3420981D01*
G01X20048478Y3426823D01*
G01X20025618Y3426823D01*
G01X20130520Y3386691D02*
G01X20164810Y3306681D01*
G01X20199100Y3386691D02*
G01X20164810Y3306681D01*
G01X20315432Y3386691D02*
G01X20315432Y3306681D01*
G01X20315432Y3369673D02*
G01X20304002Y3381103D01*
G01X20292572Y3386691D01*
G01X20275554Y3386691D01*
G01X20264124Y3381103D01*
G01X20252694Y3369673D01*
G01X20246852Y3352401D01*
G01X20246852Y3340971D01*
G01X20252694Y3323953D01*
G01X20264124Y3312523D01*
G01X20275554Y3306681D01*
G01X20292572Y3306681D01*
G01X20304002Y3312523D01*
G01X20315432Y3323953D01*
G01X20363184Y3426823D02*
G01X20363184Y3306681D01*
G01X21950829Y3426823D02*
G01X21950829Y3306681D01*
G01X21910697Y3426823D02*
G01X21990707Y3426823D01*
G01X22067161Y3386691D02*
G01X22055731Y3381103D01*
G01X22044301Y3369673D01*
G01X22038459Y3352401D01*
G01X22038459Y3340971D01*
G01X22044301Y3323953D01*
G01X22055731Y3312523D01*
G01X22067161Y3306681D01*
G01X22084179Y3306681D01*
G01X22095609Y3312523D01*
G01X22107039Y3323953D01*
G01X22112881Y3340971D01*
G01X22112881Y3352401D01*
G01X22107039Y3369673D01*
G01X22095609Y3381103D01*
G01X22084179Y3386691D01*
G01X22067161Y3386691D01*
G01X22160633Y3386691D02*
G01X22160633Y3266803D01*
G01X22160633Y3369673D02*
G01X22172063Y3381103D01*
G01X22183493Y3386691D01*
G01X22200765Y3386691D01*
G01X22212195Y3381103D01*
G01X22223625Y3369673D01*
G01X22229213Y3352401D01*
G01X22229213Y3340971D01*
G01X22223625Y3323953D01*
G01X22212195Y3312523D01*
G01X22200765Y3306681D01*
G01X22183493Y3306681D01*
G01X22172063Y3312523D01*
G01X22160633Y3323953D01*
G01X22404981Y3426823D02*
G01X22404981Y3306681D01*
G01X22404981Y3306681D02*
G01X22473561Y3306681D01*
G01X22589893Y3386691D02*
G01X22589893Y3306681D01*
G01X22589893Y3369673D02*
G01X22578463Y3381103D01*
G01X22567033Y3386691D01*
G01X22550015Y3386691D01*
G01X22538585Y3381103D01*
G01X22527155Y3369673D01*
G01X22521313Y3352401D01*
G01X22521313Y3340971D01*
G01X22527155Y3323953D01*
G01X22538585Y3312523D01*
G01X22550015Y3306681D01*
G01X22567033Y3306681D01*
G01X22578463Y3312523D01*
G01X22589893Y3323953D01*
G01X22643487Y3386691D02*
G01X22677777Y3306681D01*
G01X22712067Y3386691D02*
G01X22677777Y3306681D01*
G01X22666347Y3283821D01*
G01X22654917Y3272391D01*
G01X22643487Y3266803D01*
G01X22637645Y3266803D01*
G01X22759819Y3352401D02*
G01X22828399Y3352401D01*
G01X22828399Y3363831D01*
G01X22822811Y3375261D01*
G01X22816969Y3381103D01*
G01X22805539Y3386691D01*
G01X22788521Y3386691D01*
G01X22777091Y3381103D01*
G01X22765661Y3369673D01*
G01X22759819Y3352401D01*
G01X22759819Y3340971D01*
G01X22765661Y3323953D01*
G01X22777091Y3312523D01*
G01X22788521Y3306681D01*
G01X22805539Y3306681D01*
G01X22816969Y3312523D01*
G01X22828399Y3323953D01*
G01X22876151Y3386691D02*
G01X22876151Y3306681D01*
G01X22876151Y3352401D02*
G01X22881993Y3369673D01*
G01X22893423Y3381103D01*
G01X22904853Y3386691D01*
G01X22921871Y3386691D01*
G01X22969623Y3358243D02*
G01X23072493Y3358243D01*
G01X23120245Y3426823D02*
G01X23120245Y3306681D01*
G01X23120245Y3426823D02*
G01X23171807Y3426823D01*
G01X23188825Y3420981D01*
G01X23194667Y3415393D01*
G01X23200255Y3403963D01*
G01X23200255Y3392533D01*
G01X23194667Y3381103D01*
G01X23188825Y3375261D01*
G01X23171807Y3369673D01*
G01X23120245Y3369673D02*
G01X23171807Y3369673D01*
G01X23188825Y3363831D01*
G01X23194667Y3358243D01*
G01X23200255Y3346813D01*
G01X23200255Y3329541D01*
G01X23194667Y3318111D01*
G01X23188825Y3312523D01*
G01X23171807Y3306681D01*
G01X23120245Y3306681D01*
G01X23276709Y3386691D02*
G01X23265279Y3381103D01*
G01X23253849Y3369673D01*
G01X23248007Y3352401D01*
G01X23248007Y3340971D01*
G01X23253849Y3323953D01*
G01X23265279Y3312523D01*
G01X23276709Y3306681D01*
G01X23293727Y3306681D01*
G01X23305157Y3312523D01*
G01X23316587Y3323953D01*
G01X23322429Y3340971D01*
G01X23322429Y3352401D01*
G01X23316587Y3369673D01*
G01X23305157Y3381103D01*
G01X23293727Y3386691D01*
G01X23276709Y3386691D01*
G01X23387453Y3426823D02*
G01X23387453Y3329541D01*
G01X23393041Y3312523D01*
G01X23404471Y3306681D01*
G01X23415901Y3306681D01*
G01X23370181Y3386691D02*
G01X23410313Y3386691D01*
G01X23480925Y3426823D02*
G01X23480925Y3329541D01*
G01X23486513Y3312523D01*
G01X23497943Y3306681D01*
G01X23509373Y3306681D01*
G01X23463653Y3386691D02*
G01X23503785Y3386691D01*
G01X23585827Y3386691D02*
G01X23574397Y3381103D01*
G01X23562967Y3369673D01*
G01X23557125Y3352401D01*
G01X23557125Y3340971D01*
G01X23562967Y3323953D01*
G01X23574397Y3312523D01*
G01X23585827Y3306681D01*
G01X23602845Y3306681D01*
G01X23614275Y3312523D01*
G01X23625705Y3323953D01*
G01X23631547Y3340971D01*
G01X23631547Y3352401D01*
G01X23625705Y3369673D01*
G01X23614275Y3381103D01*
G01X23602845Y3386691D01*
G01X23585827Y3386691D01*
G01X23679299Y3386691D02*
G01X23679299Y3306681D01*
G01X23679299Y3363831D02*
G01X23696571Y3381103D01*
G01X23708001Y3386691D01*
G01X23725019Y3386691D01*
G01X23736449Y3381103D01*
G01X23742291Y3363831D01*
G01X23742291Y3306681D01*
G01X23742291Y3363831D02*
G01X23759309Y3381103D01*
G01X23770739Y3386691D01*
G01X23788011Y3386691D01*
G01X23799441Y3381103D01*
G01X23805029Y3363831D01*
G01X23805029Y3306681D01*
G01X23980797Y3426823D02*
G01X23980797Y3306681D01*
G01X23980797Y3306681D02*
G01X24049377Y3306681D01*
G01X24165709Y3386691D02*
G01X24165709Y3306681D01*
G01X24165709Y3369673D02*
G01X24154279Y3381103D01*
G01X24142849Y3386691D01*
G01X24125831Y3386691D01*
G01X24114401Y3381103D01*
G01X24102971Y3369673D01*
G01X24097129Y3352401D01*
G01X24097129Y3340971D01*
G01X24102971Y3323953D01*
G01X24114401Y3312523D01*
G01X24125831Y3306681D01*
G01X24142849Y3306681D01*
G01X24154279Y3312523D01*
G01X24165709Y3323953D01*
G01X24219303Y3386691D02*
G01X24253593Y3306681D01*
G01X24287883Y3386691D02*
G01X24253593Y3306681D01*
G01X24242163Y3283821D01*
G01X24230733Y3272391D01*
G01X24219303Y3266803D01*
G01X24213461Y3266803D01*
G01X24335635Y3352401D02*
G01X24404215Y3352401D01*
G01X24404215Y3363831D01*
G01X24398627Y3375261D01*
G01X24392785Y3381103D01*
G01X24381355Y3386691D01*
G01X24364337Y3386691D01*
G01X24352907Y3381103D01*
G01X24341477Y3369673D01*
G01X24335635Y3352401D01*
G01X24335635Y3340971D01*
G01X24341477Y3323953D01*
G01X24352907Y3312523D01*
G01X24364337Y3306681D01*
G01X24381355Y3306681D01*
G01X24392785Y3312523D01*
G01X24404215Y3323953D01*
G01X24451967Y3386691D02*
G01X24451967Y3306681D01*
G01X24451967Y3352401D02*
G01X24457809Y3369673D01*
G01X24469239Y3381103D01*
G01X24480669Y3386691D01*
G01X24497687Y3386691D01*
G01X10195854Y2828979D02*
G01X10190266Y2840409D01*
G01X10172994Y2846251D01*
G01X10161564Y2846251D01*
G01X10144546Y2840409D01*
G01X10133116Y2823391D01*
G01X10127274Y2794689D01*
G01X10127274Y2766241D01*
G01X10133116Y2743381D01*
G01X10144546Y2731951D01*
G01X10161564Y2726109D01*
G01X10167406Y2726109D01*
G01X10184424Y2731951D01*
G01X10195854Y2743381D01*
G01X10201696Y2760399D01*
G01X10201696Y2766241D01*
G01X10195854Y2783259D01*
G01X10184424Y2794689D01*
G01X10167406Y2800531D01*
G01X10161564Y2800531D01*
G01X10144546Y2794689D01*
G01X10133116Y2783259D01*
G01X10127274Y2766241D01*
G01X11547279Y2817549D02*
G01X11547279Y2823391D01*
G01X11552867Y2834821D01*
G01X11558709Y2840409D01*
G01X11570139Y2846251D01*
G01X11592999Y2846251D01*
G01X11604429Y2840409D01*
G01X11610017Y2834821D01*
G01X11615859Y2823391D01*
G01X11615859Y2811961D01*
G01X11610017Y2800531D01*
G01X11598587Y2783259D01*
G01X11541437Y2726109D01*
G01X11621447Y2726109D01*
G01X11680629Y2846251D02*
G01X11743621Y2846251D01*
G01X11709331Y2800531D01*
G01X11726349Y2800531D01*
G01X11737779Y2794689D01*
G01X11743621Y2789101D01*
G01X11749209Y2771829D01*
G01X11749209Y2760399D01*
G01X11743621Y2743381D01*
G01X11732191Y2731951D01*
G01X11714919Y2726109D01*
G01X11697901Y2726109D01*
G01X11680629Y2731951D01*
G01X11675041Y2737539D01*
G01X11669199Y2748969D01*
G01X11802803Y2754811D02*
G01X11796961Y2748969D01*
G01X11802803Y2743381D01*
G01X11808391Y2748969D01*
G01X11802803Y2754811D01*
G01X11924723Y2828979D02*
G01X11919135Y2840409D01*
G01X11901863Y2846251D01*
G01X11890433Y2846251D01*
G01X11873415Y2840409D01*
G01X11861985Y2823391D01*
G01X11856143Y2794689D01*
G01X11856143Y2766241D01*
G01X11861985Y2743381D01*
G01X11873415Y2731951D01*
G01X11890433Y2726109D01*
G01X11896275Y2726109D01*
G01X11913293Y2731951D01*
G01X11924723Y2743381D01*
G01X11930565Y2760399D01*
G01X11930565Y2766241D01*
G01X11924723Y2783259D01*
G01X11913293Y2794689D01*
G01X11896275Y2800531D01*
G01X11890433Y2800531D01*
G01X11873415Y2794689D01*
G01X11861985Y2783259D01*
G01X11856143Y2766241D01*
G01X11978317Y2806119D02*
G01X12041309Y2726109D01*
G01X12041309Y2806119D02*
G01X11978317Y2726109D01*
G01X12157641Y2846251D02*
G01X12100491Y2846251D01*
G01X12094903Y2794689D01*
G01X12100491Y2800531D01*
G01X12117763Y2806119D01*
G01X12134781Y2806119D01*
G01X12152053Y2800531D01*
G01X12163483Y2789101D01*
G01X12169071Y2771829D01*
G01X12169071Y2760399D01*
G01X12163483Y2743381D01*
G01X12152053Y2731951D01*
G01X12134781Y2726109D01*
G01X12117763Y2726109D01*
G01X12100491Y2731951D01*
G01X12094903Y2737539D01*
G01X12089061Y2748969D01*
G01X12291245Y2806119D02*
G01X12285403Y2789101D01*
G01X12273973Y2777671D01*
G01X12256955Y2771829D01*
G01X12251113Y2771829D01*
G01X12234095Y2777671D01*
G01X12222665Y2789101D01*
G01X12216823Y2806119D01*
G01X12216823Y2811961D01*
G01X12222665Y2828979D01*
G01X12234095Y2840409D01*
G01X12251113Y2846251D01*
G01X12256955Y2846251D01*
G01X12273973Y2840409D01*
G01X12285403Y2828979D01*
G01X12291245Y2806119D01*
G01X12291245Y2777671D01*
G01X12285403Y2748969D01*
G01X12273973Y2731951D01*
G01X12256955Y2726109D01*
G01X12245525Y2726109D01*
G01X12228253Y2731951D01*
G01X12222665Y2743381D01*
G01X12344839Y2754811D02*
G01X12338997Y2748969D01*
G01X12344839Y2743381D01*
G01X12350427Y2748969D01*
G01X12344839Y2754811D01*
G01X12398179Y2823391D02*
G01X12409609Y2828979D01*
G01X12426881Y2846251D01*
G01X12426881Y2726109D01*
G01X12474633Y2806119D02*
G01X12474633Y2726109D01*
G01X12474633Y2783259D02*
G01X12491905Y2800531D01*
G01X12503335Y2806119D01*
G01X12520353Y2806119D01*
G01X12531783Y2800531D01*
G01X12537625Y2783259D01*
G01X12537625Y2726109D01*
G01X12537625Y2783259D02*
G01X12554643Y2800531D01*
G01X12566073Y2806119D01*
G01X12583345Y2806119D01*
G01X12594775Y2800531D01*
G01X12600363Y2783259D01*
G01X12600363Y2726109D01*
G01X12648115Y2846251D02*
G01X12653957Y2840409D01*
G01X12659545Y2846251D01*
G01X12653957Y2851839D01*
G01X12648115Y2846251D01*
G01X12653957Y2806119D02*
G01X12653957Y2726109D01*
G01X12707297Y2846251D02*
G01X12707297Y2726109D01*
G01X12795181Y2869111D02*
G01X12783751Y2857681D01*
G01X12772321Y2840409D01*
G01X12760891Y2817549D01*
G01X12755049Y2789101D01*
G01X12755049Y2766241D01*
G01X12760891Y2737539D01*
G01X12772321Y2714679D01*
G01X12783751Y2697661D01*
G01X12795181Y2686231D01*
G01X12877223Y2846251D02*
G01X12860205Y2840409D01*
G01X12848775Y2823391D01*
G01X12842933Y2794689D01*
G01X12842933Y2777671D01*
G01X12848775Y2748969D01*
G01X12860205Y2731951D01*
G01X12877223Y2726109D01*
G01X12888653Y2726109D01*
G01X12905925Y2731951D01*
G01X12917355Y2748969D01*
G01X12922943Y2777671D01*
G01X12922943Y2794689D01*
G01X12917355Y2823391D01*
G01X12905925Y2840409D01*
G01X12888653Y2846251D01*
G01X12877223Y2846251D01*
G01X12976537Y2754811D02*
G01X12970695Y2748969D01*
G01X12976537Y2743381D01*
G01X12982125Y2748969D01*
G01X12976537Y2754811D01*
G01X13098457Y2828979D02*
G01X13092869Y2840409D01*
G01X13075597Y2846251D01*
G01X13064167Y2846251D01*
G01X13047149Y2840409D01*
G01X13035719Y2823391D01*
G01X13029877Y2794689D01*
G01X13029877Y2766241D01*
G01X13035719Y2743381D01*
G01X13047149Y2731951D01*
G01X13064167Y2726109D01*
G01X13070009Y2726109D01*
G01X13087027Y2731951D01*
G01X13098457Y2743381D01*
G01X13104299Y2760399D01*
G01X13104299Y2766241D01*
G01X13098457Y2783259D01*
G01X13087027Y2794689D01*
G01X13070009Y2800531D01*
G01X13064167Y2800531D01*
G01X13047149Y2794689D01*
G01X13035719Y2783259D01*
G01X13029877Y2766241D01*
G01X13186341Y2846251D02*
G01X13169323Y2840409D01*
G01X13157893Y2823391D01*
G01X13152051Y2794689D01*
G01X13152051Y2777671D01*
G01X13157893Y2748969D01*
G01X13169323Y2731951D01*
G01X13186341Y2726109D01*
G01X13197771Y2726109D01*
G01X13215043Y2731951D01*
G01X13226473Y2748969D01*
G01X13232061Y2777671D01*
G01X13232061Y2794689D01*
G01X13226473Y2823391D01*
G01X13215043Y2840409D01*
G01X13197771Y2846251D01*
G01X13186341Y2846251D01*
G01X13314103Y2846251D02*
G01X13297085Y2840409D01*
G01X13285655Y2823391D01*
G01X13279813Y2794689D01*
G01X13279813Y2777671D01*
G01X13285655Y2748969D01*
G01X13297085Y2731951D01*
G01X13314103Y2726109D01*
G01X13325533Y2726109D01*
G01X13342805Y2731951D01*
G01X13354235Y2748969D01*
G01X13359823Y2777671D01*
G01X13359823Y2794689D01*
G01X13354235Y2823391D01*
G01X13342805Y2840409D01*
G01X13325533Y2846251D01*
G01X13314103Y2846251D01*
G01X13407575Y2806119D02*
G01X13470567Y2726109D01*
G01X13470567Y2806119D02*
G01X13407575Y2726109D01*
G01X13518319Y2823391D02*
G01X13529749Y2828979D01*
G01X13547021Y2846251D01*
G01X13547021Y2726109D01*
G01X13600615Y2754811D02*
G01X13594773Y2748969D01*
G01X13600615Y2743381D01*
G01X13606203Y2748969D01*
G01X13600615Y2754811D01*
G01X13722535Y2846251D02*
G01X13665385Y2846251D01*
G01X13659797Y2794689D01*
G01X13665385Y2800531D01*
G01X13682657Y2806119D01*
G01X13699675Y2806119D01*
G01X13716947Y2800531D01*
G01X13728377Y2789101D01*
G01X13733965Y2771829D01*
G01X13733965Y2760399D01*
G01X13728377Y2743381D01*
G01X13716947Y2731951D01*
G01X13699675Y2726109D01*
G01X13682657Y2726109D01*
G01X13665385Y2731951D01*
G01X13659797Y2737539D01*
G01X13653955Y2748969D01*
G01X13816007Y2846251D02*
G01X13798989Y2840409D01*
G01X13787559Y2823391D01*
G01X13781717Y2794689D01*
G01X13781717Y2777671D01*
G01X13787559Y2748969D01*
G01X13798989Y2731951D01*
G01X13816007Y2726109D01*
G01X13827437Y2726109D01*
G01X13844709Y2731951D01*
G01X13856139Y2748969D01*
G01X13861727Y2777671D01*
G01X13861727Y2794689D01*
G01X13856139Y2823391D01*
G01X13844709Y2840409D01*
G01X13827437Y2846251D01*
G01X13816007Y2846251D01*
G01X13943769Y2846251D02*
G01X13926751Y2840409D01*
G01X13915321Y2823391D01*
G01X13909479Y2794689D01*
G01X13909479Y2777671D01*
G01X13915321Y2748969D01*
G01X13926751Y2731951D01*
G01X13943769Y2726109D01*
G01X13955199Y2726109D01*
G01X13972471Y2731951D01*
G01X13983901Y2748969D01*
G01X13989489Y2777671D01*
G01X13989489Y2794689D01*
G01X13983901Y2823391D01*
G01X13972471Y2840409D01*
G01X13955199Y2846251D01*
G01X13943769Y2846251D01*
G01X14037241Y2806119D02*
G01X14037241Y2726109D01*
G01X14037241Y2783259D02*
G01X14054513Y2800531D01*
G01X14065943Y2806119D01*
G01X14082961Y2806119D01*
G01X14094391Y2800531D01*
G01X14100233Y2783259D01*
G01X14100233Y2726109D01*
G01X14100233Y2783259D02*
G01X14117251Y2800531D01*
G01X14128681Y2806119D01*
G01X14145953Y2806119D01*
G01X14157383Y2800531D01*
G01X14162971Y2783259D01*
G01X14162971Y2726109D01*
G01X14210723Y2806119D02*
G01X14210723Y2726109D01*
G01X14210723Y2783259D02*
G01X14227995Y2800531D01*
G01X14239425Y2806119D01*
G01X14256443Y2806119D01*
G01X14267873Y2800531D01*
G01X14273715Y2783259D01*
G01X14273715Y2726109D01*
G01X14273715Y2783259D02*
G01X14290733Y2800531D01*
G01X14302163Y2806119D01*
G01X14319435Y2806119D01*
G01X14330865Y2800531D01*
G01X14336453Y2783259D01*
G01X14336453Y2726109D01*
G01X14384205Y2869111D02*
G01X14395635Y2857681D01*
G01X14407065Y2840409D01*
G01X14418495Y2817549D01*
G01X14424337Y2789101D01*
G01X14424337Y2766241D01*
G01X14418495Y2737539D01*
G01X14407065Y2714679D01*
G01X14395635Y2697661D01*
G01X14384205Y2686231D01*
G01X15429561Y2846251D02*
G01X15429561Y2726109D01*
G01X15429561Y2846251D02*
G01X15481123Y2846251D01*
G01X15498141Y2840409D01*
G01X15503983Y2834821D01*
G01X15509571Y2823391D01*
G01X15509571Y2806119D01*
G01X15503983Y2794689D01*
G01X15498141Y2789101D01*
G01X15481123Y2783259D01*
G01X15429561Y2783259D01*
G01X15597455Y2846251D02*
G01X15597455Y2726109D01*
G01X15557323Y2846251D02*
G01X15637333Y2846251D01*
G01X15685085Y2846251D02*
G01X15685085Y2726109D01*
G01X15765095Y2846251D02*
G01X15765095Y2726109D01*
G01X15685085Y2789101D02*
G01X15765095Y2789101D01*
G01X16970978Y2828979D02*
G01X16959548Y2840409D01*
G01X16942530Y2846251D01*
G01X16919670Y2846251D01*
G01X16902398Y2840409D01*
G01X16890968Y2828979D01*
G01X16890968Y2817549D01*
G01X16896810Y2806119D01*
G01X16902398Y2800531D01*
G01X16913828Y2794689D01*
G01X16948118Y2783259D01*
G01X16959548Y2777671D01*
G01X16965390Y2771829D01*
G01X16970978Y2760399D01*
G01X16970978Y2743381D01*
G01X16959548Y2731951D01*
G01X16942530Y2726109D01*
G01X16919670Y2726109D01*
G01X16902398Y2731951D01*
G01X16890968Y2743381D01*
G01X17018730Y2846251D02*
G01X17018730Y2726109D01*
G01X17095184Y2806119D02*
G01X17083754Y2800531D01*
G01X17072324Y2789101D01*
G01X17066482Y2771829D01*
G01X17066482Y2760399D01*
G01X17072324Y2743381D01*
G01X17083754Y2731951D01*
G01X17095184Y2726109D01*
G01X17112202Y2726109D01*
G01X17123632Y2731951D01*
G01X17135062Y2743381D01*
G01X17140904Y2760399D01*
G01X17140904Y2771829D01*
G01X17135062Y2789101D01*
G01X17123632Y2800531D01*
G01X17112202Y2806119D01*
G01X17095184Y2806119D01*
G01X17205928Y2846251D02*
G01X17205928Y2748969D01*
G01X17211516Y2731951D01*
G01X17222946Y2726109D01*
G01X17234376Y2726109D01*
G01X17188656Y2806119D02*
G01X17228788Y2806119D01*
G01X18322149Y2846251D02*
G01X18322149Y2726109D01*
G01X18322149Y2846251D02*
G01X18373711Y2846251D01*
G01X18390729Y2840409D01*
G01X18396571Y2834821D01*
G01X18402159Y2823391D01*
G01X18402159Y2806119D01*
G01X18396571Y2794689D01*
G01X18390729Y2789101D01*
G01X18373711Y2783259D01*
G01X18322149Y2783259D01*
G01X18518491Y2806119D02*
G01X18518491Y2726109D01*
G01X18518491Y2789101D02*
G01X18507061Y2800531D01*
G01X18495631Y2806119D01*
G01X18478613Y2806119D01*
G01X18467183Y2800531D01*
G01X18455753Y2789101D01*
G01X18449911Y2771829D01*
G01X18449911Y2760399D01*
G01X18455753Y2743381D01*
G01X18467183Y2731951D01*
G01X18478613Y2726109D01*
G01X18495631Y2726109D01*
G01X18507061Y2731951D01*
G01X18518491Y2743381D01*
G01X18634823Y2846251D02*
G01X18634823Y2726109D01*
G01X18634823Y2789101D02*
G01X18623393Y2800531D01*
G01X18611963Y2806119D01*
G01X18594945Y2806119D01*
G01X18583515Y2800531D01*
G01X18572085Y2789101D01*
G01X18566243Y2771829D01*
G01X18566243Y2760399D01*
G01X18572085Y2743381D01*
G01X18583515Y2731951D01*
G01X18594945Y2726109D01*
G01X18611963Y2726109D01*
G01X18623393Y2731951D01*
G01X18634823Y2743381D01*
G01X20025618Y2846251D02*
G01X20014188Y2840409D01*
G01X20002758Y2828979D01*
G01X19997170Y2817549D01*
G01X19991328Y2800531D01*
G01X19991328Y2771829D01*
G01X19997170Y2754811D01*
G01X20002758Y2743381D01*
G01X20014188Y2731951D01*
G01X20025618Y2726109D01*
G01X20048478Y2726109D01*
G01X20059908Y2731951D01*
G01X20071338Y2743381D01*
G01X20077180Y2754811D01*
G01X20082768Y2771829D01*
G01X20082768Y2800531D01*
G01X20077180Y2817549D01*
G01X20071338Y2828979D01*
G01X20059908Y2840409D01*
G01X20048478Y2846251D01*
G01X20025618Y2846251D01*
G01X20130520Y2806119D02*
G01X20164810Y2726109D01*
G01X20199100Y2806119D02*
G01X20164810Y2726109D01*
G01X20315432Y2806119D02*
G01X20315432Y2726109D01*
G01X20315432Y2789101D02*
G01X20304002Y2800531D01*
G01X20292572Y2806119D01*
G01X20275554Y2806119D01*
G01X20264124Y2800531D01*
G01X20252694Y2789101D01*
G01X20246852Y2771829D01*
G01X20246852Y2760399D01*
G01X20252694Y2743381D01*
G01X20264124Y2731951D01*
G01X20275554Y2726109D01*
G01X20292572Y2726109D01*
G01X20304002Y2731951D01*
G01X20315432Y2743381D01*
G01X20363184Y2846251D02*
G01X20363184Y2726109D01*
G01X21950829Y2846251D02*
G01X21950829Y2726109D01*
G01X21910697Y2846251D02*
G01X21990707Y2846251D01*
G01X22067161Y2806119D02*
G01X22055731Y2800531D01*
G01X22044301Y2789101D01*
G01X22038459Y2771829D01*
G01X22038459Y2760399D01*
G01X22044301Y2743381D01*
G01X22055731Y2731951D01*
G01X22067161Y2726109D01*
G01X22084179Y2726109D01*
G01X22095609Y2731951D01*
G01X22107039Y2743381D01*
G01X22112881Y2760399D01*
G01X22112881Y2771829D01*
G01X22107039Y2789101D01*
G01X22095609Y2800531D01*
G01X22084179Y2806119D01*
G01X22067161Y2806119D01*
G01X22160633Y2806119D02*
G01X22160633Y2686231D01*
G01X22160633Y2789101D02*
G01X22172063Y2800531D01*
G01X22183493Y2806119D01*
G01X22200765Y2806119D01*
G01X22212195Y2800531D01*
G01X22223625Y2789101D01*
G01X22229213Y2771829D01*
G01X22229213Y2760399D01*
G01X22223625Y2743381D01*
G01X22212195Y2731951D01*
G01X22200765Y2726109D01*
G01X22183493Y2726109D01*
G01X22172063Y2731951D01*
G01X22160633Y2743381D01*
G01X22404981Y2846251D02*
G01X22404981Y2726109D01*
G01X22404981Y2726109D02*
G01X22473561Y2726109D01*
G01X22589893Y2806119D02*
G01X22589893Y2726109D01*
G01X22589893Y2789101D02*
G01X22578463Y2800531D01*
G01X22567033Y2806119D01*
G01X22550015Y2806119D01*
G01X22538585Y2800531D01*
G01X22527155Y2789101D01*
G01X22521313Y2771829D01*
G01X22521313Y2760399D01*
G01X22527155Y2743381D01*
G01X22538585Y2731951D01*
G01X22550015Y2726109D01*
G01X22567033Y2726109D01*
G01X22578463Y2731951D01*
G01X22589893Y2743381D01*
G01X22643487Y2806119D02*
G01X22677777Y2726109D01*
G01X22712067Y2806119D02*
G01X22677777Y2726109D01*
G01X22666347Y2703249D01*
G01X22654917Y2691819D01*
G01X22643487Y2686231D01*
G01X22637645Y2686231D01*
G01X22759819Y2771829D02*
G01X22828399Y2771829D01*
G01X22828399Y2783259D01*
G01X22822811Y2794689D01*
G01X22816969Y2800531D01*
G01X22805539Y2806119D01*
G01X22788521Y2806119D01*
G01X22777091Y2800531D01*
G01X22765661Y2789101D01*
G01X22759819Y2771829D01*
G01X22759819Y2760399D01*
G01X22765661Y2743381D01*
G01X22777091Y2731951D01*
G01X22788521Y2726109D01*
G01X22805539Y2726109D01*
G01X22816969Y2731951D01*
G01X22828399Y2743381D01*
G01X22876151Y2806119D02*
G01X22876151Y2726109D01*
G01X22876151Y2771829D02*
G01X22881993Y2789101D01*
G01X22893423Y2800531D01*
G01X22904853Y2806119D01*
G01X22921871Y2806119D01*
G01X22969623Y2777671D02*
G01X23072493Y2777671D01*
G01X23120245Y2846251D02*
G01X23120245Y2726109D01*
G01X23120245Y2846251D02*
G01X23171807Y2846251D01*
G01X23188825Y2840409D01*
G01X23194667Y2834821D01*
G01X23200255Y2823391D01*
G01X23200255Y2811961D01*
G01X23194667Y2800531D01*
G01X23188825Y2794689D01*
G01X23171807Y2789101D01*
G01X23120245Y2789101D02*
G01X23171807Y2789101D01*
G01X23188825Y2783259D01*
G01X23194667Y2777671D01*
G01X23200255Y2766241D01*
G01X23200255Y2748969D01*
G01X23194667Y2737539D01*
G01X23188825Y2731951D01*
G01X23171807Y2726109D01*
G01X23120245Y2726109D01*
G01X23276709Y2806119D02*
G01X23265279Y2800531D01*
G01X23253849Y2789101D01*
G01X23248007Y2771829D01*
G01X23248007Y2760399D01*
G01X23253849Y2743381D01*
G01X23265279Y2731951D01*
G01X23276709Y2726109D01*
G01X23293727Y2726109D01*
G01X23305157Y2731951D01*
G01X23316587Y2743381D01*
G01X23322429Y2760399D01*
G01X23322429Y2771829D01*
G01X23316587Y2789101D01*
G01X23305157Y2800531D01*
G01X23293727Y2806119D01*
G01X23276709Y2806119D01*
G01X23387453Y2846251D02*
G01X23387453Y2748969D01*
G01X23393041Y2731951D01*
G01X23404471Y2726109D01*
G01X23415901Y2726109D01*
G01X23370181Y2806119D02*
G01X23410313Y2806119D01*
G01X23480925Y2846251D02*
G01X23480925Y2748969D01*
G01X23486513Y2731951D01*
G01X23497943Y2726109D01*
G01X23509373Y2726109D01*
G01X23463653Y2806119D02*
G01X23503785Y2806119D01*
G01X23585827Y2806119D02*
G01X23574397Y2800531D01*
G01X23562967Y2789101D01*
G01X23557125Y2771829D01*
G01X23557125Y2760399D01*
G01X23562967Y2743381D01*
G01X23574397Y2731951D01*
G01X23585827Y2726109D01*
G01X23602845Y2726109D01*
G01X23614275Y2731951D01*
G01X23625705Y2743381D01*
G01X23631547Y2760399D01*
G01X23631547Y2771829D01*
G01X23625705Y2789101D01*
G01X23614275Y2800531D01*
G01X23602845Y2806119D01*
G01X23585827Y2806119D01*
G01X23679299Y2806119D02*
G01X23679299Y2726109D01*
G01X23679299Y2783259D02*
G01X23696571Y2800531D01*
G01X23708001Y2806119D01*
G01X23725019Y2806119D01*
G01X23736449Y2800531D01*
G01X23742291Y2783259D01*
G01X23742291Y2726109D01*
G01X23742291Y2783259D02*
G01X23759309Y2800531D01*
G01X23770739Y2806119D01*
G01X23788011Y2806119D01*
G01X23799441Y2800531D01*
G01X23805029Y2783259D01*
G01X23805029Y2726109D01*
G01X23980797Y2846251D02*
G01X23980797Y2726109D01*
G01X23980797Y2726109D02*
G01X24049377Y2726109D01*
G01X24165709Y2806119D02*
G01X24165709Y2726109D01*
G01X24165709Y2789101D02*
G01X24154279Y2800531D01*
G01X24142849Y2806119D01*
G01X24125831Y2806119D01*
G01X24114401Y2800531D01*
G01X24102971Y2789101D01*
G01X24097129Y2771829D01*
G01X24097129Y2760399D01*
G01X24102971Y2743381D01*
G01X24114401Y2731951D01*
G01X24125831Y2726109D01*
G01X24142849Y2726109D01*
G01X24154279Y2731951D01*
G01X24165709Y2743381D01*
G01X24219303Y2806119D02*
G01X24253593Y2726109D01*
G01X24287883Y2806119D02*
G01X24253593Y2726109D01*
G01X24242163Y2703249D01*
G01X24230733Y2691819D01*
G01X24219303Y2686231D01*
G01X24213461Y2686231D01*
G01X24335635Y2771829D02*
G01X24404215Y2771829D01*
G01X24404215Y2783259D01*
G01X24398627Y2794689D01*
G01X24392785Y2800531D01*
G01X24381355Y2806119D01*
G01X24364337Y2806119D01*
G01X24352907Y2800531D01*
G01X24341477Y2789101D01*
G01X24335635Y2771829D01*
G01X24335635Y2760399D01*
G01X24341477Y2743381D01*
G01X24352907Y2731951D01*
G01X24364337Y2726109D01*
G01X24381355Y2726109D01*
G01X24392785Y2731951D01*
G01X24404215Y2743381D01*
G01X24451967Y2806119D02*
G01X24451967Y2726109D01*
G01X24451967Y2771829D02*
G01X24457809Y2789101D01*
G01X24469239Y2800531D01*
G01X24480669Y2806119D01*
G01X24497687Y2806119D01*
G01X10195854Y2248408D02*
G01X10190266Y2259838D01*
G01X10172994Y2265680D01*
G01X10161564Y2265680D01*
G01X10144546Y2259838D01*
G01X10133116Y2242820D01*
G01X10127274Y2214118D01*
G01X10127274Y2185670D01*
G01X10133116Y2162810D01*
G01X10144546Y2151380D01*
G01X10161564Y2145538D01*
G01X10167406Y2145538D01*
G01X10184424Y2151380D01*
G01X10195854Y2162810D01*
G01X10201696Y2179828D01*
G01X10201696Y2185670D01*
G01X10195854Y2202688D01*
G01X10184424Y2214118D01*
G01X10167406Y2219960D01*
G01X10161564Y2219960D01*
G01X10144546Y2214118D01*
G01X10133116Y2202688D01*
G01X10127274Y2185670D01*
G01X11547279Y2236978D02*
G01X11547279Y2242820D01*
G01X11552867Y2254250D01*
G01X11558709Y2259838D01*
G01X11570139Y2265680D01*
G01X11592999Y2265680D01*
G01X11604429Y2259838D01*
G01X11610017Y2254250D01*
G01X11615859Y2242820D01*
G01X11615859Y2231390D01*
G01X11610017Y2219960D01*
G01X11598587Y2202688D01*
G01X11541437Y2145538D01*
G01X11621447Y2145538D01*
G01X11680629Y2265680D02*
G01X11743621Y2265680D01*
G01X11709331Y2219960D01*
G01X11726349Y2219960D01*
G01X11737779Y2214118D01*
G01X11743621Y2208530D01*
G01X11749209Y2191258D01*
G01X11749209Y2179828D01*
G01X11743621Y2162810D01*
G01X11732191Y2151380D01*
G01X11714919Y2145538D01*
G01X11697901Y2145538D01*
G01X11680629Y2151380D01*
G01X11675041Y2156968D01*
G01X11669199Y2168398D01*
G01X11802803Y2174240D02*
G01X11796961Y2168398D01*
G01X11802803Y2162810D01*
G01X11808391Y2168398D01*
G01X11802803Y2174240D01*
G01X11924723Y2248408D02*
G01X11919135Y2259838D01*
G01X11901863Y2265680D01*
G01X11890433Y2265680D01*
G01X11873415Y2259838D01*
G01X11861985Y2242820D01*
G01X11856143Y2214118D01*
G01X11856143Y2185670D01*
G01X11861985Y2162810D01*
G01X11873415Y2151380D01*
G01X11890433Y2145538D01*
G01X11896275Y2145538D01*
G01X11913293Y2151380D01*
G01X11924723Y2162810D01*
G01X11930565Y2179828D01*
G01X11930565Y2185670D01*
G01X11924723Y2202688D01*
G01X11913293Y2214118D01*
G01X11896275Y2219960D01*
G01X11890433Y2219960D01*
G01X11873415Y2214118D01*
G01X11861985Y2202688D01*
G01X11856143Y2185670D01*
G01X11978317Y2225548D02*
G01X12041309Y2145538D01*
G01X12041309Y2225548D02*
G01X11978317Y2145538D01*
G01X12146211Y2265680D02*
G01X12089061Y2185670D01*
G01X12174913Y2185670D01*
G01X12146211Y2265680D02*
G01X12146211Y2145538D01*
G01X12302675Y2265680D02*
G01X12245525Y2145538D01*
G01X12222665Y2265680D02*
G01X12302675Y2265680D01*
G01X12356269Y2174240D02*
G01X12350427Y2168398D01*
G01X12356269Y2162810D01*
G01X12361857Y2168398D01*
G01X12356269Y2174240D01*
G01X12415451Y2236978D02*
G01X12415451Y2242820D01*
G01X12421039Y2254250D01*
G01X12426881Y2259838D01*
G01X12438311Y2265680D01*
G01X12461171Y2265680D01*
G01X12472601Y2259838D01*
G01X12478189Y2254250D01*
G01X12484031Y2242820D01*
G01X12484031Y2231390D01*
G01X12478189Y2219960D01*
G01X12466759Y2202688D01*
G01X12409609Y2145538D01*
G01X12489619Y2145538D01*
G01X12537371Y2225548D02*
G01X12537371Y2145538D01*
G01X12537371Y2202688D02*
G01X12554643Y2219960D01*
G01X12566073Y2225548D01*
G01X12583091Y2225548D01*
G01X12594521Y2219960D01*
G01X12600363Y2202688D01*
G01X12600363Y2145538D01*
G01X12600363Y2202688D02*
G01X12617381Y2219960D01*
G01X12628811Y2225548D01*
G01X12646083Y2225548D01*
G01X12657513Y2219960D01*
G01X12663101Y2202688D01*
G01X12663101Y2145538D01*
G01X12710853Y2265680D02*
G01X12716695Y2259838D01*
G01X12722283Y2265680D01*
G01X12716695Y2271268D01*
G01X12710853Y2265680D01*
G01X12716695Y2225548D02*
G01X12716695Y2145538D01*
G01X12770035Y2265680D02*
G01X12770035Y2145538D01*
G01X12857919Y2288540D02*
G01X12846489Y2277110D01*
G01X12835059Y2259838D01*
G01X12823629Y2236978D01*
G01X12817787Y2208530D01*
G01X12817787Y2185670D01*
G01X12823629Y2156968D01*
G01X12835059Y2134108D01*
G01X12846489Y2117090D01*
G01X12857919Y2105660D01*
G01X12939961Y2265680D02*
G01X12922943Y2259838D01*
G01X12911513Y2242820D01*
G01X12905671Y2214118D01*
G01X12905671Y2197100D01*
G01X12911513Y2168398D01*
G01X12922943Y2151380D01*
G01X12939961Y2145538D01*
G01X12951391Y2145538D01*
G01X12968663Y2151380D01*
G01X12980093Y2168398D01*
G01X12985681Y2197100D01*
G01X12985681Y2214118D01*
G01X12980093Y2242820D01*
G01X12968663Y2259838D01*
G01X12951391Y2265680D01*
G01X12939961Y2265680D01*
G01X13039275Y2174240D02*
G01X13033433Y2168398D01*
G01X13039275Y2162810D01*
G01X13044863Y2168398D01*
G01X13039275Y2174240D01*
G01X13161195Y2248408D02*
G01X13155607Y2259838D01*
G01X13138335Y2265680D01*
G01X13126905Y2265680D01*
G01X13109887Y2259838D01*
G01X13098457Y2242820D01*
G01X13092615Y2214118D01*
G01X13092615Y2185670D01*
G01X13098457Y2162810D01*
G01X13109887Y2151380D01*
G01X13126905Y2145538D01*
G01X13132747Y2145538D01*
G01X13149765Y2151380D01*
G01X13161195Y2162810D01*
G01X13167037Y2179828D01*
G01X13167037Y2185670D01*
G01X13161195Y2202688D01*
G01X13149765Y2214118D01*
G01X13132747Y2219960D01*
G01X13126905Y2219960D01*
G01X13109887Y2214118D01*
G01X13098457Y2202688D01*
G01X13092615Y2185670D01*
G01X13249079Y2265680D02*
G01X13232061Y2259838D01*
G01X13220631Y2242820D01*
G01X13214789Y2214118D01*
G01X13214789Y2197100D01*
G01X13220631Y2168398D01*
G01X13232061Y2151380D01*
G01X13249079Y2145538D01*
G01X13260509Y2145538D01*
G01X13277781Y2151380D01*
G01X13289211Y2168398D01*
G01X13294799Y2197100D01*
G01X13294799Y2214118D01*
G01X13289211Y2242820D01*
G01X13277781Y2259838D01*
G01X13260509Y2265680D01*
G01X13249079Y2265680D01*
G01X13376841Y2265680D02*
G01X13359823Y2259838D01*
G01X13348393Y2242820D01*
G01X13342551Y2214118D01*
G01X13342551Y2197100D01*
G01X13348393Y2168398D01*
G01X13359823Y2151380D01*
G01X13376841Y2145538D01*
G01X13388271Y2145538D01*
G01X13405543Y2151380D01*
G01X13416973Y2168398D01*
G01X13422561Y2197100D01*
G01X13422561Y2214118D01*
G01X13416973Y2242820D01*
G01X13405543Y2259838D01*
G01X13388271Y2265680D01*
G01X13376841Y2265680D01*
G01X13470313Y2225548D02*
G01X13533305Y2145538D01*
G01X13533305Y2225548D02*
G01X13470313Y2145538D01*
G01X13581057Y2242820D02*
G01X13592487Y2248408D01*
G01X13609759Y2265680D01*
G01X13609759Y2145538D01*
G01X13663353Y2174240D02*
G01X13657511Y2168398D01*
G01X13663353Y2162810D01*
G01X13668941Y2168398D01*
G01X13663353Y2174240D01*
G01X13722535Y2236978D02*
G01X13722535Y2242820D01*
G01X13728123Y2254250D01*
G01X13733965Y2259838D01*
G01X13745395Y2265680D01*
G01X13768255Y2265680D01*
G01X13779685Y2259838D01*
G01X13785273Y2254250D01*
G01X13791115Y2242820D01*
G01X13791115Y2231390D01*
G01X13785273Y2219960D01*
G01X13773843Y2202688D01*
G01X13716693Y2145538D01*
G01X13796703Y2145538D01*
G01X13878745Y2265680D02*
G01X13861727Y2259838D01*
G01X13850297Y2242820D01*
G01X13844455Y2214118D01*
G01X13844455Y2197100D01*
G01X13850297Y2168398D01*
G01X13861727Y2151380D01*
G01X13878745Y2145538D01*
G01X13890175Y2145538D01*
G01X13907447Y2151380D01*
G01X13918877Y2168398D01*
G01X13924465Y2197100D01*
G01X13924465Y2214118D01*
G01X13918877Y2242820D01*
G01X13907447Y2259838D01*
G01X13890175Y2265680D01*
G01X13878745Y2265680D01*
G01X14006507Y2265680D02*
G01X13989489Y2259838D01*
G01X13978059Y2242820D01*
G01X13972217Y2214118D01*
G01X13972217Y2197100D01*
G01X13978059Y2168398D01*
G01X13989489Y2151380D01*
G01X14006507Y2145538D01*
G01X14017937Y2145538D01*
G01X14035209Y2151380D01*
G01X14046639Y2168398D01*
G01X14052227Y2197100D01*
G01X14052227Y2214118D01*
G01X14046639Y2242820D01*
G01X14035209Y2259838D01*
G01X14017937Y2265680D01*
G01X14006507Y2265680D01*
G01X14099979Y2225548D02*
G01X14099979Y2145538D01*
G01X14099979Y2202688D02*
G01X14117251Y2219960D01*
G01X14128681Y2225548D01*
G01X14145699Y2225548D01*
G01X14157129Y2219960D01*
G01X14162971Y2202688D01*
G01X14162971Y2145538D01*
G01X14162971Y2202688D02*
G01X14179989Y2219960D01*
G01X14191419Y2225548D01*
G01X14208691Y2225548D01*
G01X14220121Y2219960D01*
G01X14225709Y2202688D01*
G01X14225709Y2145538D01*
G01X14273461Y2225548D02*
G01X14273461Y2145538D01*
G01X14273461Y2202688D02*
G01X14290733Y2219960D01*
G01X14302163Y2225548D01*
G01X14319181Y2225548D01*
G01X14330611Y2219960D01*
G01X14336453Y2202688D01*
G01X14336453Y2145538D01*
G01X14336453Y2202688D02*
G01X14353471Y2219960D01*
G01X14364901Y2225548D01*
G01X14382173Y2225548D01*
G01X14393603Y2219960D01*
G01X14399191Y2202688D01*
G01X14399191Y2145538D01*
G01X14446943Y2288540D02*
G01X14458373Y2277110D01*
G01X14469803Y2259838D01*
G01X14481233Y2236978D01*
G01X14487075Y2208530D01*
G01X14487075Y2185670D01*
G01X14481233Y2156968D01*
G01X14469803Y2134108D01*
G01X14458373Y2117090D01*
G01X14446943Y2105660D01*
G01X15429561Y2265680D02*
G01X15429561Y2145538D01*
G01X15429561Y2265680D02*
G01X15481123Y2265680D01*
G01X15498141Y2259838D01*
G01X15503983Y2254250D01*
G01X15509571Y2242820D01*
G01X15509571Y2225548D01*
G01X15503983Y2214118D01*
G01X15498141Y2208530D01*
G01X15481123Y2202688D01*
G01X15429561Y2202688D01*
G01X15597455Y2265680D02*
G01X15597455Y2145538D01*
G01X15557323Y2265680D02*
G01X15637333Y2265680D01*
G01X15685085Y2265680D02*
G01X15685085Y2145538D01*
G01X15765095Y2265680D02*
G01X15765095Y2145538D01*
G01X15685085Y2208530D02*
G01X15765095Y2208530D01*
G01X16970978Y2248408D02*
G01X16959548Y2259838D01*
G01X16942530Y2265680D01*
G01X16919670Y2265680D01*
G01X16902398Y2259838D01*
G01X16890968Y2248408D01*
G01X16890968Y2236978D01*
G01X16896810Y2225548D01*
G01X16902398Y2219960D01*
G01X16913828Y2214118D01*
G01X16948118Y2202688D01*
G01X16959548Y2197100D01*
G01X16965390Y2191258D01*
G01X16970978Y2179828D01*
G01X16970978Y2162810D01*
G01X16959548Y2151380D01*
G01X16942530Y2145538D01*
G01X16919670Y2145538D01*
G01X16902398Y2151380D01*
G01X16890968Y2162810D01*
G01X17018730Y2265680D02*
G01X17018730Y2145538D01*
G01X17095184Y2225548D02*
G01X17083754Y2219960D01*
G01X17072324Y2208530D01*
G01X17066482Y2191258D01*
G01X17066482Y2179828D01*
G01X17072324Y2162810D01*
G01X17083754Y2151380D01*
G01X17095184Y2145538D01*
G01X17112202Y2145538D01*
G01X17123632Y2151380D01*
G01X17135062Y2162810D01*
G01X17140904Y2179828D01*
G01X17140904Y2191258D01*
G01X17135062Y2208530D01*
G01X17123632Y2219960D01*
G01X17112202Y2225548D01*
G01X17095184Y2225548D01*
G01X17205928Y2265680D02*
G01X17205928Y2168398D01*
G01X17211516Y2151380D01*
G01X17222946Y2145538D01*
G01X17234376Y2145538D01*
G01X17188656Y2225548D02*
G01X17228788Y2225548D01*
G01X18322149Y2265680D02*
G01X18322149Y2145538D01*
G01X18322149Y2265680D02*
G01X18373711Y2265680D01*
G01X18390729Y2259838D01*
G01X18396571Y2254250D01*
G01X18402159Y2242820D01*
G01X18402159Y2225548D01*
G01X18396571Y2214118D01*
G01X18390729Y2208530D01*
G01X18373711Y2202688D01*
G01X18322149Y2202688D01*
G01X18518491Y2225548D02*
G01X18518491Y2145538D01*
G01X18518491Y2208530D02*
G01X18507061Y2219960D01*
G01X18495631Y2225548D01*
G01X18478613Y2225548D01*
G01X18467183Y2219960D01*
G01X18455753Y2208530D01*
G01X18449911Y2191258D01*
G01X18449911Y2179828D01*
G01X18455753Y2162810D01*
G01X18467183Y2151380D01*
G01X18478613Y2145538D01*
G01X18495631Y2145538D01*
G01X18507061Y2151380D01*
G01X18518491Y2162810D01*
G01X18634823Y2265680D02*
G01X18634823Y2145538D01*
G01X18634823Y2208530D02*
G01X18623393Y2219960D01*
G01X18611963Y2225548D01*
G01X18594945Y2225548D01*
G01X18583515Y2219960D01*
G01X18572085Y2208530D01*
G01X18566243Y2191258D01*
G01X18566243Y2179828D01*
G01X18572085Y2162810D01*
G01X18583515Y2151380D01*
G01X18594945Y2145538D01*
G01X18611963Y2145538D01*
G01X18623393Y2151380D01*
G01X18634823Y2162810D01*
G01X20025618Y2265680D02*
G01X20014188Y2259838D01*
G01X20002758Y2248408D01*
G01X19997170Y2236978D01*
G01X19991328Y2219960D01*
G01X19991328Y2191258D01*
G01X19997170Y2174240D01*
G01X20002758Y2162810D01*
G01X20014188Y2151380D01*
G01X20025618Y2145538D01*
G01X20048478Y2145538D01*
G01X20059908Y2151380D01*
G01X20071338Y2162810D01*
G01X20077180Y2174240D01*
G01X20082768Y2191258D01*
G01X20082768Y2219960D01*
G01X20077180Y2236978D01*
G01X20071338Y2248408D01*
G01X20059908Y2259838D01*
G01X20048478Y2265680D01*
G01X20025618Y2265680D01*
G01X20130520Y2225548D02*
G01X20164810Y2145538D01*
G01X20199100Y2225548D02*
G01X20164810Y2145538D01*
G01X20315432Y2225548D02*
G01X20315432Y2145538D01*
G01X20315432Y2208530D02*
G01X20304002Y2219960D01*
G01X20292572Y2225548D01*
G01X20275554Y2225548D01*
G01X20264124Y2219960D01*
G01X20252694Y2208530D01*
G01X20246852Y2191258D01*
G01X20246852Y2179828D01*
G01X20252694Y2162810D01*
G01X20264124Y2151380D01*
G01X20275554Y2145538D01*
G01X20292572Y2145538D01*
G01X20304002Y2151380D01*
G01X20315432Y2162810D01*
G01X20363184Y2265680D02*
G01X20363184Y2145538D01*
G01X21950829Y2265680D02*
G01X21950829Y2145538D01*
G01X21910697Y2265680D02*
G01X21990707Y2265680D01*
G01X22067161Y2225548D02*
G01X22055731Y2219960D01*
G01X22044301Y2208530D01*
G01X22038459Y2191258D01*
G01X22038459Y2179828D01*
G01X22044301Y2162810D01*
G01X22055731Y2151380D01*
G01X22067161Y2145538D01*
G01X22084179Y2145538D01*
G01X22095609Y2151380D01*
G01X22107039Y2162810D01*
G01X22112881Y2179828D01*
G01X22112881Y2191258D01*
G01X22107039Y2208530D01*
G01X22095609Y2219960D01*
G01X22084179Y2225548D01*
G01X22067161Y2225548D01*
G01X22160633Y2225548D02*
G01X22160633Y2105660D01*
G01X22160633Y2208530D02*
G01X22172063Y2219960D01*
G01X22183493Y2225548D01*
G01X22200765Y2225548D01*
G01X22212195Y2219960D01*
G01X22223625Y2208530D01*
G01X22229213Y2191258D01*
G01X22229213Y2179828D01*
G01X22223625Y2162810D01*
G01X22212195Y2151380D01*
G01X22200765Y2145538D01*
G01X22183493Y2145538D01*
G01X22172063Y2151380D01*
G01X22160633Y2162810D01*
G01X22404981Y2265680D02*
G01X22404981Y2145538D01*
G01X22404981Y2145538D02*
G01X22473561Y2145538D01*
G01X22589893Y2225548D02*
G01X22589893Y2145538D01*
G01X22589893Y2208530D02*
G01X22578463Y2219960D01*
G01X22567033Y2225548D01*
G01X22550015Y2225548D01*
G01X22538585Y2219960D01*
G01X22527155Y2208530D01*
G01X22521313Y2191258D01*
G01X22521313Y2179828D01*
G01X22527155Y2162810D01*
G01X22538585Y2151380D01*
G01X22550015Y2145538D01*
G01X22567033Y2145538D01*
G01X22578463Y2151380D01*
G01X22589893Y2162810D01*
G01X22643487Y2225548D02*
G01X22677777Y2145538D01*
G01X22712067Y2225548D02*
G01X22677777Y2145538D01*
G01X22666347Y2122678D01*
G01X22654917Y2111248D01*
G01X22643487Y2105660D01*
G01X22637645Y2105660D01*
G01X22759819Y2191258D02*
G01X22828399Y2191258D01*
G01X22828399Y2202688D01*
G01X22822811Y2214118D01*
G01X22816969Y2219960D01*
G01X22805539Y2225548D01*
G01X22788521Y2225548D01*
G01X22777091Y2219960D01*
G01X22765661Y2208530D01*
G01X22759819Y2191258D01*
G01X22759819Y2179828D01*
G01X22765661Y2162810D01*
G01X22777091Y2151380D01*
G01X22788521Y2145538D01*
G01X22805539Y2145538D01*
G01X22816969Y2151380D01*
G01X22828399Y2162810D01*
G01X22876151Y2225548D02*
G01X22876151Y2145538D01*
G01X22876151Y2191258D02*
G01X22881993Y2208530D01*
G01X22893423Y2219960D01*
G01X22904853Y2225548D01*
G01X22921871Y2225548D01*
G01X22969623Y2197100D02*
G01X23072493Y2197100D01*
G01X23120245Y2265680D02*
G01X23120245Y2145538D01*
G01X23120245Y2265680D02*
G01X23171807Y2265680D01*
G01X23188825Y2259838D01*
G01X23194667Y2254250D01*
G01X23200255Y2242820D01*
G01X23200255Y2231390D01*
G01X23194667Y2219960D01*
G01X23188825Y2214118D01*
G01X23171807Y2208530D01*
G01X23120245Y2208530D02*
G01X23171807Y2208530D01*
G01X23188825Y2202688D01*
G01X23194667Y2197100D01*
G01X23200255Y2185670D01*
G01X23200255Y2168398D01*
G01X23194667Y2156968D01*
G01X23188825Y2151380D01*
G01X23171807Y2145538D01*
G01X23120245Y2145538D01*
G01X23276709Y2225548D02*
G01X23265279Y2219960D01*
G01X23253849Y2208530D01*
G01X23248007Y2191258D01*
G01X23248007Y2179828D01*
G01X23253849Y2162810D01*
G01X23265279Y2151380D01*
G01X23276709Y2145538D01*
G01X23293727Y2145538D01*
G01X23305157Y2151380D01*
G01X23316587Y2162810D01*
G01X23322429Y2179828D01*
G01X23322429Y2191258D01*
G01X23316587Y2208530D01*
G01X23305157Y2219960D01*
G01X23293727Y2225548D01*
G01X23276709Y2225548D01*
G01X23387453Y2265680D02*
G01X23387453Y2168398D01*
G01X23393041Y2151380D01*
G01X23404471Y2145538D01*
G01X23415901Y2145538D01*
G01X23370181Y2225548D02*
G01X23410313Y2225548D01*
G01X23480925Y2265680D02*
G01X23480925Y2168398D01*
G01X23486513Y2151380D01*
G01X23497943Y2145538D01*
G01X23509373Y2145538D01*
G01X23463653Y2225548D02*
G01X23503785Y2225548D01*
G01X23585827Y2225548D02*
G01X23574397Y2219960D01*
G01X23562967Y2208530D01*
G01X23557125Y2191258D01*
G01X23557125Y2179828D01*
G01X23562967Y2162810D01*
G01X23574397Y2151380D01*
G01X23585827Y2145538D01*
G01X23602845Y2145538D01*
G01X23614275Y2151380D01*
G01X23625705Y2162810D01*
G01X23631547Y2179828D01*
G01X23631547Y2191258D01*
G01X23625705Y2208530D01*
G01X23614275Y2219960D01*
G01X23602845Y2225548D01*
G01X23585827Y2225548D01*
G01X23679299Y2225548D02*
G01X23679299Y2145538D01*
G01X23679299Y2202688D02*
G01X23696571Y2219960D01*
G01X23708001Y2225548D01*
G01X23725019Y2225548D01*
G01X23736449Y2219960D01*
G01X23742291Y2202688D01*
G01X23742291Y2145538D01*
G01X23742291Y2202688D02*
G01X23759309Y2219960D01*
G01X23770739Y2225548D01*
G01X23788011Y2225548D01*
G01X23799441Y2219960D01*
G01X23805029Y2202688D01*
G01X23805029Y2145538D01*
G01X23980797Y2265680D02*
G01X23980797Y2145538D01*
G01X23980797Y2145538D02*
G01X24049377Y2145538D01*
G01X24165709Y2225548D02*
G01X24165709Y2145538D01*
G01X24165709Y2208530D02*
G01X24154279Y2219960D01*
G01X24142849Y2225548D01*
G01X24125831Y2225548D01*
G01X24114401Y2219960D01*
G01X24102971Y2208530D01*
G01X24097129Y2191258D01*
G01X24097129Y2179828D01*
G01X24102971Y2162810D01*
G01X24114401Y2151380D01*
G01X24125831Y2145538D01*
G01X24142849Y2145538D01*
G01X24154279Y2151380D01*
G01X24165709Y2162810D01*
G01X24219303Y2225548D02*
G01X24253593Y2145538D01*
G01X24287883Y2225548D02*
G01X24253593Y2145538D01*
G01X24242163Y2122678D01*
G01X24230733Y2111248D01*
G01X24219303Y2105660D01*
G01X24213461Y2105660D01*
G01X24335635Y2191258D02*
G01X24404215Y2191258D01*
G01X24404215Y2202688D01*
G01X24398627Y2214118D01*
G01X24392785Y2219960D01*
G01X24381355Y2225548D01*
G01X24364337Y2225548D01*
G01X24352907Y2219960D01*
G01X24341477Y2208530D01*
G01X24335635Y2191258D01*
G01X24335635Y2179828D01*
G01X24341477Y2162810D01*
G01X24352907Y2151380D01*
G01X24364337Y2145538D01*
G01X24381355Y2145538D01*
G01X24392785Y2151380D01*
G01X24404215Y2162810D01*
G01X24451967Y2225548D02*
G01X24451967Y2145538D01*
G01X24451967Y2191258D02*
G01X24457809Y2208530D01*
G01X24469239Y2219960D01*
G01X24480669Y2225548D01*
G01X24497687Y2225548D01*
G01X10195854Y1667837D02*
G01X10190266Y1679267D01*
G01X10172994Y1685109D01*
G01X10161564Y1685109D01*
G01X10144546Y1679267D01*
G01X10133116Y1662249D01*
G01X10127274Y1633547D01*
G01X10127274Y1605099D01*
G01X10133116Y1582239D01*
G01X10144546Y1570809D01*
G01X10161564Y1564967D01*
G01X10167406Y1564967D01*
G01X10184424Y1570809D01*
G01X10195854Y1582239D01*
G01X10201696Y1599257D01*
G01X10201696Y1605099D01*
G01X10195854Y1622117D01*
G01X10184424Y1633547D01*
G01X10167406Y1639389D01*
G01X10161564Y1639389D01*
G01X10144546Y1633547D01*
G01X10133116Y1622117D01*
G01X10127274Y1605099D01*
G01X11547279Y1656407D02*
G01X11547279Y1662249D01*
G01X11552867Y1673679D01*
G01X11558709Y1679267D01*
G01X11570139Y1685109D01*
G01X11592999Y1685109D01*
G01X11604429Y1679267D01*
G01X11610017Y1673679D01*
G01X11615859Y1662249D01*
G01X11615859Y1650819D01*
G01X11610017Y1639389D01*
G01X11598587Y1622117D01*
G01X11541437Y1564967D01*
G01X11621447Y1564967D01*
G01X11749209Y1685109D02*
G01X11692059Y1564967D01*
G01X11669199Y1685109D02*
G01X11749209Y1685109D01*
G01X11802803Y1593669D02*
G01X11796961Y1587827D01*
G01X11802803Y1582239D01*
G01X11808391Y1587827D01*
G01X11802803Y1593669D01*
G01X11924723Y1667837D02*
G01X11919135Y1679267D01*
G01X11901863Y1685109D01*
G01X11890433Y1685109D01*
G01X11873415Y1679267D01*
G01X11861985Y1662249D01*
G01X11856143Y1633547D01*
G01X11856143Y1605099D01*
G01X11861985Y1582239D01*
G01X11873415Y1570809D01*
G01X11890433Y1564967D01*
G01X11896275Y1564967D01*
G01X11913293Y1570809D01*
G01X11924723Y1582239D01*
G01X11930565Y1599257D01*
G01X11930565Y1605099D01*
G01X11924723Y1622117D01*
G01X11913293Y1633547D01*
G01X11896275Y1639389D01*
G01X11890433Y1639389D01*
G01X11873415Y1633547D01*
G01X11861985Y1622117D01*
G01X11856143Y1605099D01*
G01X11978317Y1644977D02*
G01X11978317Y1564967D01*
G01X11978317Y1622117D02*
G01X11995589Y1639389D01*
G01X12007019Y1644977D01*
G01X12024037Y1644977D01*
G01X12035467Y1639389D01*
G01X12041309Y1622117D01*
G01X12041309Y1564967D01*
G01X12041309Y1622117D02*
G01X12058327Y1639389D01*
G01X12069757Y1644977D01*
G01X12087029Y1644977D01*
G01X12098459Y1639389D01*
G01X12104047Y1622117D01*
G01X12104047Y1564967D01*
G01X12151799Y1685109D02*
G01X12157641Y1679267D01*
G01X12163229Y1685109D01*
G01X12157641Y1690697D01*
G01X12151799Y1685109D01*
G01X12157641Y1644977D02*
G01X12157641Y1564967D01*
G01X12210981Y1685109D02*
G01X12210981Y1564967D01*
G01X12298865Y1707969D02*
G01X12287435Y1696539D01*
G01X12276005Y1679267D01*
G01X12264575Y1656407D01*
G01X12258733Y1627959D01*
G01X12258733Y1605099D01*
G01X12264575Y1576397D01*
G01X12276005Y1553537D01*
G01X12287435Y1536519D01*
G01X12298865Y1525089D01*
G01X12380907Y1685109D02*
G01X12363889Y1679267D01*
G01X12352459Y1662249D01*
G01X12346617Y1633547D01*
G01X12346617Y1616529D01*
G01X12352459Y1587827D01*
G01X12363889Y1570809D01*
G01X12380907Y1564967D01*
G01X12392337Y1564967D01*
G01X12409609Y1570809D01*
G01X12421039Y1587827D01*
G01X12426627Y1616529D01*
G01X12426627Y1633547D01*
G01X12421039Y1662249D01*
G01X12409609Y1679267D01*
G01X12392337Y1685109D01*
G01X12380907Y1685109D01*
G01X12480221Y1593669D02*
G01X12474379Y1587827D01*
G01X12480221Y1582239D01*
G01X12485809Y1587827D01*
G01X12480221Y1593669D01*
G01X12613571Y1685109D02*
G01X12556421Y1564967D01*
G01X12533561Y1685109D02*
G01X12613571Y1685109D01*
G01X12695613Y1685109D02*
G01X12678595Y1679267D01*
G01X12667165Y1662249D01*
G01X12661323Y1633547D01*
G01X12661323Y1616529D01*
G01X12667165Y1587827D01*
G01X12678595Y1570809D01*
G01X12695613Y1564967D01*
G01X12707043Y1564967D01*
G01X12724315Y1570809D01*
G01X12735745Y1587827D01*
G01X12741333Y1616529D01*
G01X12741333Y1633547D01*
G01X12735745Y1662249D01*
G01X12724315Y1679267D01*
G01X12707043Y1685109D01*
G01X12695613Y1685109D01*
G01X12823375Y1685109D02*
G01X12806357Y1679267D01*
G01X12794927Y1662249D01*
G01X12789085Y1633547D01*
G01X12789085Y1616529D01*
G01X12794927Y1587827D01*
G01X12806357Y1570809D01*
G01X12823375Y1564967D01*
G01X12834805Y1564967D01*
G01X12852077Y1570809D01*
G01X12863507Y1587827D01*
G01X12869095Y1616529D01*
G01X12869095Y1633547D01*
G01X12863507Y1662249D01*
G01X12852077Y1679267D01*
G01X12834805Y1685109D01*
G01X12823375Y1685109D01*
G01X12916847Y1644977D02*
G01X12916847Y1564967D01*
G01X12916847Y1622117D02*
G01X12934119Y1639389D01*
G01X12945549Y1644977D01*
G01X12962567Y1644977D01*
G01X12973997Y1639389D01*
G01X12979839Y1622117D01*
G01X12979839Y1564967D01*
G01X12979839Y1622117D02*
G01X12996857Y1639389D01*
G01X13008287Y1644977D01*
G01X13025559Y1644977D01*
G01X13036989Y1639389D01*
G01X13042577Y1622117D01*
G01X13042577Y1564967D01*
G01X13090329Y1644977D02*
G01X13090329Y1564967D01*
G01X13090329Y1622117D02*
G01X13107601Y1639389D01*
G01X13119031Y1644977D01*
G01X13136049Y1644977D01*
G01X13147479Y1639389D01*
G01X13153321Y1622117D01*
G01X13153321Y1564967D01*
G01X13153321Y1622117D02*
G01X13170339Y1639389D01*
G01X13181769Y1644977D01*
G01X13199041Y1644977D01*
G01X13210471Y1639389D01*
G01X13216059Y1622117D01*
G01X13216059Y1564967D01*
G01X13263811Y1707969D02*
G01X13275241Y1696539D01*
G01X13286671Y1679267D01*
G01X13298101Y1656407D01*
G01X13303943Y1627959D01*
G01X13303943Y1605099D01*
G01X13298101Y1576397D01*
G01X13286671Y1553537D01*
G01X13275241Y1536519D01*
G01X13263811Y1525089D01*
G01X15429561Y1685109D02*
G01X15429561Y1564967D01*
G01X15429561Y1685109D02*
G01X15509571Y1564967D01*
G01X15509571Y1685109D02*
G01X15509571Y1564967D01*
G01X15557323Y1685109D02*
G01X15557323Y1564967D01*
G01X15557323Y1685109D02*
G01X15608885Y1685109D01*
G01X15625903Y1679267D01*
G01X15631745Y1673679D01*
G01X15637333Y1662249D01*
G01X15637333Y1644977D01*
G01X15631745Y1633547D01*
G01X15625903Y1627959D01*
G01X15608885Y1622117D01*
G01X15557323Y1622117D01*
G01X15725217Y1685109D02*
G01X15725217Y1564967D01*
G01X15685085Y1685109D02*
G01X15765095Y1685109D01*
G01X15812847Y1685109D02*
G01X15812847Y1564967D01*
G01X15892857Y1685109D02*
G01X15892857Y1564967D01*
G01X15812847Y1627959D02*
G01X15892857Y1627959D01*
G01X16890968Y1685109D02*
G01X16890968Y1564967D01*
G01X16890968Y1685109D02*
G01X16942530Y1685109D01*
G01X16959548Y1679267D01*
G01X16965390Y1673679D01*
G01X16970978Y1662249D01*
G01X16970978Y1650819D01*
G01X16965390Y1639389D01*
G01X16959548Y1633547D01*
G01X16942530Y1627959D01*
G01X16890968Y1627959D01*
G01X16931100Y1627959D02*
G01X16970978Y1564967D01*
G01X17047432Y1644977D02*
G01X17036002Y1639389D01*
G01X17024572Y1627959D01*
G01X17018730Y1610687D01*
G01X17018730Y1599257D01*
G01X17024572Y1582239D01*
G01X17036002Y1570809D01*
G01X17047432Y1564967D01*
G01X17064450Y1564967D01*
G01X17075880Y1570809D01*
G01X17087310Y1582239D01*
G01X17093152Y1599257D01*
G01X17093152Y1610687D01*
G01X17087310Y1627959D01*
G01X17075880Y1639389D01*
G01X17064450Y1644977D01*
G01X17047432Y1644977D01*
G01X17140904Y1644977D02*
G01X17140904Y1587827D01*
G01X17146746Y1570809D01*
G01X17158176Y1564967D01*
G01X17175194Y1564967D01*
G01X17186624Y1570809D01*
G01X17203896Y1587827D01*
G01X17203896Y1644977D02*
G01X17203896Y1564967D01*
G01X17251648Y1644977D02*
G01X17251648Y1564967D01*
G01X17251648Y1622117D02*
G01X17268920Y1639389D01*
G01X17280350Y1644977D01*
G01X17297368Y1644977D01*
G01X17308798Y1639389D01*
G01X17314640Y1622117D01*
G01X17314640Y1564967D01*
G01X17430972Y1685109D02*
G01X17430972Y1564967D01*
G01X17430972Y1627959D02*
G01X17419542Y1639389D01*
G01X17408112Y1644977D01*
G01X17391094Y1644977D01*
G01X17379664Y1639389D01*
G01X17368234Y1627959D01*
G01X17362392Y1610687D01*
G01X17362392Y1599257D01*
G01X17368234Y1582239D01*
G01X17379664Y1570809D01*
G01X17391094Y1564967D01*
G01X17408112Y1564967D01*
G01X17419542Y1570809D01*
G01X17430972Y1582239D01*
G01X18322149Y1685109D02*
G01X18367869Y1564967D01*
G01X18413589Y1685109D02*
G01X18367869Y1564967D01*
G01X18461341Y1685109D02*
G01X18467183Y1679267D01*
G01X18472771Y1685109D01*
G01X18467183Y1690697D01*
G01X18461341Y1685109D01*
G01X18467183Y1644977D02*
G01X18467183Y1564967D01*
G01X18589103Y1644977D02*
G01X18589103Y1564967D01*
G01X18589103Y1627959D02*
G01X18577673Y1639389D01*
G01X18566243Y1644977D01*
G01X18549225Y1644977D01*
G01X18537795Y1639389D01*
G01X18526365Y1627959D01*
G01X18520523Y1610687D01*
G01X18520523Y1599257D01*
G01X18526365Y1582239D01*
G01X18537795Y1570809D01*
G01X18549225Y1564967D01*
G01X18566243Y1564967D01*
G01X18577673Y1570809D01*
G01X18589103Y1582239D01*
G01X21950829Y1685109D02*
G01X21950829Y1564967D01*
G01X21910697Y1685109D02*
G01X21990707Y1685109D01*
G01X22067161Y1644977D02*
G01X22055731Y1639389D01*
G01X22044301Y1627959D01*
G01X22038459Y1610687D01*
G01X22038459Y1599257D01*
G01X22044301Y1582239D01*
G01X22055731Y1570809D01*
G01X22067161Y1564967D01*
G01X22084179Y1564967D01*
G01X22095609Y1570809D01*
G01X22107039Y1582239D01*
G01X22112881Y1599257D01*
G01X22112881Y1610687D01*
G01X22107039Y1627959D01*
G01X22095609Y1639389D01*
G01X22084179Y1644977D01*
G01X22067161Y1644977D01*
G01X22160633Y1644977D02*
G01X22160633Y1525089D01*
G01X22160633Y1627959D02*
G01X22172063Y1639389D01*
G01X22183493Y1644977D01*
G01X22200765Y1644977D01*
G01X22212195Y1639389D01*
G01X22223625Y1627959D01*
G01X22229213Y1610687D01*
G01X22229213Y1599257D01*
G01X22223625Y1582239D01*
G01X22212195Y1570809D01*
G01X22200765Y1564967D01*
G01X22183493Y1564967D01*
G01X22172063Y1570809D01*
G01X22160633Y1582239D01*
G01X22404981Y1685109D02*
G01X22404981Y1564967D01*
G01X22404981Y1564967D02*
G01X22473561Y1564967D01*
G01X22589893Y1644977D02*
G01X22589893Y1564967D01*
G01X22589893Y1627959D02*
G01X22578463Y1639389D01*
G01X22567033Y1644977D01*
G01X22550015Y1644977D01*
G01X22538585Y1639389D01*
G01X22527155Y1627959D01*
G01X22521313Y1610687D01*
G01X22521313Y1599257D01*
G01X22527155Y1582239D01*
G01X22538585Y1570809D01*
G01X22550015Y1564967D01*
G01X22567033Y1564967D01*
G01X22578463Y1570809D01*
G01X22589893Y1582239D01*
G01X22643487Y1644977D02*
G01X22677777Y1564967D01*
G01X22712067Y1644977D02*
G01X22677777Y1564967D01*
G01X22666347Y1542107D01*
G01X22654917Y1530677D01*
G01X22643487Y1525089D01*
G01X22637645Y1525089D01*
G01X22759819Y1610687D02*
G01X22828399Y1610687D01*
G01X22828399Y1622117D01*
G01X22822811Y1633547D01*
G01X22816969Y1639389D01*
G01X22805539Y1644977D01*
G01X22788521Y1644977D01*
G01X22777091Y1639389D01*
G01X22765661Y1627959D01*
G01X22759819Y1610687D01*
G01X22759819Y1599257D01*
G01X22765661Y1582239D01*
G01X22777091Y1570809D01*
G01X22788521Y1564967D01*
G01X22805539Y1564967D01*
G01X22816969Y1570809D01*
G01X22828399Y1582239D01*
G01X22876151Y1644977D02*
G01X22876151Y1564967D01*
G01X22876151Y1610687D02*
G01X22881993Y1627959D01*
G01X22893423Y1639389D01*
G01X22904853Y1644977D01*
G01X22921871Y1644977D01*
G01X22969623Y1616529D02*
G01X23072493Y1616529D01*
G01X23120245Y1685109D02*
G01X23120245Y1564967D01*
G01X23120245Y1685109D02*
G01X23171807Y1685109D01*
G01X23188825Y1679267D01*
G01X23194667Y1673679D01*
G01X23200255Y1662249D01*
G01X23200255Y1650819D01*
G01X23194667Y1639389D01*
G01X23188825Y1633547D01*
G01X23171807Y1627959D01*
G01X23120245Y1627959D02*
G01X23171807Y1627959D01*
G01X23188825Y1622117D01*
G01X23194667Y1616529D01*
G01X23200255Y1605099D01*
G01X23200255Y1587827D01*
G01X23194667Y1576397D01*
G01X23188825Y1570809D01*
G01X23171807Y1564967D01*
G01X23120245Y1564967D01*
G01X23276709Y1644977D02*
G01X23265279Y1639389D01*
G01X23253849Y1627959D01*
G01X23248007Y1610687D01*
G01X23248007Y1599257D01*
G01X23253849Y1582239D01*
G01X23265279Y1570809D01*
G01X23276709Y1564967D01*
G01X23293727Y1564967D01*
G01X23305157Y1570809D01*
G01X23316587Y1582239D01*
G01X23322429Y1599257D01*
G01X23322429Y1610687D01*
G01X23316587Y1627959D01*
G01X23305157Y1639389D01*
G01X23293727Y1644977D01*
G01X23276709Y1644977D01*
G01X23387453Y1685109D02*
G01X23387453Y1587827D01*
G01X23393041Y1570809D01*
G01X23404471Y1564967D01*
G01X23415901Y1564967D01*
G01X23370181Y1644977D02*
G01X23410313Y1644977D01*
G01X23480925Y1685109D02*
G01X23480925Y1587827D01*
G01X23486513Y1570809D01*
G01X23497943Y1564967D01*
G01X23509373Y1564967D01*
G01X23463653Y1644977D02*
G01X23503785Y1644977D01*
G01X23585827Y1644977D02*
G01X23574397Y1639389D01*
G01X23562967Y1627959D01*
G01X23557125Y1610687D01*
G01X23557125Y1599257D01*
G01X23562967Y1582239D01*
G01X23574397Y1570809D01*
G01X23585827Y1564967D01*
G01X23602845Y1564967D01*
G01X23614275Y1570809D01*
G01X23625705Y1582239D01*
G01X23631547Y1599257D01*
G01X23631547Y1610687D01*
G01X23625705Y1627959D01*
G01X23614275Y1639389D01*
G01X23602845Y1644977D01*
G01X23585827Y1644977D01*
G01X23679299Y1644977D02*
G01X23679299Y1564967D01*
G01X23679299Y1622117D02*
G01X23696571Y1639389D01*
G01X23708001Y1644977D01*
G01X23725019Y1644977D01*
G01X23736449Y1639389D01*
G01X23742291Y1622117D01*
G01X23742291Y1564967D01*
G01X23742291Y1622117D02*
G01X23759309Y1639389D01*
G01X23770739Y1644977D01*
G01X23788011Y1644977D01*
G01X23799441Y1639389D01*
G01X23805029Y1622117D01*
G01X23805029Y1564967D01*
G01X23980797Y1685109D02*
G01X23980797Y1564967D01*
G01X23980797Y1564967D02*
G01X24049377Y1564967D01*
G01X24165709Y1644977D02*
G01X24165709Y1564967D01*
G01X24165709Y1627959D02*
G01X24154279Y1639389D01*
G01X24142849Y1644977D01*
G01X24125831Y1644977D01*
G01X24114401Y1639389D01*
G01X24102971Y1627959D01*
G01X24097129Y1610687D01*
G01X24097129Y1599257D01*
G01X24102971Y1582239D01*
G01X24114401Y1570809D01*
G01X24125831Y1564967D01*
G01X24142849Y1564967D01*
G01X24154279Y1570809D01*
G01X24165709Y1582239D01*
G01X24219303Y1644977D02*
G01X24253593Y1564967D01*
G01X24287883Y1644977D02*
G01X24253593Y1564967D01*
G01X24242163Y1542107D01*
G01X24230733Y1530677D01*
G01X24219303Y1525089D01*
G01X24213461Y1525089D01*
G01X24335635Y1610687D02*
G01X24404215Y1610687D01*
G01X24404215Y1622117D01*
G01X24398627Y1633547D01*
G01X24392785Y1639389D01*
G01X24381355Y1644977D01*
G01X24364337Y1644977D01*
G01X24352907Y1639389D01*
G01X24341477Y1627959D01*
G01X24335635Y1610687D01*
G01X24335635Y1599257D01*
G01X24341477Y1582239D01*
G01X24352907Y1570809D01*
G01X24364337Y1564967D01*
G01X24381355Y1564967D01*
G01X24392785Y1570809D01*
G01X24404215Y1582239D01*
G01X24451967Y1644977D02*
G01X24451967Y1564967D01*
G01X24451967Y1610687D02*
G01X24457809Y1627959D01*
G01X24469239Y1639389D01*
G01X24480669Y1644977D01*
G01X24497687Y1644977D01*
G01X10127274Y1081677D02*
G01X10138704Y1087265D01*
G01X10155976Y1104537D01*
G01X10155976Y984395D01*
G01X10283738Y1104537D02*
G01X10226588Y984395D01*
G01X10203728Y1104537D02*
G01X10283738Y1104537D01*
G01X11541437Y1081677D02*
G01X11552867Y1087265D01*
G01X11570139Y1104537D01*
G01X11570139Y984395D01*
G01X11623733Y1075835D02*
G01X11623733Y1081677D01*
G01X11629321Y1093107D01*
G01X11635163Y1098695D01*
G01X11646593Y1104537D01*
G01X11669453Y1104537D01*
G01X11680883Y1098695D01*
G01X11686471Y1093107D01*
G01X11692313Y1081677D01*
G01X11692313Y1070247D01*
G01X11686471Y1058817D01*
G01X11675041Y1041545D01*
G01X11617891Y984395D01*
G01X11697901Y984395D01*
G01X11751495Y1013097D02*
G01X11745653Y1007255D01*
G01X11751495Y1001667D01*
G01X11757083Y1007255D01*
G01X11751495Y1013097D01*
G01X11839125Y1104537D02*
G01X11822107Y1098695D01*
G01X11810677Y1081677D01*
G01X11804835Y1052975D01*
G01X11804835Y1035957D01*
G01X11810677Y1007255D01*
G01X11822107Y990237D01*
G01X11839125Y984395D01*
G01X11850555Y984395D01*
G01X11867827Y990237D01*
G01X11879257Y1007255D01*
G01X11884845Y1035957D01*
G01X11884845Y1052975D01*
G01X11879257Y1081677D01*
G01X11867827Y1098695D01*
G01X11850555Y1104537D01*
G01X11839125Y1104537D01*
G01X11932597Y1064405D02*
G01X11932597Y984395D01*
G01X11932597Y1041545D02*
G01X11949869Y1058817D01*
G01X11961299Y1064405D01*
G01X11978317Y1064405D01*
G01X11989747Y1058817D01*
G01X11995589Y1041545D01*
G01X11995589Y984395D01*
G01X11995589Y1041545D02*
G01X12012607Y1058817D01*
G01X12024037Y1064405D01*
G01X12041309Y1064405D01*
G01X12052739Y1058817D01*
G01X12058327Y1041545D01*
G01X12058327Y984395D01*
G01X12106079Y1104537D02*
G01X12111921Y1098695D01*
G01X12117509Y1104537D01*
G01X12111921Y1110125D01*
G01X12106079Y1104537D01*
G01X12111921Y1064405D02*
G01X12111921Y984395D01*
G01X12165261Y1104537D02*
G01X12165261Y984395D01*
G01X12253145Y1127397D02*
G01X12241715Y1115967D01*
G01X12230285Y1098695D01*
G01X12218855Y1075835D01*
G01X12213013Y1047387D01*
G01X12213013Y1024527D01*
G01X12218855Y995825D01*
G01X12230285Y972965D01*
G01X12241715Y955947D01*
G01X12253145Y944517D01*
G01X12335187Y1104537D02*
G01X12318169Y1098695D01*
G01X12306739Y1081677D01*
G01X12300897Y1052975D01*
G01X12300897Y1035957D01*
G01X12306739Y1007255D01*
G01X12318169Y990237D01*
G01X12335187Y984395D01*
G01X12346617Y984395D01*
G01X12363889Y990237D01*
G01X12375319Y1007255D01*
G01X12380907Y1035957D01*
G01X12380907Y1052975D01*
G01X12375319Y1081677D01*
G01X12363889Y1098695D01*
G01X12346617Y1104537D01*
G01X12335187Y1104537D01*
G01X12434501Y1013097D02*
G01X12428659Y1007255D01*
G01X12434501Y1001667D01*
G01X12440089Y1007255D01*
G01X12434501Y1013097D01*
G01X12499271Y1104537D02*
G01X12562263Y1104537D01*
G01X12527973Y1058817D01*
G01X12544991Y1058817D01*
G01X12556421Y1052975D01*
G01X12562263Y1047387D01*
G01X12567851Y1030115D01*
G01X12567851Y1018685D01*
G01X12562263Y1001667D01*
G01X12550833Y990237D01*
G01X12533561Y984395D01*
G01X12516543Y984395D01*
G01X12499271Y990237D01*
G01X12493683Y995825D01*
G01X12487841Y1007255D01*
G01X12649893Y1104537D02*
G01X12632875Y1098695D01*
G01X12621445Y1081677D01*
G01X12615603Y1052975D01*
G01X12615603Y1035957D01*
G01X12621445Y1007255D01*
G01X12632875Y990237D01*
G01X12649893Y984395D01*
G01X12661323Y984395D01*
G01X12678595Y990237D01*
G01X12690025Y1007255D01*
G01X12695613Y1035957D01*
G01X12695613Y1052975D01*
G01X12690025Y1081677D01*
G01X12678595Y1098695D01*
G01X12661323Y1104537D01*
G01X12649893Y1104537D01*
G01X12811945Y1104537D02*
G01X12754795Y1104537D01*
G01X12749207Y1052975D01*
G01X12754795Y1058817D01*
G01X12772067Y1064405D01*
G01X12789085Y1064405D01*
G01X12806357Y1058817D01*
G01X12817787Y1047387D01*
G01X12823375Y1030115D01*
G01X12823375Y1018685D01*
G01X12817787Y1001667D01*
G01X12806357Y990237D01*
G01X12789085Y984395D01*
G01X12772067Y984395D01*
G01X12754795Y990237D01*
G01X12749207Y995825D01*
G01X12743365Y1007255D01*
G01X12871127Y1064405D02*
G01X12871127Y984395D01*
G01X12871127Y1041545D02*
G01X12888399Y1058817D01*
G01X12899829Y1064405D01*
G01X12916847Y1064405D01*
G01X12928277Y1058817D01*
G01X12934119Y1041545D01*
G01X12934119Y984395D01*
G01X12934119Y1041545D02*
G01X12951137Y1058817D01*
G01X12962567Y1064405D01*
G01X12979839Y1064405D01*
G01X12991269Y1058817D01*
G01X12996857Y1041545D01*
G01X12996857Y984395D01*
G01X13044609Y1064405D02*
G01X13044609Y984395D01*
G01X13044609Y1041545D02*
G01X13061881Y1058817D01*
G01X13073311Y1064405D01*
G01X13090329Y1064405D01*
G01X13101759Y1058817D01*
G01X13107601Y1041545D01*
G01X13107601Y984395D01*
G01X13107601Y1041545D02*
G01X13124619Y1058817D01*
G01X13136049Y1064405D01*
G01X13153321Y1064405D01*
G01X13164751Y1058817D01*
G01X13170339Y1041545D01*
G01X13170339Y984395D01*
G01X13218091Y1127397D02*
G01X13229521Y1115967D01*
G01X13240951Y1098695D01*
G01X13252381Y1075835D01*
G01X13258223Y1047387D01*
G01X13258223Y1024527D01*
G01X13252381Y995825D01*
G01X13240951Y972965D01*
G01X13229521Y955947D01*
G01X13218091Y944517D01*
G01X15429561Y1104537D02*
G01X15429561Y984395D01*
G01X15429561Y1104537D02*
G01X15481123Y1104537D01*
G01X15498141Y1098695D01*
G01X15503983Y1093107D01*
G01X15509571Y1081677D01*
G01X15509571Y1064405D01*
G01X15503983Y1052975D01*
G01X15498141Y1047387D01*
G01X15481123Y1041545D01*
G01X15429561Y1041545D01*
G01X15597455Y1104537D02*
G01X15597455Y984395D01*
G01X15557323Y1104537D02*
G01X15637333Y1104537D01*
G01X15685085Y1104537D02*
G01X15685085Y984395D01*
G01X15765095Y1104537D02*
G01X15765095Y984395D01*
G01X15685085Y1047387D02*
G01X15765095Y1047387D01*
G01X16890968Y1104537D02*
G01X16890968Y984395D01*
G01X16890968Y1104537D02*
G01X16942530Y1104537D01*
G01X16959548Y1098695D01*
G01X16965390Y1093107D01*
G01X16970978Y1081677D01*
G01X16970978Y1070247D01*
G01X16965390Y1058817D01*
G01X16959548Y1052975D01*
G01X16942530Y1047387D01*
G01X16890968Y1047387D01*
G01X16931100Y1047387D02*
G01X16970978Y984395D01*
G01X17047432Y1064405D02*
G01X17036002Y1058817D01*
G01X17024572Y1047387D01*
G01X17018730Y1030115D01*
G01X17018730Y1018685D01*
G01X17024572Y1001667D01*
G01X17036002Y990237D01*
G01X17047432Y984395D01*
G01X17064450Y984395D01*
G01X17075880Y990237D01*
G01X17087310Y1001667D01*
G01X17093152Y1018685D01*
G01X17093152Y1030115D01*
G01X17087310Y1047387D01*
G01X17075880Y1058817D01*
G01X17064450Y1064405D01*
G01X17047432Y1064405D01*
G01X17140904Y1064405D02*
G01X17140904Y1007255D01*
G01X17146746Y990237D01*
G01X17158176Y984395D01*
G01X17175194Y984395D01*
G01X17186624Y990237D01*
G01X17203896Y1007255D01*
G01X17203896Y1064405D02*
G01X17203896Y984395D01*
G01X17251648Y1064405D02*
G01X17251648Y984395D01*
G01X17251648Y1041545D02*
G01X17268920Y1058817D01*
G01X17280350Y1064405D01*
G01X17297368Y1064405D01*
G01X17308798Y1058817D01*
G01X17314640Y1041545D01*
G01X17314640Y984395D01*
G01X17430972Y1104537D02*
G01X17430972Y984395D01*
G01X17430972Y1047387D02*
G01X17419542Y1058817D01*
G01X17408112Y1064405D01*
G01X17391094Y1064405D01*
G01X17379664Y1058817D01*
G01X17368234Y1047387D01*
G01X17362392Y1030115D01*
G01X17362392Y1018685D01*
G01X17368234Y1001667D01*
G01X17379664Y990237D01*
G01X17391094Y984395D01*
G01X17408112Y984395D01*
G01X17419542Y990237D01*
G01X17430972Y1001667D01*
G01X18322149Y1104537D02*
G01X18367869Y984395D01*
G01X18413589Y1104537D02*
G01X18367869Y984395D01*
G01X18461341Y1104537D02*
G01X18467183Y1098695D01*
G01X18472771Y1104537D01*
G01X18467183Y1110125D01*
G01X18461341Y1104537D01*
G01X18467183Y1064405D02*
G01X18467183Y984395D01*
G01X18589103Y1064405D02*
G01X18589103Y984395D01*
G01X18589103Y1047387D02*
G01X18577673Y1058817D01*
G01X18566243Y1064405D01*
G01X18549225Y1064405D01*
G01X18537795Y1058817D01*
G01X18526365Y1047387D01*
G01X18520523Y1030115D01*
G01X18520523Y1018685D01*
G01X18526365Y1001667D01*
G01X18537795Y990237D01*
G01X18549225Y984395D01*
G01X18566243Y984395D01*
G01X18577673Y990237D01*
G01X18589103Y1001667D01*
G01X21950829Y1104537D02*
G01X21950829Y984395D01*
G01X21910697Y1104537D02*
G01X21990707Y1104537D01*
G01X22067161Y1064405D02*
G01X22055731Y1058817D01*
G01X22044301Y1047387D01*
G01X22038459Y1030115D01*
G01X22038459Y1018685D01*
G01X22044301Y1001667D01*
G01X22055731Y990237D01*
G01X22067161Y984395D01*
G01X22084179Y984395D01*
G01X22095609Y990237D01*
G01X22107039Y1001667D01*
G01X22112881Y1018685D01*
G01X22112881Y1030115D01*
G01X22107039Y1047387D01*
G01X22095609Y1058817D01*
G01X22084179Y1064405D01*
G01X22067161Y1064405D01*
G01X22160633Y1064405D02*
G01X22160633Y944517D01*
G01X22160633Y1047387D02*
G01X22172063Y1058817D01*
G01X22183493Y1064405D01*
G01X22200765Y1064405D01*
G01X22212195Y1058817D01*
G01X22223625Y1047387D01*
G01X22229213Y1030115D01*
G01X22229213Y1018685D01*
G01X22223625Y1001667D01*
G01X22212195Y990237D01*
G01X22200765Y984395D01*
G01X22183493Y984395D01*
G01X22172063Y990237D01*
G01X22160633Y1001667D01*
G01X22404981Y1104537D02*
G01X22404981Y984395D01*
G01X22404981Y984395D02*
G01X22473561Y984395D01*
G01X22589893Y1064405D02*
G01X22589893Y984395D01*
G01X22589893Y1047387D02*
G01X22578463Y1058817D01*
G01X22567033Y1064405D01*
G01X22550015Y1064405D01*
G01X22538585Y1058817D01*
G01X22527155Y1047387D01*
G01X22521313Y1030115D01*
G01X22521313Y1018685D01*
G01X22527155Y1001667D01*
G01X22538585Y990237D01*
G01X22550015Y984395D01*
G01X22567033Y984395D01*
G01X22578463Y990237D01*
G01X22589893Y1001667D01*
G01X22643487Y1064405D02*
G01X22677777Y984395D01*
G01X22712067Y1064405D02*
G01X22677777Y984395D01*
G01X22666347Y961535D01*
G01X22654917Y950105D01*
G01X22643487Y944517D01*
G01X22637645Y944517D01*
G01X22759819Y1030115D02*
G01X22828399Y1030115D01*
G01X22828399Y1041545D01*
G01X22822811Y1052975D01*
G01X22816969Y1058817D01*
G01X22805539Y1064405D01*
G01X22788521Y1064405D01*
G01X22777091Y1058817D01*
G01X22765661Y1047387D01*
G01X22759819Y1030115D01*
G01X22759819Y1018685D01*
G01X22765661Y1001667D01*
G01X22777091Y990237D01*
G01X22788521Y984395D01*
G01X22805539Y984395D01*
G01X22816969Y990237D01*
G01X22828399Y1001667D01*
G01X22876151Y1064405D02*
G01X22876151Y984395D01*
G01X22876151Y1030115D02*
G01X22881993Y1047387D01*
G01X22893423Y1058817D01*
G01X22904853Y1064405D01*
G01X22921871Y1064405D01*
G01X22969623Y1035957D02*
G01X23072493Y1035957D01*
G01X23120245Y1104537D02*
G01X23120245Y984395D01*
G01X23120245Y1104537D02*
G01X23171807Y1104537D01*
G01X23188825Y1098695D01*
G01X23194667Y1093107D01*
G01X23200255Y1081677D01*
G01X23200255Y1070247D01*
G01X23194667Y1058817D01*
G01X23188825Y1052975D01*
G01X23171807Y1047387D01*
G01X23120245Y1047387D02*
G01X23171807Y1047387D01*
G01X23188825Y1041545D01*
G01X23194667Y1035957D01*
G01X23200255Y1024527D01*
G01X23200255Y1007255D01*
G01X23194667Y995825D01*
G01X23188825Y990237D01*
G01X23171807Y984395D01*
G01X23120245Y984395D01*
G01X23276709Y1064405D02*
G01X23265279Y1058817D01*
G01X23253849Y1047387D01*
G01X23248007Y1030115D01*
G01X23248007Y1018685D01*
G01X23253849Y1001667D01*
G01X23265279Y990237D01*
G01X23276709Y984395D01*
G01X23293727Y984395D01*
G01X23305157Y990237D01*
G01X23316587Y1001667D01*
G01X23322429Y1018685D01*
G01X23322429Y1030115D01*
G01X23316587Y1047387D01*
G01X23305157Y1058817D01*
G01X23293727Y1064405D01*
G01X23276709Y1064405D01*
G01X23387453Y1104537D02*
G01X23387453Y1007255D01*
G01X23393041Y990237D01*
G01X23404471Y984395D01*
G01X23415901Y984395D01*
G01X23370181Y1064405D02*
G01X23410313Y1064405D01*
G01X23480925Y1104537D02*
G01X23480925Y1007255D01*
G01X23486513Y990237D01*
G01X23497943Y984395D01*
G01X23509373Y984395D01*
G01X23463653Y1064405D02*
G01X23503785Y1064405D01*
G01X23585827Y1064405D02*
G01X23574397Y1058817D01*
G01X23562967Y1047387D01*
G01X23557125Y1030115D01*
G01X23557125Y1018685D01*
G01X23562967Y1001667D01*
G01X23574397Y990237D01*
G01X23585827Y984395D01*
G01X23602845Y984395D01*
G01X23614275Y990237D01*
G01X23625705Y1001667D01*
G01X23631547Y1018685D01*
G01X23631547Y1030115D01*
G01X23625705Y1047387D01*
G01X23614275Y1058817D01*
G01X23602845Y1064405D01*
G01X23585827Y1064405D01*
G01X23679299Y1064405D02*
G01X23679299Y984395D01*
G01X23679299Y1041545D02*
G01X23696571Y1058817D01*
G01X23708001Y1064405D01*
G01X23725019Y1064405D01*
G01X23736449Y1058817D01*
G01X23742291Y1041545D01*
G01X23742291Y984395D01*
G01X23742291Y1041545D02*
G01X23759309Y1058817D01*
G01X23770739Y1064405D01*
G01X23788011Y1064405D01*
G01X23799441Y1058817D01*
G01X23805029Y1041545D01*
G01X23805029Y984395D01*
G01X23980797Y1104537D02*
G01X23980797Y984395D01*
G01X23980797Y984395D02*
G01X24049377Y984395D01*
G01X24165709Y1064405D02*
G01X24165709Y984395D01*
G01X24165709Y1047387D02*
G01X24154279Y1058817D01*
G01X24142849Y1064405D01*
G01X24125831Y1064405D01*
G01X24114401Y1058817D01*
G01X24102971Y1047387D01*
G01X24097129Y1030115D01*
G01X24097129Y1018685D01*
G01X24102971Y1001667D01*
G01X24114401Y990237D01*
G01X24125831Y984395D01*
G01X24142849Y984395D01*
G01X24154279Y990237D01*
G01X24165709Y1001667D01*
G01X24219303Y1064405D02*
G01X24253593Y984395D01*
G01X24287883Y1064405D02*
G01X24253593Y984395D01*
G01X24242163Y961535D01*
G01X24230733Y950105D01*
G01X24219303Y944517D01*
G01X24213461Y944517D01*
G01X24335635Y1030115D02*
G01X24404215Y1030115D01*
G01X24404215Y1041545D01*
G01X24398627Y1052975D01*
G01X24392785Y1058817D01*
G01X24381355Y1064405D01*
G01X24364337Y1064405D01*
G01X24352907Y1058817D01*
G01X24341477Y1047387D01*
G01X24335635Y1030115D01*
G01X24335635Y1018685D01*
G01X24341477Y1001667D01*
G01X24352907Y990237D01*
G01X24364337Y984395D01*
G01X24381355Y984395D01*
G01X24392785Y990237D01*
G01X24404215Y1001667D01*
G01X24451967Y1064405D02*
G01X24451967Y984395D01*
G01X24451967Y1030115D02*
G01X24457809Y1047387D01*
G01X24469239Y1058817D01*
G01X24480669Y1064405D01*
G01X24497687Y1064405D01*

G04 Image Start*
G36*
G01X8962663Y1504496D02*
G01X8857049Y1515977D01*
G01X8814174Y1418771D01*
G01X8771299Y1515977D01*
G01X8665686Y1504496D01*
G01X8728449Y1590221D01*
G01X8688727Y1644476D01*
G01X8720220Y1644476D01*
G01X8759920Y1590221D01*
G01X8720220Y1535967D01*
G01X8787047Y1543231D01*
G01X8787047Y1543231D01*
G01X8814174Y1481738D01*
G01X8841301Y1543231D01*
G01X8908129Y1535967D01*
G01X8868429Y1590221D01*
G01X8908103Y1644450D01*
G01X8841276Y1637186D01*
G01X8814174Y1698705D01*
G01X8787047Y1637211D01*
G01X8720220Y1644476D01*
G01X8688727Y1644476D01*
G01X8665686Y1675946D01*
G01X8771324Y1664466D01*
G01X8814174Y1761671D01*
G01X8857049Y1664466D01*
G01X8962663Y1675946D01*
G01X8899899Y1590221D01*
G01X8962663Y1504496D01*
G37*
G36*
G01X8833669Y2618801D02*
G01X8825929Y2618213D01*
G01X8818086Y2618014D01*
G01X8810243Y2618213D01*
G01X8802502Y2618801D01*
G01X8794875Y2619770D01*
G01X8787370Y2621110D01*
G01X8772764Y2624865D01*
G01X8758762Y2629990D01*
G01X8745440Y2636407D01*
G01X8732874Y2644040D01*
G01X8721142Y2652813D01*
G01X8710320Y2662648D01*
G01X8700484Y2673471D01*
G01X8691711Y2685203D01*
G01X8684078Y2697768D01*
G01X8677661Y2711090D01*
G01X8672537Y2725092D01*
G01X8668782Y2739698D01*
G01X8667442Y2747204D01*
G01X8666472Y2754831D01*
G01X8665884Y2762571D01*
G01X8665686Y2770414D01*
G01X8691086Y2770414D01*
G01X8691743Y2757448D01*
G01X8693670Y2744852D01*
G01X8696805Y2732690D01*
G01X8701082Y2721028D01*
G01X8706437Y2709928D01*
G01X8712805Y2699457D01*
G01X8720123Y2689677D01*
G01X8728325Y2680654D01*
G01X8737349Y2672451D01*
G01X8747128Y2665134D01*
G01X8757600Y2658765D01*
G01X8768699Y2653410D01*
G01X8780362Y2649134D01*
G01X8792523Y2645999D01*
G01X8792523Y2645999D01*
G01X8805119Y2644071D01*
G01X8818086Y2643414D01*
G01X8831052Y2644071D01*
G01X8843648Y2645999D01*
G01X8855810Y2649134D01*
G01X8867472Y2653410D01*
G01X8878572Y2658765D01*
G01X8889043Y2665134D01*
G01X8898823Y2672451D01*
G01X8907846Y2680654D01*
G01X8916049Y2689677D01*
G01X8923366Y2699457D01*
G01X8929735Y2709928D01*
G01X8935090Y2721028D01*
G01X8939366Y2732690D01*
G01X8942501Y2744852D01*
G01X8944429Y2757448D01*
G01X8945086Y2770414D01*
G01X8944429Y2783381D01*
G01X8942501Y2795977D01*
G01X8939366Y2808138D01*
G01X8935090Y2819801D01*
G01X8929735Y2830900D01*
G01X8923366Y2841372D01*
G01X8916049Y2851151D01*
G01X8907846Y2860175D01*
G01X8898823Y2868377D01*
G01X8889043Y2875695D01*
G01X8878572Y2882063D01*
G01X8867472Y2887418D01*
G01X8855810Y2891695D01*
G01X8843648Y2894829D01*
G01X8831052Y2896757D01*
G01X8818086Y2897414D01*
G01X8805119Y2896757D01*
G01X8792523Y2894829D01*
G01X8780362Y2891695D01*
G01X8768699Y2887418D01*
G01X8757600Y2882063D01*
G01X8747128Y2875695D01*
G01X8737349Y2868377D01*
G01X8728325Y2860175D01*
G01X8720123Y2851151D01*
G01X8712805Y2841372D01*
G01X8706437Y2830900D01*
G01X8701082Y2819801D01*
G01X8696805Y2808138D01*
G01X8693670Y2795977D01*
G01X8691743Y2783381D01*
G01X8691086Y2770414D01*
G01X8665686Y2770414D01*
G01X8665884Y2778257D01*
G01X8666472Y2785998D01*
G01X8667442Y2793625D01*
G01X8668782Y2801130D01*
G01X8672537Y2815736D01*
G01X8677661Y2829738D01*
G01X8684078Y2843060D01*
G01X8691711Y2855626D01*
G01X8700484Y2867358D01*
G01X8710320Y2878180D01*
G01X8721142Y2888016D01*
G01X8732874Y2896789D01*
G01X8745440Y2904422D01*
G01X8758762Y2910839D01*
G01X8772764Y2915963D01*
G01X8787370Y2919718D01*
G01X8794875Y2921058D01*
G01X8802502Y2922028D01*
G01X8810243Y2922616D01*
G01X8818086Y2922814D01*
G01X8825929Y2922616D01*
G01X8833669Y2922028D01*
G01X8841296Y2921058D01*
G01X8848802Y2919718D01*
G01X8863408Y2915963D01*
G01X8877410Y2910839D01*
G01X8890732Y2904422D01*
G01X8903297Y2896789D01*
G01X8915029Y2888016D01*
G01X8925852Y2878180D01*
G01X8935687Y2867358D01*
G01X8944460Y2855626D01*
G01X8952093Y2843060D01*
G01X8958510Y2829738D01*
G01X8963635Y2815736D01*
G01X8967390Y2801130D01*
G01X8968730Y2793625D01*
G01X8969699Y2785998D01*
G01X8970287Y2778257D01*
G01X8970486Y2770414D01*
G01X8970287Y2762571D01*
G01X8969699Y2754831D01*
G01X8968730Y2747204D01*
G01X8967390Y2739698D01*
G01X8963635Y2725092D01*
G01X8958510Y2711090D01*
G01X8952093Y2697768D01*
G01X8944460Y2685203D01*
G01X8935687Y2673471D01*
G01X8925852Y2662648D01*
G01X8915029Y2652813D01*
G01X8903297Y2644040D01*
G01X8890732Y2636407D01*
G01X8877410Y2629990D01*
G01X8863408Y2624865D01*
G01X8848802Y2621110D01*
G01X8841296Y2619770D01*
G01X8833669Y2618801D01*
G37*
G36*
G01X8970486Y1181100D02*
G01X8900458Y1028700D01*
G01X8970486Y876300D01*
G01X8818086Y946328D01*
G01X8665686Y876300D01*
G01X8689448Y928014D01*
G01X8717400Y928014D01*
G01X8807469Y969416D01*
G01X8818086Y974293D01*
G01X8828703Y969416D01*
G01X8918771Y928014D01*
G01X8877369Y1018083D01*
G01X8872493Y1028700D01*
G01X8877369Y1039317D01*
G01X8918771Y1129386D01*
G01X8828703Y1087984D01*
G01X8818086Y1083107D01*
G01X8807469Y1087984D01*
G01X8717400Y1129386D01*
G01X8758802Y1039317D01*
G01X8763679Y1028700D01*
G01X8763679Y1028700D01*
G01X8758802Y1018083D01*
G01X8717400Y928014D01*
G01X8689448Y928014D01*
G01X8735714Y1028700D01*
G01X8665686Y1181100D01*
G01X8818086Y1111072D01*
G01X8970486Y1181100D01*
G37*
G36*
G01X8665686Y2342243D02*
G01X8970486Y2342243D01*
G01X8818086Y2078286D01*
G01X8680351Y2316843D01*
G01X8709679Y2316843D01*
G01X8818086Y2129086D01*
G01X8926493Y2316843D01*
G01X8926493Y2316843D01*
G01X8709679Y2316843D01*
G01X8680351Y2316843D01*
G01X8665686Y2342243D01*
G37*
G36*
G01X8665686Y3503386D02*
G01X8945086Y3503386D01*
G01X8945086Y3223986D01*
G01X8665686Y3223986D01*
G01X8665686Y3477986D01*
G01X8691086Y3477986D01*
G01X8691086Y3249386D01*
G01X8919686Y3249386D01*
G01X8919686Y3477986D01*
G01X8919686Y3477986D01*
G01X8691086Y3477986D01*
G01X8665686Y3477986D01*
G01X8665686Y3503386D01*
G37*

G04 PolygonModel Start*
G54D16*
G01X8375400Y745671D02*
G01X25088419Y745671D01*
G01X8375400Y1326243D02*
G01X25088419Y1326243D01*
G01X8375400Y1906814D02*
G01X25088419Y1906814D01*
G01X8375400Y2487386D02*
G01X25088419Y2487386D01*
G01X8375400Y3067957D02*
G01X25088419Y3067957D01*
G01X8375400Y3648529D02*
G01X25088419Y3648529D01*
G01X8375400Y4229100D02*
G01X25088419Y4229100D01*
G01X8375400Y4229100D02*
G01X8375400Y771071D01*
G01X9826829Y4229100D02*
G01X9826829Y771071D01*
G01X11240992Y4229100D02*
G01X11240992Y771071D01*
G01X15129115Y4229100D02*
G01X15129115Y771071D01*
G01X16590522Y4229100D02*
G01X16590522Y771071D01*
G01X18021703Y4229100D02*
G01X18021703Y771071D01*
G01X19690882Y4229100D02*
G01X19690882Y771071D01*
G01X21610251Y4229100D02*
G01X21610251Y771071D01*
G01X25088419Y4229100D02*
G01X25088419Y771071D01*

M02*

