G04 Layer: TopPasteMaskLayer*
G04 EasyEDA Pro v3.2.148, 2026-07-08 02:16:09*
G04 Gerber Generator version 0.3*
G04 Scale: 100 percent, Rotated: No, Reflected: No*
G04 Dimensions in millimeters*
G04 Leading zeros omitted, absolute positions, 4 integers and 5 decimals*
G04 Generated by one-click*
G04 Object Configs: Pad,Via,Track,Text,Image,Dimension,BoardOutline,BoardCutout,CopperFilled,SolidRegion,FPCStiffener,Line,PlaneZone,ComponentProperty,ComponentSilkscreen,TearDrop*
G04 Layer Configs: 1,2,3,4,5,6,7,8,9,10,11,13,14,56*
G04 Copper Areas: 0*
%FSLAX45Y45*%
%MOMM*%
%ADD10R,0.9X0.8*%
%ADD11R,0.8X0.9*%
%ADD12R,1.2X0.25001*%
%ADD13C,0.3552*%
G75*


G04 PolygonModel Start*
G36*
G01X462402Y718099D02*
G01X467401Y713097D01*
G01X467401Y633098D01*
G01X462402Y628099D01*
G01X382402Y628099D01*
G01X377401Y633098D01*
G01X377401Y657301D01*
G01X414401Y657301D01*
G01X414401Y690301D01*
G01X377401Y690301D01*
G01X377401Y713097D01*
G01X382402Y718099D01*
G01X462402Y718099D01*
G37*
G36*
G01X223398Y628101D02*
G01X218399Y633103D01*
G01X218399Y713102D01*
G01X223398Y718101D01*
G01X303398Y718101D01*
G01X308399Y713102D01*
G01X308399Y688899D01*
G01X271399Y688899D01*
G01X271399Y655899D01*
G01X308399Y655899D01*
G01X308399Y633103D01*
G01X303398Y628101D01*
G01X223398Y628101D01*
G37*
G36*
G01X487802Y1048299D02*
G01X492801Y1043297D01*
G01X492801Y963298D01*
G01X487802Y958299D01*
G01X407802Y958299D01*
G01X402801Y963298D01*
G01X402801Y987501D01*
G01X439801Y987501D01*
G01X439801Y1020501D01*
G01X402801Y1020501D01*
G01X402801Y1043297D01*
G01X407802Y1048299D01*
G01X487802Y1048299D01*
G37*
G36*
G01X248798Y958301D02*
G01X243799Y963303D01*
G01X243799Y1043302D01*
G01X248798Y1048301D01*
G01X328798Y1048301D01*
G01X333799Y1043302D01*
G01X333799Y1019099D01*
G01X296799Y1019099D01*
G01X296799Y986099D01*
G01X333799Y986099D01*
G01X333799Y963303D01*
G01X328798Y958301D01*
G01X248798Y958301D01*
G37*
G36*
G01X3930101Y3929502D02*
G01X3935103Y3934501D01*
G01X4015102Y3934501D01*
G01X4020101Y3929502D01*
G01X4020101Y3849502D01*
G01X4015102Y3844501D01*
G01X3990899Y3844501D01*
G01X3990899Y3881501D01*
G01X3957899Y3881501D01*
G01X3957899Y3844501D01*
G01X3935103Y3844501D01*
G01X3930101Y3849502D01*
G01X3930101Y3929502D01*
G37*
G36*
G01X4020099Y3690498D02*
G01X4015097Y3685499D01*
G01X3935098Y3685499D01*
G01X3930099Y3690498D01*
G01X3930099Y3770498D01*
G01X3935098Y3775499D01*
G01X3959301Y3775499D01*
G01X3959301Y3738499D01*
G01X3992301Y3738499D01*
G01X3992301Y3775499D01*
G01X4015097Y3775499D01*
G01X4020099Y3770498D01*
G01X4020099Y3690498D01*
G37*
G36*
G01X4171401Y3929502D02*
G01X4176403Y3934501D01*
G01X4256402Y3934501D01*
G01X4261401Y3929502D01*
G01X4261401Y3849502D01*
G01X4256402Y3844501D01*
G01X4232199Y3844501D01*
G01X4232199Y3881501D01*
G01X4199199Y3881501D01*
G01X4199199Y3844501D01*
G01X4176403Y3844501D01*
G01X4171401Y3849502D01*
G01X4171401Y3929502D01*
G37*
G36*
G01X4261399Y3690498D02*
G01X4256397Y3685499D01*
G01X4176398Y3685499D01*
G01X4171399Y3690498D01*
G01X4171399Y3770498D01*
G01X4176398Y3775499D01*
G01X4200601Y3775499D01*
G01X4200601Y3738499D01*
G01X4233601Y3738499D01*
G01X4233601Y3775499D01*
G01X4256397Y3775499D01*
G01X4261399Y3770498D01*
G01X4261399Y3690498D01*
G37*
G36*
G01X5073101Y3954902D02*
G01X5078103Y3959901D01*
G01X5158102Y3959901D01*
G01X5163101Y3954902D01*
G01X5163101Y3874902D01*
G01X5158102Y3869901D01*
G01X5133899Y3869901D01*
G01X5133899Y3906901D01*
G01X5100899Y3906901D01*
G01X5100899Y3869901D01*
G01X5078103Y3869901D01*
G01X5073101Y3874902D01*
G01X5073101Y3954902D01*
G37*
G36*
G01X5163099Y3715898D02*
G01X5158097Y3710899D01*
G01X5078098Y3710899D01*
G01X5073099Y3715898D01*
G01X5073099Y3795898D01*
G01X5078098Y3800899D01*
G01X5102301Y3800899D01*
G01X5102301Y3763899D01*
G01X5135301Y3763899D01*
G01X5135301Y3800899D01*
G01X5158097Y3800899D01*
G01X5163099Y3795898D01*
G01X5163099Y3715898D01*
G37*
G36*
G01X5327101Y3954902D02*
G01X5332103Y3959901D01*
G01X5412102Y3959901D01*
G01X5417101Y3954902D01*
G01X5417101Y3874902D01*
G01X5412102Y3869901D01*
G01X5387899Y3869901D01*
G01X5387899Y3906901D01*
G01X5354899Y3906901D01*
G01X5354899Y3869901D01*
G01X5332103Y3869901D01*
G01X5327101Y3874902D01*
G01X5327101Y3954902D01*
G37*
G36*
G01X5417099Y3715898D02*
G01X5412097Y3710899D01*
G01X5332098Y3710899D01*
G01X5327099Y3715898D01*
G01X5327099Y3795898D01*
G01X5332098Y3800899D01*
G01X5356301Y3800899D01*
G01X5356301Y3763899D01*
G01X5389301Y3763899D01*
G01X5389301Y3800899D01*
G01X5412097Y3800899D01*
G01X5417099Y3795898D01*
G01X5417099Y3715898D01*
G37*
G36*
G01X3988107Y3484504D02*
G01X3958105Y3484504D01*
G01X3958105Y3594504D01*
G01X3988107Y3594504D01*
G01X3988107Y3484504D01*
G37*
G36*
G01X4008117Y3594504D02*
G01X4038120Y3594504D01*
G01X4038120Y3484504D01*
G01X4008117Y3484504D01*
G01X4008117Y3594504D01*
G37*
G36*
G01X3498098Y3594504D02*
G01X3558098Y3594504D01*
G01X3558098Y3484504D01*
G01X3498098Y3484504D01*
G01X3498098Y3594504D01*
G37*
G36*
G01X3938095Y3484504D02*
G01X3908092Y3484504D01*
G01X3908092Y3594504D01*
G01X3938095Y3594504D01*
G01X3938095Y3484504D01*
G37*
G36*
G01X4058117Y3594504D02*
G01X4118117Y3594504D01*
G01X4118117Y3484504D01*
G01X4058117Y3484504D01*
G01X4058117Y3594504D01*
G37*
G36*
G01X4198102Y3484504D02*
G01X4138102Y3484504D01*
G01X4138102Y3594504D01*
G01X4198102Y3594504D01*
G01X4198102Y3484504D01*
G37*
G36*
G01X3888108Y3484504D02*
G01X3858105Y3484504D01*
G01X3858105Y3594504D01*
G01X3888108Y3594504D01*
G01X3888108Y3484504D01*
G37*
G36*
G01X3838095Y3484504D02*
G01X3808092Y3484504D01*
G01X3808092Y3594504D01*
G01X3838095Y3594504D01*
G01X3838095Y3484504D01*
G37*
G36*
G01X3578108Y3594504D02*
G01X3638108Y3594504D01*
G01X3638108Y3484504D01*
G01X3578108Y3484504D01*
G01X3578108Y3594504D01*
G37*
G36*
G01X3788108Y3484504D02*
G01X3758105Y3484504D01*
G01X3758105Y3594504D01*
G01X3788108Y3594504D01*
G01X3788108Y3484504D01*
G37*
G36*
G01X3738121Y3484504D02*
G01X3708118Y3484504D01*
G01X3708118Y3594504D01*
G01X3738121Y3594504D01*
G01X3738121Y3484504D01*
G37*
G36*
G01X3688108Y3484504D02*
G01X3658105Y3484504D01*
G01X3658105Y3594504D01*
G01X3688108Y3594504D01*
G01X3688108Y3484504D01*
G37*
G36*
G01X4285082Y3584344D02*
G01X4288058Y3584047D01*
G01X4291018Y3583600D01*
G01X4293949Y3583008D01*
G01X4296849Y3582269D01*
G01X4299707Y3581387D01*
G01X4302519Y3580364D01*
G01X4305275Y3579203D01*
G01X4307972Y3577905D01*
G01X4310598Y3576472D01*
G01X4313151Y3574913D01*
G01X4315623Y3573229D01*
G01X4318008Y3571420D01*
G01X4320299Y3569498D01*
G01X4322493Y3567463D01*
G01X4324581Y3565322D01*
G01X4326562Y3563079D01*
G01X4328427Y3560740D01*
G01X4330172Y3558311D01*
G01X4331795Y3555797D01*
G01X4333291Y3553206D01*
G01X4334657Y3550544D01*
G01X4335887Y3547819D01*
G01X4336979Y3545032D01*
G01X4337934Y3542198D01*
G01X4338744Y3539317D01*
G01X4339410Y3536401D01*
G01X4339928Y3533455D01*
G01X4340301Y3530486D01*
G01X4340525Y3527501D01*
G01X4340598Y3524512D01*
G01X4340598Y3444512D01*
G01X4340525Y3441522D01*
G01X4340301Y3438538D01*
G01X4339928Y3435568D01*
G01X4339410Y3432622D01*
G01X4338744Y3429706D01*
G01X4337934Y3426826D01*
G01X4336979Y3423991D01*
G01X4335887Y3421205D01*
G01X4334657Y3418479D01*
G01X4333291Y3415817D01*
G01X4331795Y3413227D01*
G01X4330172Y3410712D01*
G01X4328427Y3408284D01*
G01X4326562Y3405944D01*
G01X4324581Y3403702D01*
G01X4322493Y3401560D01*
G01X4320299Y3399526D01*
G01X4318008Y3397603D01*
G01X4315623Y3395795D01*
G01X4313151Y3394111D01*
G01X4310598Y3392551D01*
G01X4307972Y3391118D01*
G01X4305275Y3389821D01*
G01X4302519Y3388660D01*
G01X4299707Y3387636D01*
G01X4296849Y3386755D01*
G01X4293949Y3386016D01*
G01X4291018Y3385424D01*
G01X4288058Y3384977D01*
G01X4285082Y3384680D01*
G01X4282095Y3384530D01*
G01X4279102Y3384530D01*
G01X4276115Y3384680D01*
G01X4273139Y3384977D01*
G01X4270179Y3385424D01*
G01X4267248Y3386016D01*
G01X4264348Y3386755D01*
G01X4261490Y3387636D01*
G01X4258678Y3388660D01*
G01X4255922Y3389821D01*
G01X4253225Y3391118D01*
G01X4250599Y3392551D01*
G01X4248046Y3394111D01*
G01X4245574Y3395795D01*
G01X4243189Y3397603D01*
G01X4240898Y3399526D01*
G01X4238704Y3401560D01*
G01X4236616Y3403702D01*
G01X4234635Y3405944D01*
G01X4232770Y3408284D01*
G01X4231025Y3410712D01*
G01X4229402Y3413227D01*
G01X4227906Y3415817D01*
G01X4226540Y3418479D01*
G01X4225310Y3421205D01*
G01X4224218Y3423991D01*
G01X4223263Y3426826D01*
G01X4222453Y3429706D01*
G01X4221787Y3432622D01*
G01X4221269Y3435568D01*
G01X4220896Y3438538D01*
G01X4220672Y3441522D01*
G01X4220599Y3444512D01*
G01X4220599Y3524512D01*
G01X4220672Y3527501D01*
G01X4220896Y3530486D01*
G01X4221269Y3533455D01*
G01X4221787Y3536401D01*
G01X4222453Y3539317D01*
G01X4223263Y3542198D01*
G01X4224218Y3545032D01*
G01X4225310Y3547819D01*
G01X4226540Y3550544D01*
G01X4227906Y3553206D01*
G01X4229402Y3555797D01*
G01X4231025Y3558311D01*
G01X4232770Y3560740D01*
G01X4234635Y3563079D01*
G01X4236616Y3565322D01*
G01X4238704Y3567463D01*
G01X4240898Y3569498D01*
G01X4243189Y3571420D01*
G01X4245574Y3573229D01*
G01X4248046Y3574913D01*
G01X4250599Y3576472D01*
G01X4253225Y3577905D01*
G01X4255922Y3579203D01*
G01X4258678Y3580364D01*
G01X4261490Y3581387D01*
G01X4264348Y3582269D01*
G01X4267248Y3583008D01*
G01X4270179Y3583600D01*
G01X4273139Y3584047D01*
G01X4276115Y3584344D01*
G01X4279102Y3584494D01*
G01X4282095Y3584494D01*
G01X4285082Y3584344D01*
G37*
G36*
G01X3414105Y3584494D02*
G01X3417098Y3584494D01*
G01X3420085Y3584344D01*
G01X3423061Y3584047D01*
G01X3426021Y3583600D01*
G01X3428952Y3583008D01*
G01X3431852Y3582269D01*
G01X3434710Y3581387D01*
G01X3437522Y3580364D01*
G01X3440278Y3579203D01*
G01X3442975Y3577905D01*
G01X3445601Y3576472D01*
G01X3448154Y3574913D01*
G01X3450626Y3573229D01*
G01X3453011Y3571420D01*
G01X3455302Y3569498D01*
G01X3457496Y3567463D01*
G01X3459584Y3565322D01*
G01X3461565Y3563079D01*
G01X3463430Y3560740D01*
G01X3465175Y3558311D01*
G01X3466798Y3555797D01*
G01X3468294Y3553206D01*
G01X3469660Y3550544D01*
G01X3470890Y3547819D01*
G01X3471982Y3545032D01*
G01X3472937Y3542198D01*
G01X3473747Y3539317D01*
G01X3474413Y3536401D01*
G01X3474931Y3533455D01*
G01X3475304Y3530486D01*
G01X3475528Y3527501D01*
G01X3475601Y3524512D01*
G01X3475601Y3444512D01*
G01X3475528Y3441522D01*
G01X3475304Y3438538D01*
G01X3474931Y3435568D01*
G01X3474413Y3432622D01*
G01X3473747Y3429706D01*
G01X3472937Y3426826D01*
G01X3471982Y3423991D01*
G01X3470890Y3421205D01*
G01X3469660Y3418479D01*
G01X3468294Y3415817D01*
G01X3466798Y3413227D01*
G01X3465175Y3410712D01*
G01X3463430Y3408284D01*
G01X3461565Y3405944D01*
G01X3459584Y3403702D01*
G01X3457496Y3401560D01*
G01X3455302Y3399526D01*
G01X3453011Y3397603D01*
G01X3450626Y3395795D01*
G01X3448154Y3394111D01*
G01X3445601Y3392551D01*
G01X3442975Y3391118D01*
G01X3440278Y3389821D01*
G01X3437522Y3388660D01*
G01X3434710Y3387636D01*
G01X3431852Y3386755D01*
G01X3428952Y3386016D01*
G01X3426021Y3385424D01*
G01X3423061Y3384977D01*
G01X3420085Y3384680D01*
G01X3417098Y3384530D01*
G01X3414105Y3384530D01*
G01X3411118Y3384680D01*
G01X3408142Y3384977D01*
G01X3405182Y3385424D01*
G01X3402251Y3386016D01*
G01X3399351Y3386755D01*
G01X3396493Y3387636D01*
G01X3393681Y3388660D01*
G01X3390925Y3389821D01*
G01X3388228Y3391118D01*
G01X3385602Y3392551D01*
G01X3383049Y3394111D01*
G01X3380577Y3395795D01*
G01X3378192Y3397603D01*
G01X3375901Y3399526D01*
G01X3373707Y3401560D01*
G01X3371619Y3403702D01*
G01X3369638Y3405944D01*
G01X3367773Y3408284D01*
G01X3366028Y3410712D01*
G01X3364405Y3413227D01*
G01X3362909Y3415817D01*
G01X3361543Y3418479D01*
G01X3360313Y3421205D01*
G01X3359221Y3423991D01*
G01X3358266Y3426826D01*
G01X3357456Y3429706D01*
G01X3356790Y3432622D01*
G01X3356272Y3435568D01*
G01X3355899Y3438538D01*
G01X3355675Y3441522D01*
G01X3355602Y3444512D01*
G01X3355602Y3524512D01*
G01X3355675Y3527501D01*
G01X3355899Y3530486D01*
G01X3356272Y3533455D01*
G01X3356790Y3536401D01*
G01X3357456Y3539317D01*
G01X3358266Y3542198D01*
G01X3359221Y3545032D01*
G01X3360313Y3547819D01*
G01X3361543Y3550544D01*
G01X3362909Y3553206D01*
G01X3364405Y3555797D01*
G01X3366028Y3558311D01*
G01X3367773Y3560740D01*
G01X3369638Y3563079D01*
G01X3371619Y3565322D01*
G01X3373707Y3567463D01*
G01X3375901Y3569498D01*
G01X3378192Y3571420D01*
G01X3380577Y3573229D01*
G01X3383049Y3574913D01*
G01X3385602Y3576472D01*
G01X3388228Y3577905D01*
G01X3390925Y3579203D01*
G01X3393681Y3580364D01*
G01X3396493Y3581387D01*
G01X3399351Y3582269D01*
G01X3402251Y3583008D01*
G01X3405182Y3583600D01*
G01X3408142Y3584047D01*
G01X3411118Y3584344D01*
G01X3414105Y3584494D01*
G37*
G36*
G01X3420085Y3139328D02*
G01X3423061Y3139031D01*
G01X3426021Y3138584D01*
G01X3428952Y3137992D01*
G01X3431852Y3137253D01*
G01X3434710Y3136372D01*
G01X3437522Y3135348D01*
G01X3440278Y3134187D01*
G01X3442975Y3132889D01*
G01X3445601Y3131457D01*
G01X3448154Y3129897D01*
G01X3450626Y3128213D01*
G01X3453011Y3126405D01*
G01X3455302Y3124482D01*
G01X3457496Y3122447D01*
G01X3459584Y3120306D01*
G01X3461565Y3118063D01*
G01X3463430Y3115724D01*
G01X3465175Y3113296D01*
G01X3466798Y3110781D01*
G01X3468294Y3108190D01*
G01X3469660Y3105528D01*
G01X3470890Y3102803D01*
G01X3471982Y3100017D01*
G01X3472937Y3097182D01*
G01X3473747Y3094302D01*
G01X3474413Y3091386D01*
G01X3474931Y3088439D01*
G01X3475304Y3085470D01*
G01X3475528Y3082486D01*
G01X3475601Y3079496D01*
G01X3475601Y3049496D01*
G01X3475528Y3046506D01*
G01X3475304Y3043522D01*
G01X3474931Y3040553D01*
G01X3474413Y3037606D01*
G01X3473747Y3034690D01*
G01X3472937Y3031810D01*
G01X3471982Y3028975D01*
G01X3470890Y3026189D01*
G01X3469660Y3023464D01*
G01X3468294Y3020802D01*
G01X3466798Y3018211D01*
G01X3465175Y3015696D01*
G01X3463430Y3013268D01*
G01X3461565Y3010929D01*
G01X3459584Y3008686D01*
G01X3457496Y3006545D01*
G01X3455302Y3004510D01*
G01X3453011Y3002587D01*
G01X3450626Y3000779D01*
G01X3448154Y2999095D01*
G01X3445601Y2997535D01*
G01X3442975Y2996103D01*
G01X3440278Y2994805D01*
G01X3437522Y2993644D01*
G01X3434710Y2992620D01*
G01X3431852Y2991739D01*
G01X3428952Y2991000D01*
G01X3426021Y2990408D01*
G01X3423061Y2989961D01*
G01X3420085Y2989664D01*
G01X3417098Y2989514D01*
G01X3414105Y2989514D01*
G01X3411118Y2989664D01*
G01X3408142Y2989961D01*
G01X3405182Y2990408D01*
G01X3402251Y2991000D01*
G01X3399351Y2991739D01*
G01X3396493Y2992620D01*
G01X3393681Y2993644D01*
G01X3390925Y2994805D01*
G01X3388228Y2996103D01*
G01X3385602Y2997535D01*
G01X3383049Y2999095D01*
G01X3380577Y3000779D01*
G01X3378192Y3002587D01*
G01X3375901Y3004510D01*
G01X3373707Y3006545D01*
G01X3371619Y3008686D01*
G01X3369638Y3010929D01*
G01X3367773Y3013268D01*
G01X3366028Y3015696D01*
G01X3364405Y3018211D01*
G01X3362909Y3020802D01*
G01X3361543Y3023464D01*
G01X3360313Y3026189D01*
G01X3359221Y3028975D01*
G01X3358266Y3031810D01*
G01X3357456Y3034690D01*
G01X3356790Y3037606D01*
G01X3356272Y3040553D01*
G01X3355899Y3043522D01*
G01X3355675Y3046506D01*
G01X3355602Y3049496D01*
G01X3355602Y3079496D01*
G01X3355675Y3082486D01*
G01X3355899Y3085470D01*
G01X3356272Y3088439D01*
G01X3356790Y3091386D01*
G01X3357456Y3094302D01*
G01X3358266Y3097182D01*
G01X3359221Y3100017D01*
G01X3360313Y3102803D01*
G01X3361543Y3105528D01*
G01X3362909Y3108190D01*
G01X3364405Y3110781D01*
G01X3366028Y3113296D01*
G01X3367773Y3115724D01*
G01X3369638Y3118063D01*
G01X3371619Y3120306D01*
G01X3373707Y3122447D01*
G01X3375901Y3124482D01*
G01X3378192Y3126405D01*
G01X3380577Y3128213D01*
G01X3383049Y3129897D01*
G01X3385602Y3131457D01*
G01X3388228Y3132889D01*
G01X3390925Y3134187D01*
G01X3393681Y3135348D01*
G01X3396493Y3136372D01*
G01X3399351Y3137253D01*
G01X3402251Y3137992D01*
G01X3405182Y3138584D01*
G01X3408142Y3139031D01*
G01X3411118Y3139328D01*
G01X3414105Y3139478D01*
G01X3417098Y3139478D01*
G01X3420085Y3139328D01*
G37*
G36*
G01X4279102Y3139478D02*
G01X4282095Y3139478D01*
G01X4285082Y3139328D01*
G01X4288058Y3139031D01*
G01X4291018Y3138584D01*
G01X4293949Y3137992D01*
G01X4296849Y3137253D01*
G01X4299707Y3136372D01*
G01X4302519Y3135348D01*
G01X4305275Y3134187D01*
G01X4307972Y3132889D01*
G01X4310598Y3131457D01*
G01X4313151Y3129897D01*
G01X4315623Y3128213D01*
G01X4318008Y3126405D01*
G01X4320299Y3124482D01*
G01X4322493Y3122447D01*
G01X4324581Y3120306D01*
G01X4326562Y3118063D01*
G01X4328427Y3115724D01*
G01X4330172Y3113296D01*
G01X4331795Y3110781D01*
G01X4333291Y3108190D01*
G01X4334657Y3105528D01*
G01X4335887Y3102803D01*
G01X4336979Y3100017D01*
G01X4337934Y3097182D01*
G01X4338744Y3094302D01*
G01X4339410Y3091386D01*
G01X4339928Y3088439D01*
G01X4340301Y3085470D01*
G01X4340525Y3082486D01*
G01X4340598Y3079496D01*
G01X4340598Y3049496D01*
G01X4340525Y3046506D01*
G01X4340301Y3043522D01*
G01X4339928Y3040553D01*
G01X4339410Y3037606D01*
G01X4338744Y3034690D01*
G01X4337934Y3031810D01*
G01X4336979Y3028975D01*
G01X4335887Y3026189D01*
G01X4334657Y3023464D01*
G01X4333291Y3020802D01*
G01X4331795Y3018211D01*
G01X4330172Y3015696D01*
G01X4328427Y3013268D01*
G01X4326562Y3010929D01*
G01X4324581Y3008686D01*
G01X4322493Y3006545D01*
G01X4320299Y3004510D01*
G01X4318008Y3002587D01*
G01X4315623Y3000779D01*
G01X4313151Y2999095D01*
G01X4310598Y2997535D01*
G01X4307972Y2996103D01*
G01X4305275Y2994805D01*
G01X4302519Y2993644D01*
G01X4299707Y2992620D01*
G01X4296849Y2991739D01*
G01X4293949Y2991000D01*
G01X4291018Y2990408D01*
G01X4288058Y2989961D01*
G01X4285082Y2989664D01*
G01X4282095Y2989514D01*
G01X4279102Y2989514D01*
G01X4276115Y2989664D01*
G01X4273139Y2989961D01*
G01X4270179Y2990408D01*
G01X4267248Y2991000D01*
G01X4264348Y2991739D01*
G01X4261490Y2992620D01*
G01X4258678Y2993644D01*
G01X4255922Y2994805D01*
G01X4253225Y2996103D01*
G01X4250599Y2997535D01*
G01X4248046Y2999095D01*
G01X4245574Y3000779D01*
G01X4243189Y3002587D01*
G01X4240898Y3004510D01*
G01X4238704Y3006545D01*
G01X4236616Y3008686D01*
G01X4234635Y3010929D01*
G01X4232770Y3013268D01*
G01X4231025Y3015696D01*
G01X4229402Y3018211D01*
G01X4227906Y3020802D01*
G01X4226540Y3023464D01*
G01X4225310Y3026189D01*
G01X4224218Y3028975D01*
G01X4223263Y3031810D01*
G01X4222453Y3034690D01*
G01X4221787Y3037606D01*
G01X4221269Y3040553D01*
G01X4220896Y3043522D01*
G01X4220672Y3046506D01*
G01X4220599Y3049496D01*
G01X4220599Y3079496D01*
G01X4220672Y3082486D01*
G01X4220896Y3085470D01*
G01X4221269Y3088439D01*
G01X4221787Y3091386D01*
G01X4222453Y3094302D01*
G01X4223263Y3097182D01*
G01X4224218Y3100017D01*
G01X4225310Y3102803D01*
G01X4226540Y3105528D01*
G01X4227906Y3108190D01*
G01X4229402Y3110781D01*
G01X4231025Y3113296D01*
G01X4232770Y3115724D01*
G01X4234635Y3118063D01*
G01X4236616Y3120306D01*
G01X4238704Y3122447D01*
G01X4240898Y3124482D01*
G01X4243189Y3126405D01*
G01X4245574Y3128213D01*
G01X4248046Y3129897D01*
G01X4250599Y3131457D01*
G01X4253225Y3132889D01*
G01X4255922Y3134187D01*
G01X4258678Y3135348D01*
G01X4261490Y3136372D01*
G01X4264348Y3137253D01*
G01X4267248Y3137992D01*
G01X4270179Y3138584D01*
G01X4273139Y3139031D01*
G01X4276115Y3139328D01*
G01X4279102Y3139478D01*
G37*
G36*
G01X5474007Y3509904D02*
G01X5444005Y3509904D01*
G01X5444005Y3619904D01*
G01X5474007Y3619904D01*
G01X5474007Y3509904D01*
G37*
G36*
G01X5494017Y3619904D02*
G01X5524020Y3619904D01*
G01X5524020Y3509904D01*
G01X5494017Y3509904D01*
G01X5494017Y3619904D01*
G37*
G36*
G01X4983998Y3619904D02*
G01X5043998Y3619904D01*
G01X5043998Y3509904D01*
G01X4983998Y3509904D01*
G01X4983998Y3619904D01*
G37*
G36*
G01X5423995Y3509904D02*
G01X5393992Y3509904D01*
G01X5393992Y3619904D01*
G01X5423995Y3619904D01*
G01X5423995Y3509904D01*
G37*
G36*
G01X5544017Y3619904D02*
G01X5604017Y3619904D01*
G01X5604017Y3509904D01*
G01X5544017Y3509904D01*
G01X5544017Y3619904D01*
G37*
G36*
G01X5684002Y3509904D02*
G01X5624002Y3509904D01*
G01X5624002Y3619904D01*
G01X5684002Y3619904D01*
G01X5684002Y3509904D01*
G37*
G36*
G01X5374008Y3509904D02*
G01X5344005Y3509904D01*
G01X5344005Y3619904D01*
G01X5374008Y3619904D01*
G01X5374008Y3509904D01*
G37*
G36*
G01X5323995Y3509904D02*
G01X5293992Y3509904D01*
G01X5293992Y3619904D01*
G01X5323995Y3619904D01*
G01X5323995Y3509904D01*
G37*
G36*
G01X5064008Y3619904D02*
G01X5124008Y3619904D01*
G01X5124008Y3509904D01*
G01X5064008Y3509904D01*
G01X5064008Y3619904D01*
G37*
G36*
G01X5274008Y3509904D02*
G01X5244005Y3509904D01*
G01X5244005Y3619904D01*
G01X5274008Y3619904D01*
G01X5274008Y3509904D01*
G37*
G36*
G01X5224021Y3509904D02*
G01X5194018Y3509904D01*
G01X5194018Y3619904D01*
G01X5224021Y3619904D01*
G01X5224021Y3509904D01*
G37*
G36*
G01X5174008Y3509904D02*
G01X5144005Y3509904D01*
G01X5144005Y3619904D01*
G01X5174008Y3619904D01*
G01X5174008Y3509904D01*
G37*
G36*
G01X5770982Y3609744D02*
G01X5773958Y3609447D01*
G01X5776918Y3609000D01*
G01X5779849Y3608408D01*
G01X5782749Y3607669D01*
G01X5785607Y3606787D01*
G01X5788419Y3605764D01*
G01X5791175Y3604603D01*
G01X5793872Y3603305D01*
G01X5796498Y3601872D01*
G01X5799051Y3600313D01*
G01X5801523Y3598629D01*
G01X5803908Y3596820D01*
G01X5806199Y3594898D01*
G01X5808393Y3592863D01*
G01X5810481Y3590722D01*
G01X5812462Y3588479D01*
G01X5814327Y3586140D01*
G01X5816072Y3583711D01*
G01X5817695Y3581197D01*
G01X5819191Y3578606D01*
G01X5820557Y3575944D01*
G01X5821787Y3573219D01*
G01X5822879Y3570432D01*
G01X5823834Y3567598D01*
G01X5824644Y3564717D01*
G01X5825310Y3561801D01*
G01X5825828Y3558855D01*
G01X5826201Y3555886D01*
G01X5826425Y3552901D01*
G01X5826498Y3549912D01*
G01X5826498Y3469912D01*
G01X5826425Y3466922D01*
G01X5826201Y3463938D01*
G01X5825828Y3460968D01*
G01X5825310Y3458022D01*
G01X5824644Y3455106D01*
G01X5823834Y3452226D01*
G01X5822879Y3449391D01*
G01X5821787Y3446605D01*
G01X5820557Y3443879D01*
G01X5819191Y3441217D01*
G01X5817695Y3438627D01*
G01X5816072Y3436112D01*
G01X5814327Y3433684D01*
G01X5812462Y3431344D01*
G01X5810481Y3429102D01*
G01X5808393Y3426960D01*
G01X5806199Y3424926D01*
G01X5803908Y3423003D01*
G01X5801523Y3421195D01*
G01X5799051Y3419511D01*
G01X5796498Y3417951D01*
G01X5793872Y3416518D01*
G01X5791175Y3415221D01*
G01X5788419Y3414060D01*
G01X5785607Y3413036D01*
G01X5782749Y3412155D01*
G01X5779849Y3411416D01*
G01X5776918Y3410824D01*
G01X5773958Y3410377D01*
G01X5770982Y3410080D01*
G01X5767995Y3409930D01*
G01X5765002Y3409930D01*
G01X5762015Y3410080D01*
G01X5759039Y3410377D01*
G01X5756079Y3410824D01*
G01X5753148Y3411416D01*
G01X5750248Y3412155D01*
G01X5747390Y3413036D01*
G01X5744578Y3414060D01*
G01X5741822Y3415221D01*
G01X5739125Y3416518D01*
G01X5736499Y3417951D01*
G01X5733946Y3419511D01*
G01X5731474Y3421195D01*
G01X5729089Y3423003D01*
G01X5726798Y3424926D01*
G01X5724604Y3426960D01*
G01X5722516Y3429102D01*
G01X5720535Y3431344D01*
G01X5718670Y3433684D01*
G01X5716925Y3436112D01*
G01X5715302Y3438627D01*
G01X5713806Y3441217D01*
G01X5712440Y3443879D01*
G01X5711210Y3446605D01*
G01X5710118Y3449391D01*
G01X5709163Y3452226D01*
G01X5708353Y3455106D01*
G01X5707687Y3458022D01*
G01X5707169Y3460968D01*
G01X5706796Y3463938D01*
G01X5706572Y3466922D01*
G01X5706499Y3469912D01*
G01X5706499Y3549912D01*
G01X5706572Y3552901D01*
G01X5706796Y3555886D01*
G01X5707169Y3558855D01*
G01X5707687Y3561801D01*
G01X5708353Y3564717D01*
G01X5709163Y3567598D01*
G01X5710118Y3570432D01*
G01X5711210Y3573219D01*
G01X5712440Y3575944D01*
G01X5713806Y3578606D01*
G01X5715302Y3581197D01*
G01X5716925Y3583711D01*
G01X5718670Y3586140D01*
G01X5720535Y3588479D01*
G01X5722516Y3590722D01*
G01X5724604Y3592863D01*
G01X5726798Y3594898D01*
G01X5729089Y3596820D01*
G01X5731474Y3598629D01*
G01X5733946Y3600313D01*
G01X5736499Y3601872D01*
G01X5739125Y3603305D01*
G01X5741822Y3604603D01*
G01X5744578Y3605764D01*
G01X5747390Y3606787D01*
G01X5750248Y3607669D01*
G01X5753148Y3608408D01*
G01X5756079Y3609000D01*
G01X5759039Y3609447D01*
G01X5762015Y3609744D01*
G01X5765002Y3609894D01*
G01X5767995Y3609894D01*
G01X5770982Y3609744D01*
G37*
G36*
G01X4900005Y3609894D02*
G01X4902998Y3609894D01*
G01X4905985Y3609744D01*
G01X4908961Y3609447D01*
G01X4911921Y3609000D01*
G01X4914852Y3608408D01*
G01X4917752Y3607669D01*
G01X4920610Y3606787D01*
G01X4923422Y3605764D01*
G01X4926178Y3604603D01*
G01X4928875Y3603305D01*
G01X4931501Y3601872D01*
G01X4934054Y3600313D01*
G01X4936526Y3598629D01*
G01X4938911Y3596820D01*
G01X4941202Y3594898D01*
G01X4943396Y3592863D01*
G01X4945484Y3590722D01*
G01X4947465Y3588479D01*
G01X4949330Y3586140D01*
G01X4951075Y3583711D01*
G01X4952698Y3581197D01*
G01X4954194Y3578606D01*
G01X4955560Y3575944D01*
G01X4956790Y3573219D01*
G01X4957882Y3570432D01*
G01X4958837Y3567598D01*
G01X4959647Y3564717D01*
G01X4960313Y3561801D01*
G01X4960831Y3558855D01*
G01X4961204Y3555886D01*
G01X4961428Y3552901D01*
G01X4961501Y3549912D01*
G01X4961501Y3469912D01*
G01X4961428Y3466922D01*
G01X4961204Y3463938D01*
G01X4960831Y3460968D01*
G01X4960313Y3458022D01*
G01X4959647Y3455106D01*
G01X4958837Y3452226D01*
G01X4957882Y3449391D01*
G01X4956790Y3446605D01*
G01X4955560Y3443879D01*
G01X4954194Y3441217D01*
G01X4952698Y3438627D01*
G01X4951075Y3436112D01*
G01X4949330Y3433684D01*
G01X4947465Y3431344D01*
G01X4945484Y3429102D01*
G01X4943396Y3426960D01*
G01X4941202Y3424926D01*
G01X4938911Y3423003D01*
G01X4936526Y3421195D01*
G01X4934054Y3419511D01*
G01X4931501Y3417951D01*
G01X4928875Y3416518D01*
G01X4926178Y3415221D01*
G01X4923422Y3414060D01*
G01X4920610Y3413036D01*
G01X4917752Y3412155D01*
G01X4914852Y3411416D01*
G01X4911921Y3410824D01*
G01X4908961Y3410377D01*
G01X4905985Y3410080D01*
G01X4902998Y3409930D01*
G01X4900005Y3409930D01*
G01X4897018Y3410080D01*
G01X4894042Y3410377D01*
G01X4891082Y3410824D01*
G01X4888151Y3411416D01*
G01X4885251Y3412155D01*
G01X4882393Y3413036D01*
G01X4879581Y3414060D01*
G01X4876825Y3415221D01*
G01X4874128Y3416518D01*
G01X4871502Y3417951D01*
G01X4868949Y3419511D01*
G01X4866477Y3421195D01*
G01X4864092Y3423003D01*
G01X4861801Y3424926D01*
G01X4859607Y3426960D01*
G01X4857519Y3429102D01*
G01X4855538Y3431344D01*
G01X4853673Y3433684D01*
G01X4851928Y3436112D01*
G01X4850305Y3438627D01*
G01X4848809Y3441217D01*
G01X4847443Y3443879D01*
G01X4846213Y3446605D01*
G01X4845121Y3449391D01*
G01X4844166Y3452226D01*
G01X4843356Y3455106D01*
G01X4842690Y3458022D01*
G01X4842172Y3460968D01*
G01X4841799Y3463938D01*
G01X4841575Y3466922D01*
G01X4841502Y3469912D01*
G01X4841502Y3549912D01*
G01X4841575Y3552901D01*
G01X4841799Y3555886D01*
G01X4842172Y3558855D01*
G01X4842690Y3561801D01*
G01X4843356Y3564717D01*
G01X4844166Y3567598D01*
G01X4845121Y3570432D01*
G01X4846213Y3573219D01*
G01X4847443Y3575944D01*
G01X4848809Y3578606D01*
G01X4850305Y3581197D01*
G01X4851928Y3583711D01*
G01X4853673Y3586140D01*
G01X4855538Y3588479D01*
G01X4857519Y3590722D01*
G01X4859607Y3592863D01*
G01X4861801Y3594898D01*
G01X4864092Y3596820D01*
G01X4866477Y3598629D01*
G01X4868949Y3600313D01*
G01X4871502Y3601872D01*
G01X4874128Y3603305D01*
G01X4876825Y3604603D01*
G01X4879581Y3605764D01*
G01X4882393Y3606787D01*
G01X4885251Y3607669D01*
G01X4888151Y3608408D01*
G01X4891082Y3609000D01*
G01X4894042Y3609447D01*
G01X4897018Y3609744D01*
G01X4900005Y3609894D01*
G37*
G36*
G01X4905985Y3164728D02*
G01X4908961Y3164431D01*
G01X4911921Y3163984D01*
G01X4914852Y3163392D01*
G01X4917752Y3162653D01*
G01X4920610Y3161772D01*
G01X4923422Y3160748D01*
G01X4926178Y3159587D01*
G01X4928875Y3158289D01*
G01X4931501Y3156857D01*
G01X4934054Y3155297D01*
G01X4936526Y3153613D01*
G01X4938911Y3151805D01*
G01X4941202Y3149882D01*
G01X4943396Y3147847D01*
G01X4945484Y3145706D01*
G01X4947465Y3143463D01*
G01X4949330Y3141124D01*
G01X4951075Y3138696D01*
G01X4952698Y3136181D01*
G01X4954194Y3133590D01*
G01X4955560Y3130928D01*
G01X4956790Y3128203D01*
G01X4957882Y3125417D01*
G01X4958837Y3122582D01*
G01X4959647Y3119702D01*
G01X4960313Y3116786D01*
G01X4960831Y3113839D01*
G01X4961204Y3110870D01*
G01X4961428Y3107886D01*
G01X4961501Y3104896D01*
G01X4961501Y3074896D01*
G01X4961428Y3071906D01*
G01X4961204Y3068922D01*
G01X4960831Y3065953D01*
G01X4960313Y3063006D01*
G01X4959647Y3060090D01*
G01X4958837Y3057210D01*
G01X4957882Y3054375D01*
G01X4956790Y3051589D01*
G01X4955560Y3048864D01*
G01X4954194Y3046202D01*
G01X4952698Y3043611D01*
G01X4951075Y3041096D01*
G01X4949330Y3038668D01*
G01X4947465Y3036329D01*
G01X4945484Y3034086D01*
G01X4943396Y3031945D01*
G01X4941202Y3029910D01*
G01X4938911Y3027987D01*
G01X4936526Y3026179D01*
G01X4934054Y3024495D01*
G01X4931501Y3022935D01*
G01X4928875Y3021503D01*
G01X4926178Y3020205D01*
G01X4923422Y3019044D01*
G01X4920610Y3018020D01*
G01X4917752Y3017139D01*
G01X4914852Y3016400D01*
G01X4911921Y3015808D01*
G01X4908961Y3015361D01*
G01X4905985Y3015064D01*
G01X4902998Y3014914D01*
G01X4900005Y3014914D01*
G01X4897018Y3015064D01*
G01X4894042Y3015361D01*
G01X4891082Y3015808D01*
G01X4888151Y3016400D01*
G01X4885251Y3017139D01*
G01X4882393Y3018020D01*
G01X4879581Y3019044D01*
G01X4876825Y3020205D01*
G01X4874128Y3021503D01*
G01X4871502Y3022935D01*
G01X4868949Y3024495D01*
G01X4866477Y3026179D01*
G01X4864092Y3027987D01*
G01X4861801Y3029910D01*
G01X4859607Y3031945D01*
G01X4857519Y3034086D01*
G01X4855538Y3036329D01*
G01X4853673Y3038668D01*
G01X4851928Y3041096D01*
G01X4850305Y3043611D01*
G01X4848809Y3046202D01*
G01X4847443Y3048864D01*
G01X4846213Y3051589D01*
G01X4845121Y3054375D01*
G01X4844166Y3057210D01*
G01X4843356Y3060090D01*
G01X4842690Y3063006D01*
G01X4842172Y3065953D01*
G01X4841799Y3068922D01*
G01X4841575Y3071906D01*
G01X4841502Y3074896D01*
G01X4841502Y3104896D01*
G01X4841575Y3107886D01*
G01X4841799Y3110870D01*
G01X4842172Y3113839D01*
G01X4842690Y3116786D01*
G01X4843356Y3119702D01*
G01X4844166Y3122582D01*
G01X4845121Y3125417D01*
G01X4846213Y3128203D01*
G01X4847443Y3130928D01*
G01X4848809Y3133590D01*
G01X4850305Y3136181D01*
G01X4851928Y3138696D01*
G01X4853673Y3141124D01*
G01X4855538Y3143463D01*
G01X4857519Y3145706D01*
G01X4859607Y3147847D01*
G01X4861801Y3149882D01*
G01X4864092Y3151805D01*
G01X4866477Y3153613D01*
G01X4868949Y3155297D01*
G01X4871502Y3156857D01*
G01X4874128Y3158289D01*
G01X4876825Y3159587D01*
G01X4879581Y3160748D01*
G01X4882393Y3161772D01*
G01X4885251Y3162653D01*
G01X4888151Y3163392D01*
G01X4891082Y3163984D01*
G01X4894042Y3164431D01*
G01X4897018Y3164728D01*
G01X4900005Y3164878D01*
G01X4902998Y3164878D01*
G01X4905985Y3164728D01*
G37*
G36*
G01X5765002Y3164878D02*
G01X5767995Y3164878D01*
G01X5770982Y3164728D01*
G01X5773958Y3164431D01*
G01X5776918Y3163984D01*
G01X5779849Y3163392D01*
G01X5782749Y3162653D01*
G01X5785607Y3161772D01*
G01X5788419Y3160748D01*
G01X5791175Y3159587D01*
G01X5793872Y3158289D01*
G01X5796498Y3156857D01*
G01X5799051Y3155297D01*
G01X5801523Y3153613D01*
G01X5803908Y3151805D01*
G01X5806199Y3149882D01*
G01X5808393Y3147847D01*
G01X5810481Y3145706D01*
G01X5812462Y3143463D01*
G01X5814327Y3141124D01*
G01X5816072Y3138696D01*
G01X5817695Y3136181D01*
G01X5819191Y3133590D01*
G01X5820557Y3130928D01*
G01X5821787Y3128203D01*
G01X5822879Y3125417D01*
G01X5823834Y3122582D01*
G01X5824644Y3119702D01*
G01X5825310Y3116786D01*
G01X5825828Y3113839D01*
G01X5826201Y3110870D01*
G01X5826425Y3107886D01*
G01X5826498Y3104896D01*
G01X5826498Y3074896D01*
G01X5826425Y3071906D01*
G01X5826201Y3068922D01*
G01X5825828Y3065953D01*
G01X5825310Y3063006D01*
G01X5824644Y3060090D01*
G01X5823834Y3057210D01*
G01X5822879Y3054375D01*
G01X5821787Y3051589D01*
G01X5820557Y3048864D01*
G01X5819191Y3046202D01*
G01X5817695Y3043611D01*
G01X5816072Y3041096D01*
G01X5814327Y3038668D01*
G01X5812462Y3036329D01*
G01X5810481Y3034086D01*
G01X5808393Y3031945D01*
G01X5806199Y3029910D01*
G01X5803908Y3027987D01*
G01X5801523Y3026179D01*
G01X5799051Y3024495D01*
G01X5796498Y3022935D01*
G01X5793872Y3021503D01*
G01X5791175Y3020205D01*
G01X5788419Y3019044D01*
G01X5785607Y3018020D01*
G01X5782749Y3017139D01*
G01X5779849Y3016400D01*
G01X5776918Y3015808D01*
G01X5773958Y3015361D01*
G01X5770982Y3015064D01*
G01X5767995Y3014914D01*
G01X5765002Y3014914D01*
G01X5762015Y3015064D01*
G01X5759039Y3015361D01*
G01X5756079Y3015808D01*
G01X5753148Y3016400D01*
G01X5750248Y3017139D01*
G01X5747390Y3018020D01*
G01X5744578Y3019044D01*
G01X5741822Y3020205D01*
G01X5739125Y3021503D01*
G01X5736499Y3022935D01*
G01X5733946Y3024495D01*
G01X5731474Y3026179D01*
G01X5729089Y3027987D01*
G01X5726798Y3029910D01*
G01X5724604Y3031945D01*
G01X5722516Y3034086D01*
G01X5720535Y3036329D01*
G01X5718670Y3038668D01*
G01X5716925Y3041096D01*
G01X5715302Y3043611D01*
G01X5713806Y3046202D01*
G01X5712440Y3048864D01*
G01X5711210Y3051589D01*
G01X5710118Y3054375D01*
G01X5709163Y3057210D01*
G01X5708353Y3060090D01*
G01X5707687Y3063006D01*
G01X5707169Y3065953D01*
G01X5706796Y3068922D01*
G01X5706572Y3071906D01*
G01X5706499Y3074896D01*
G01X5706499Y3104896D01*
G01X5706572Y3107886D01*
G01X5706796Y3110870D01*
G01X5707169Y3113839D01*
G01X5707687Y3116786D01*
G01X5708353Y3119702D01*
G01X5709163Y3122582D01*
G01X5710118Y3125417D01*
G01X5711210Y3128203D01*
G01X5712440Y3130928D01*
G01X5713806Y3133590D01*
G01X5715302Y3136181D01*
G01X5716925Y3138696D01*
G01X5718670Y3141124D01*
G01X5720535Y3143463D01*
G01X5722516Y3145706D01*
G01X5724604Y3147847D01*
G01X5726798Y3149882D01*
G01X5729089Y3151805D01*
G01X5731474Y3153613D01*
G01X5733946Y3155297D01*
G01X5736499Y3156857D01*
G01X5739125Y3158289D01*
G01X5741822Y3159587D01*
G01X5744578Y3160748D01*
G01X5747390Y3161772D01*
G01X5750248Y3162653D01*
G01X5753148Y3163392D01*
G01X5756079Y3163984D01*
G01X5759039Y3164431D01*
G01X5762015Y3164728D01*
G01X5765002Y3164878D01*
G37*
G36*
G01X1543207Y3963297D02*
G02X1423208Y3963297I-60000J0D01*
G01X1423208Y4153299D01*
G02X1543207Y4153299I60000J0D01*
G01X1543207Y3963297D01*
G37*
G36*
G01X253192Y3963297D02*
G02X133193Y3963297I-60000J0D01*
G01X133193Y4153299D01*
G02X253192Y4153299I60000J0D01*
G01X253192Y3963297D01*
G37*
G36*
G01X544200Y3035305D02*
G01X432201Y3035305D01*
G01X432201Y3323306D01*
G01X544200Y3323306D01*
G01X544200Y3035305D01*
G37*
G36*
G01X794200Y3035305D02*
G01X682201Y3035305D01*
G01X682201Y3323306D01*
G01X794200Y3323306D01*
G01X794200Y3035305D01*
G37*
G36*
G01X994199Y3035305D02*
G01X882200Y3035305D01*
G01X882200Y3323306D01*
G01X994199Y3323306D01*
G01X994199Y3035305D01*
G37*
G36*
G01X1244199Y3035305D02*
G01X1132200Y3035305D01*
G01X1132200Y3323306D01*
G01X1244199Y3323306D01*
G01X1244199Y3035305D01*
G37*
G36*
G01X2965607Y3963297D02*
G02X2845608Y3963297I-60000J0D01*
G01X2845608Y4153299D01*
G02X2965607Y4153299I60000J0D01*
G01X2965607Y3963297D01*
G37*
G36*
G01X1675592Y3963297D02*
G02X1555593Y3963297I-60000J0D01*
G01X1555593Y4153299D01*
G02X1675592Y4153299I60000J0D01*
G01X1675592Y3963297D01*
G37*
G36*
G01X1966600Y3035305D02*
G01X1854601Y3035305D01*
G01X1854601Y3323306D01*
G01X1966600Y3323306D01*
G01X1966600Y3035305D01*
G37*
G36*
G01X2216600Y3035305D02*
G01X2104601Y3035305D01*
G01X2104601Y3323306D01*
G01X2216600Y3323306D01*
G01X2216600Y3035305D01*
G37*
G36*
G01X2416599Y3035305D02*
G01X2304600Y3035305D01*
G01X2304600Y3323306D01*
G01X2416599Y3323306D01*
G01X2416599Y3035305D01*
G37*
G36*
G01X2666599Y3035305D02*
G01X2554600Y3035305D01*
G01X2554600Y3323306D01*
G01X2666599Y3323306D01*
G01X2666599Y3035305D01*
G37*
G36*
G01X261996Y2083107D02*
G01X261996Y2053105D01*
G01X151996Y2053105D01*
G01X151996Y2083107D01*
G01X261996Y2083107D01*
G37*
G36*
G01X151996Y2103117D02*
G01X151996Y2133120D01*
G01X261996Y2133120D01*
G01X261996Y2103117D01*
G01X151996Y2103117D01*
G37*
G36*
G01X151996Y1593098D02*
G01X151996Y1653098D01*
G01X261996Y1653098D01*
G01X261996Y1593098D01*
G01X151996Y1593098D01*
G37*
G36*
G01X261996Y2033095D02*
G01X261996Y2003092D01*
G01X151996Y2003092D01*
G01X151996Y2033095D01*
G01X261996Y2033095D01*
G37*
G36*
G01X151996Y2153117D02*
G01X151996Y2213117D01*
G01X261996Y2213117D01*
G01X261996Y2153117D01*
G01X151996Y2153117D01*
G37*
G36*
G01X261996Y2293102D02*
G01X261996Y2233102D01*
G01X151996Y2233102D01*
G01X151996Y2293102D01*
G01X261996Y2293102D01*
G37*
G36*
G01X261996Y1983108D02*
G01X261996Y1953105D01*
G01X151996Y1953105D01*
G01X151996Y1983108D01*
G01X261996Y1983108D01*
G37*
G36*
G01X261996Y1933095D02*
G01X261996Y1903092D01*
G01X151996Y1903092D01*
G01X151996Y1933095D01*
G01X261996Y1933095D01*
G37*
G36*
G01X151996Y1673108D02*
G01X151996Y1733108D01*
G01X261996Y1733108D01*
G01X261996Y1673108D01*
G01X151996Y1673108D01*
G37*
G36*
G01X261996Y1883108D02*
G01X261996Y1853105D01*
G01X151996Y1853105D01*
G01X151996Y1883108D01*
G01X261996Y1883108D01*
G37*
G36*
G01X261996Y1833121D02*
G01X261996Y1803118D01*
G01X151996Y1803118D01*
G01X151996Y1833121D01*
G01X261996Y1833121D01*
G37*
G36*
G01X261996Y1783108D02*
G01X261996Y1753105D01*
G01X151996Y1753105D01*
G01X151996Y1783108D01*
G01X261996Y1783108D01*
G37*
G36*
G01X162156Y2380082D02*
G01X162453Y2383058D01*
G01X162900Y2386018D01*
G01X163492Y2388949D01*
G01X164231Y2391849D01*
G01X165113Y2394707D01*
G01X166136Y2397519D01*
G01X167297Y2400275D01*
G01X168595Y2402972D01*
G01X170028Y2405598D01*
G01X171587Y2408151D01*
G01X173271Y2410623D01*
G01X175080Y2413008D01*
G01X177002Y2415299D01*
G01X179037Y2417493D01*
G01X181178Y2419581D01*
G01X183421Y2421562D01*
G01X185760Y2423427D01*
G01X188189Y2425172D01*
G01X190703Y2426795D01*
G01X193294Y2428291D01*
G01X195956Y2429657D01*
G01X198681Y2430887D01*
G01X201468Y2431979D01*
G01X204302Y2432934D01*
G01X207183Y2433744D01*
G01X210099Y2434410D01*
G01X213045Y2434928D01*
G01X216014Y2435301D01*
G01X218999Y2435525D01*
G01X221988Y2435598D01*
G01X301988Y2435598D01*
G01X304978Y2435525D01*
G01X307962Y2435301D01*
G01X310932Y2434928D01*
G01X313878Y2434410D01*
G01X316794Y2433744D01*
G01X319674Y2432934D01*
G01X322509Y2431979D01*
G01X325295Y2430887D01*
G01X328021Y2429657D01*
G01X330683Y2428291D01*
G01X333273Y2426795D01*
G01X335788Y2425172D01*
G01X338216Y2423427D01*
G01X340556Y2421562D01*
G01X342798Y2419581D01*
G01X344940Y2417493D01*
G01X346974Y2415299D01*
G01X348897Y2413008D01*
G01X350705Y2410623D01*
G01X352389Y2408151D01*
G01X353949Y2405598D01*
G01X355382Y2402972D01*
G01X356680Y2400275D01*
G01X357840Y2397519D01*
G01X358864Y2394707D01*
G01X359745Y2391849D01*
G01X360484Y2388949D01*
G01X361076Y2386018D01*
G01X361523Y2383058D01*
G01X361820Y2380082D01*
G01X361970Y2377095D01*
G01X361970Y2374102D01*
G01X361820Y2371115D01*
G01X361523Y2368139D01*
G01X361076Y2365179D01*
G01X360484Y2362248D01*
G01X359745Y2359348D01*
G01X358864Y2356490D01*
G01X357840Y2353678D01*
G01X356680Y2350922D01*
G01X355382Y2348225D01*
G01X353949Y2345599D01*
G01X352389Y2343046D01*
G01X350705Y2340574D01*
G01X348897Y2338189D01*
G01X346974Y2335898D01*
G01X344940Y2333704D01*
G01X342798Y2331616D01*
G01X340556Y2329635D01*
G01X338216Y2327770D01*
G01X335788Y2326025D01*
G01X333273Y2324402D01*
G01X330683Y2322906D01*
G01X328021Y2321540D01*
G01X325295Y2320310D01*
G01X322509Y2319218D01*
G01X319674Y2318263D01*
G01X316794Y2317453D01*
G01X313878Y2316787D01*
G01X310932Y2316269D01*
G01X307962Y2315896D01*
G01X304978Y2315672D01*
G01X301988Y2315599D01*
G01X221988Y2315599D01*
G01X218999Y2315672D01*
G01X216014Y2315896D01*
G01X213045Y2316269D01*
G01X210099Y2316787D01*
G01X207183Y2317453D01*
G01X204302Y2318263D01*
G01X201468Y2319218D01*
G01X198681Y2320310D01*
G01X195956Y2321540D01*
G01X193294Y2322906D01*
G01X190703Y2324402D01*
G01X188189Y2326025D01*
G01X185760Y2327770D01*
G01X183421Y2329635D01*
G01X181178Y2331616D01*
G01X179037Y2333704D01*
G01X177002Y2335898D01*
G01X175080Y2338189D01*
G01X173271Y2340574D01*
G01X171587Y2343046D01*
G01X170028Y2345599D01*
G01X168595Y2348225D01*
G01X167297Y2350922D01*
G01X166136Y2353678D01*
G01X165113Y2356490D01*
G01X164231Y2359348D01*
G01X163492Y2362248D01*
G01X162900Y2365179D01*
G01X162453Y2368139D01*
G01X162156Y2371115D01*
G01X162006Y2374102D01*
G01X162006Y2377095D01*
G01X162156Y2380082D01*
G37*
G36*
G01X162006Y1509105D02*
G01X162006Y1512098D01*
G01X162156Y1515085D01*
G01X162453Y1518061D01*
G01X162900Y1521021D01*
G01X163492Y1523952D01*
G01X164231Y1526852D01*
G01X165113Y1529710D01*
G01X166136Y1532522D01*
G01X167297Y1535278D01*
G01X168595Y1537975D01*
G01X170028Y1540601D01*
G01X171587Y1543154D01*
G01X173271Y1545626D01*
G01X175080Y1548011D01*
G01X177002Y1550302D01*
G01X179037Y1552496D01*
G01X181178Y1554584D01*
G01X183421Y1556565D01*
G01X185760Y1558430D01*
G01X188189Y1560175D01*
G01X190703Y1561798D01*
G01X193294Y1563294D01*
G01X195956Y1564660D01*
G01X198681Y1565890D01*
G01X201468Y1566982D01*
G01X204302Y1567937D01*
G01X207183Y1568747D01*
G01X210099Y1569413D01*
G01X213045Y1569931D01*
G01X216014Y1570304D01*
G01X218999Y1570528D01*
G01X221988Y1570601D01*
G01X301988Y1570601D01*
G01X304978Y1570528D01*
G01X307962Y1570304D01*
G01X310932Y1569931D01*
G01X313878Y1569413D01*
G01X316794Y1568747D01*
G01X319674Y1567937D01*
G01X322509Y1566982D01*
G01X325295Y1565890D01*
G01X328021Y1564660D01*
G01X330683Y1563294D01*
G01X333273Y1561798D01*
G01X335788Y1560175D01*
G01X338216Y1558430D01*
G01X340556Y1556565D01*
G01X342798Y1554584D01*
G01X344940Y1552496D01*
G01X346974Y1550302D01*
G01X348897Y1548011D01*
G01X350705Y1545626D01*
G01X352389Y1543154D01*
G01X353949Y1540601D01*
G01X355382Y1537975D01*
G01X356680Y1535278D01*
G01X357840Y1532522D01*
G01X358864Y1529710D01*
G01X359745Y1526852D01*
G01X360484Y1523952D01*
G01X361076Y1521021D01*
G01X361523Y1518061D01*
G01X361820Y1515085D01*
G01X361970Y1512098D01*
G01X361970Y1509105D01*
G01X361820Y1506118D01*
G01X361523Y1503142D01*
G01X361076Y1500182D01*
G01X360484Y1497251D01*
G01X359745Y1494351D01*
G01X358864Y1491493D01*
G01X357840Y1488681D01*
G01X356680Y1485925D01*
G01X355382Y1483228D01*
G01X353949Y1480602D01*
G01X352389Y1478049D01*
G01X350705Y1475577D01*
G01X348897Y1473192D01*
G01X346974Y1470901D01*
G01X344940Y1468707D01*
G01X342798Y1466619D01*
G01X340556Y1464638D01*
G01X338216Y1462773D01*
G01X335788Y1461028D01*
G01X333273Y1459405D01*
G01X330683Y1457909D01*
G01X328021Y1456543D01*
G01X325295Y1455313D01*
G01X322509Y1454221D01*
G01X319674Y1453266D01*
G01X316794Y1452456D01*
G01X313878Y1451790D01*
G01X310932Y1451272D01*
G01X307962Y1450899D01*
G01X304978Y1450675D01*
G01X301988Y1450602D01*
G01X221988Y1450602D01*
G01X218999Y1450675D01*
G01X216014Y1450899D01*
G01X213045Y1451272D01*
G01X210099Y1451790D01*
G01X207183Y1452456D01*
G01X204302Y1453266D01*
G01X201468Y1454221D01*
G01X198681Y1455313D01*
G01X195956Y1456543D01*
G01X193294Y1457909D01*
G01X190703Y1459405D01*
G01X188189Y1461028D01*
G01X185760Y1462773D01*
G01X183421Y1464638D01*
G01X181178Y1466619D01*
G01X179037Y1468707D01*
G01X177002Y1470901D01*
G01X175080Y1473192D01*
G01X173271Y1475577D01*
G01X171587Y1478049D01*
G01X170028Y1480602D01*
G01X168595Y1483228D01*
G01X167297Y1485925D01*
G01X166136Y1488681D01*
G01X165113Y1491493D01*
G01X164231Y1494351D01*
G01X163492Y1497251D01*
G01X162900Y1500182D01*
G01X162453Y1503142D01*
G01X162156Y1506118D01*
G01X162006Y1509105D01*
G37*
G36*
G01X607172Y1515085D02*
G01X607469Y1518061D01*
G01X607916Y1521021D01*
G01X608508Y1523952D01*
G01X609247Y1526852D01*
G01X610128Y1529710D01*
G01X611152Y1532522D01*
G01X612313Y1535278D01*
G01X613611Y1537975D01*
G01X615043Y1540601D01*
G01X616603Y1543154D01*
G01X618287Y1545626D01*
G01X620095Y1548011D01*
G01X622018Y1550302D01*
G01X624053Y1552496D01*
G01X626194Y1554584D01*
G01X628437Y1556565D01*
G01X630776Y1558430D01*
G01X633204Y1560175D01*
G01X635719Y1561798D01*
G01X638310Y1563294D01*
G01X640972Y1564660D01*
G01X643697Y1565890D01*
G01X646483Y1566982D01*
G01X649318Y1567937D01*
G01X652198Y1568747D01*
G01X655114Y1569413D01*
G01X658061Y1569931D01*
G01X661030Y1570304D01*
G01X664014Y1570528D01*
G01X667004Y1570601D01*
G01X697004Y1570601D01*
G01X699994Y1570528D01*
G01X702978Y1570304D01*
G01X705947Y1569931D01*
G01X708894Y1569413D01*
G01X711810Y1568747D01*
G01X714690Y1567937D01*
G01X717525Y1566982D01*
G01X720311Y1565890D01*
G01X723036Y1564660D01*
G01X725698Y1563294D01*
G01X728289Y1561798D01*
G01X730804Y1560175D01*
G01X733232Y1558430D01*
G01X735571Y1556565D01*
G01X737814Y1554584D01*
G01X739955Y1552496D01*
G01X741990Y1550302D01*
G01X743913Y1548011D01*
G01X745721Y1545626D01*
G01X747405Y1543154D01*
G01X748965Y1540601D01*
G01X750397Y1537975D01*
G01X751695Y1535278D01*
G01X752856Y1532522D01*
G01X753880Y1529710D01*
G01X754761Y1526852D01*
G01X755500Y1523952D01*
G01X756092Y1521021D01*
G01X756539Y1518061D01*
G01X756836Y1515085D01*
G01X756986Y1512098D01*
G01X756986Y1509105D01*
G01X756836Y1506118D01*
G01X756539Y1503142D01*
G01X756092Y1500182D01*
G01X755500Y1497251D01*
G01X754761Y1494351D01*
G01X753880Y1491493D01*
G01X752856Y1488681D01*
G01X751695Y1485925D01*
G01X750397Y1483228D01*
G01X748965Y1480602D01*
G01X747405Y1478049D01*
G01X745721Y1475577D01*
G01X743913Y1473192D01*
G01X741990Y1470901D01*
G01X739955Y1468707D01*
G01X737814Y1466619D01*
G01X735571Y1464638D01*
G01X733232Y1462773D01*
G01X730804Y1461028D01*
G01X728289Y1459405D01*
G01X725698Y1457909D01*
G01X723036Y1456543D01*
G01X720311Y1455313D01*
G01X717525Y1454221D01*
G01X714690Y1453266D01*
G01X711810Y1452456D01*
G01X708894Y1451790D01*
G01X705947Y1451272D01*
G01X702978Y1450899D01*
G01X699994Y1450675D01*
G01X697004Y1450602D01*
G01X667004Y1450602D01*
G01X664014Y1450675D01*
G01X661030Y1450899D01*
G01X658061Y1451272D01*
G01X655114Y1451790D01*
G01X652198Y1452456D01*
G01X649318Y1453266D01*
G01X646483Y1454221D01*
G01X643697Y1455313D01*
G01X640972Y1456543D01*
G01X638310Y1457909D01*
G01X635719Y1459405D01*
G01X633204Y1461028D01*
G01X630776Y1462773D01*
G01X628437Y1464638D01*
G01X626194Y1466619D01*
G01X624053Y1468707D01*
G01X622018Y1470901D01*
G01X620095Y1473192D01*
G01X618287Y1475577D01*
G01X616603Y1478049D01*
G01X615043Y1480602D01*
G01X613611Y1483228D01*
G01X612313Y1485925D01*
G01X611152Y1488681D01*
G01X610128Y1491493D01*
G01X609247Y1494351D01*
G01X608508Y1497251D01*
G01X607916Y1500182D01*
G01X607469Y1503142D01*
G01X607172Y1506118D01*
G01X607022Y1509105D01*
G01X607022Y1512098D01*
G01X607172Y1515085D01*
G37*
G36*
G01X607022Y2374102D02*
G01X607022Y2377095D01*
G01X607172Y2380082D01*
G01X607469Y2383058D01*
G01X607916Y2386018D01*
G01X608508Y2388949D01*
G01X609247Y2391849D01*
G01X610128Y2394707D01*
G01X611152Y2397519D01*
G01X612313Y2400275D01*
G01X613611Y2402972D01*
G01X615043Y2405598D01*
G01X616603Y2408151D01*
G01X618287Y2410623D01*
G01X620095Y2413008D01*
G01X622018Y2415299D01*
G01X624053Y2417493D01*
G01X626194Y2419581D01*
G01X628437Y2421562D01*
G01X630776Y2423427D01*
G01X633204Y2425172D01*
G01X635719Y2426795D01*
G01X638310Y2428291D01*
G01X640972Y2429657D01*
G01X643697Y2430887D01*
G01X646483Y2431979D01*
G01X649318Y2432934D01*
G01X652198Y2433744D01*
G01X655114Y2434410D01*
G01X658061Y2434928D01*
G01X661030Y2435301D01*
G01X664014Y2435525D01*
G01X667004Y2435598D01*
G01X697004Y2435598D01*
G01X699994Y2435525D01*
G01X702978Y2435301D01*
G01X705947Y2434928D01*
G01X708894Y2434410D01*
G01X711810Y2433744D01*
G01X714690Y2432934D01*
G01X717525Y2431979D01*
G01X720311Y2430887D01*
G01X723036Y2429657D01*
G01X725698Y2428291D01*
G01X728289Y2426795D01*
G01X730804Y2425172D01*
G01X733232Y2423427D01*
G01X735571Y2421562D01*
G01X737814Y2419581D01*
G01X739955Y2417493D01*
G01X741990Y2415299D01*
G01X743913Y2413008D01*
G01X745721Y2410623D01*
G01X747405Y2408151D01*
G01X748965Y2405598D01*
G01X750397Y2402972D01*
G01X751695Y2400275D01*
G01X752856Y2397519D01*
G01X753880Y2394707D01*
G01X754761Y2391849D01*
G01X755500Y2388949D01*
G01X756092Y2386018D01*
G01X756539Y2383058D01*
G01X756836Y2380082D01*
G01X756986Y2377095D01*
G01X756986Y2374102D01*
G01X756836Y2371115D01*
G01X756539Y2368139D01*
G01X756092Y2365179D01*
G01X755500Y2362248D01*
G01X754761Y2359348D01*
G01X753880Y2356490D01*
G01X752856Y2353678D01*
G01X751695Y2350922D01*
G01X750397Y2348225D01*
G01X748965Y2345599D01*
G01X747405Y2343046D01*
G01X745721Y2340574D01*
G01X743913Y2338189D01*
G01X741990Y2335898D01*
G01X739955Y2333704D01*
G01X737814Y2331616D01*
G01X735571Y2329635D01*
G01X733232Y2327770D01*
G01X730804Y2326025D01*
G01X728289Y2324402D01*
G01X725698Y2322906D01*
G01X723036Y2321540D01*
G01X720311Y2320310D01*
G01X717525Y2319218D01*
G01X714690Y2318263D01*
G01X711810Y2317453D01*
G01X708894Y2316787D01*
G01X705947Y2316269D01*
G01X702978Y2315896D01*
G01X699994Y2315672D01*
G01X697004Y2315599D01*
G01X667004Y2315599D01*
G01X664014Y2315672D01*
G01X661030Y2315896D01*
G01X658061Y2316269D01*
G01X655114Y2316787D01*
G01X652198Y2317453D01*
G01X649318Y2318263D01*
G01X646483Y2319218D01*
G01X643697Y2320310D01*
G01X640972Y2321540D01*
G01X638310Y2322906D01*
G01X635719Y2324402D01*
G01X633204Y2326025D01*
G01X630776Y2327770D01*
G01X628437Y2329635D01*
G01X626194Y2331616D01*
G01X624053Y2333704D01*
G01X622018Y2335898D01*
G01X620095Y2338189D01*
G01X618287Y2340574D01*
G01X616603Y2343046D01*
G01X615043Y2345599D01*
G01X613611Y2348225D01*
G01X612313Y2350922D01*
G01X611152Y2353678D01*
G01X610128Y2356490D01*
G01X609247Y2359348D01*
G01X608508Y2362248D01*
G01X607916Y2365179D01*
G01X607469Y2368139D01*
G01X607172Y2371115D01*
G01X607022Y2374102D01*
G37*

G04 Pad Start*
G54D10*
G01X1892300Y2761399D03*
G01X1892300Y2901404D03*
G01X457200Y2926804D03*
G01X457200Y2786799D03*
G01X3619500Y3727298D03*
G01X3619500Y3867302D03*
G54D11*
G01X4583209Y1441279D03*
G01X4443204Y1441279D03*
G01X4591202Y1231900D03*
G01X4451198Y1231900D03*
G01X3600308Y1638308D03*
G01X3740313Y1638308D03*
G01X4578502Y1676400D03*
G01X4438498Y1676400D03*
G01X3600308Y1244608D03*
G01X3740313Y1244608D03*
G01X3600308Y1447808D03*
G01X3740313Y1447808D03*
G01X272898Y520700D03*
G01X412902Y520700D03*
G54D12*
G01X4269410Y894004D03*
G01X4269410Y947014D03*
G01X4269410Y999998D03*
G01X4269410Y1053008D03*
G01X4269410Y1105992D03*
G01X4269410Y1159002D03*
G01X4269410Y1212012D03*
G01X4269410Y1264996D03*
G01X3909390Y1264996D03*
G01X3909390Y1212012D03*
G01X3909390Y1159002D03*
G01X3909390Y1105992D03*
G01X3909390Y1053008D03*
G01X3909390Y999998D03*
G01X3909390Y947014D03*
G01X3909390Y894004D03*
G54D10*
G01X5600700Y3943502D03*
G01X5600700Y3803498D03*
G04 Pad End*

M02*

